<ttFont>
<head>
    <!-- Most of this table will be recalculated by the compiler -->
    <tableVersion value="1.0"/>
    <fontRevision value="2.538"/>
    <checkSumAdjustment value="0xfb64c877"/>
    <magicNumber value="0x5f0f3cf5"/>
    <flags value="00000000 00001111"/>
    <unitsPerEm value="1000"/>
    <created value="Thu May 18 16:23:40 2017"/>
    <modified value="Thu May 18 11:45:54 2017"/>
    <xMin value="-219"/>
    <yMin value="-384"/>
    <xMax value="2378"/>
    <yMax value="935"/>
    <macStyle value="00000000 00000000"/>
    <lowestRecPPEM value="9"/>
    <fontDirectionHint value="2"/>
    <indexToLocFormat value="1"/>
    <glyphDataFormat value="0"/>
  </head>
    <TTGlyph name=".notdef" xMin="0" yMin="0" xMax="524" yMax="698">
      <contour>
        <pt x="0" y="698" on="1"/>
        <pt x="524" y="698" on="1"/>
        <pt x="524" y="0" on="1"/>
        <pt x="0" y="0" on="1"/>
      </contour>
      <contour>
        <pt x="401" y="630" on="1"/>
        <pt x="124" y="630" on="1"/>
        <pt x="262" y="424" on="1"/>
      </contour>
      <contour>
        <pt x="437" y="162" on="1"/>
        <pt x="437" y="536" on="1"/>
        <pt x="312" y="349" on="1"/>
      </contour>
      <contour>
        <pt x="401" y="68" on="1"/>
        <pt x="262" y="274" on="1"/>
        <pt x="124" y="68" on="1"/>
      </contour>
      <contour>
        <pt x="88" y="162" on="1"/>
        <pt x="213" y="349" on="1"/>
        <pt x="88" y="536" on="1"/>
      </contour>
    </TTGlyph>
    <TTGlyph name="A" xMin="16" yMin="0" xMax="634" yMax="630">
      <contour>
        <pt x="245" y="630" on="1"/>
        <pt x="407" y="630" on="1"/>
        <pt x="634" y="0" on="1"/>
        <pt x="473" y="0" on="1"/>
        <pt x="430" y="135" on="1"/>
        <pt x="218" y="135" on="1"/>
        <pt x="175" y="0" on="1"/>
        <pt x="16" y="0" on="1"/>
      </contour>
      <contour>
        <pt x="251" y="245" on="1"/>
        <pt x="395" y="245" on="1"/>
        <pt x="371" y="321" on="1"/>
        <pt x="359" y="358" on="0"/>
        <pt x="334" y="442" on="0"/>
        <pt x="325" y="477" on="1"/>
        <pt x="323" y="477" on="1"/>
        <pt x="313" y="442" on="0"/>
        <pt x="287" y="360" on="0"/>
        <pt x="275" y="321" on="1"/>
      </contour>
    </TTGlyph>
    <TTGlyph name="AE" xMin="16" yMin="0" xMax="813" yMax="630">
      <contour>
        <pt x="330" y="630" on="1"/>
        <pt x="810" y="630" on="1"/>
        <pt x="810" y="514" on="1"/>
        <pt x="572" y="514" on="1"/>
        <pt x="572" y="385" on="1"/>
        <pt x="784" y="385" on="1"/>
        <pt x="784" y="270" on="1"/>
        <pt x="572" y="270" on="1"/>
        <pt x="572" y="116" on="1"/>
        <pt x="813" y="116" on="1"/>
        <pt x="813" y="0" on="1"/>
        <pt x="420" y="0" on="1"/>
        <pt x="420" y="140" on="1"/>
        <pt x="253" y="140" on="1"/>
        <pt x="185" y="0" on="1"/>
        <pt x="16" y="0" on="1"/>
      </contour>
      <contour>
        <pt x="420" y="522" on="1"/>
        <pt x="301" y="255" on="1"/>
        <pt x="420" y="255" on="1"/>
      </contour>
    </TTGlyph>
    <TTGlyph name="AEacute" xMin="16" yMin="0" xMax="813" yMax="814">
      <contour>
        <pt x="330" y="630" on="1"/>
        <pt x="810" y="630" on="1"/>
        <pt x="810" y="514" on="1"/>
        <pt x="572" y="514" on="1"/>
        <pt x="572" y="385" on="1"/>
        <pt x="784" y="385" on="1"/>
        <pt x="784" y="270" on="1"/>
        <pt x="572" y="270" on="1"/>
        <pt x="572" y="116" on="1"/>
        <pt x="813" y="116" on="1"/>
        <pt x="813" y="0" on="1"/>
        <pt x="420" y="0" on="1"/>
        <pt x="420" y="140" on="1"/>
        <pt x="253" y="140" on="1"/>
        <pt x="185" y="0" on="1"/>
        <pt x="16" y="0" on="1"/>
      </contour>
      <contour>
        <pt x="420" y="522" on="1"/>
        <pt x="301" y="255" on="1"/>
        <pt x="420" y="255" on="1"/>
      </contour>
      <contour>
        <pt x="472" y="690" on="1"/>
        <pt x="350" y="690" on="1"/>
        <pt x="430" y="814" on="1"/>
        <pt x="588" y="814" on="1"/>
      </contour>
    </TTGlyph>
    <TTGlyph name="Aacute" xMin="16" yMin="0" xMax="634" yMax="814">
      <contour>
        <pt x="387" y="690" on="1"/>
        <pt x="265" y="690" on="1"/>
        <pt x="345" y="814" on="1"/>
        <pt x="503" y="814" on="1"/>
      </contour>
      <contour>
        <pt x="245" y="630" on="1"/>
        <pt x="407" y="630" on="1"/>
        <pt x="634" y="0" on="1"/>
        <pt x="473" y="0" on="1"/>
        <pt x="430" y="135" on="1"/>
        <pt x="218" y="135" on="1"/>
        <pt x="175" y="0" on="1"/>
        <pt x="16" y="0" on="1"/>
      </contour>
      <contour>
        <pt x="251" y="245" on="1"/>
        <pt x="395" y="245" on="1"/>
        <pt x="371" y="321" on="1"/>
        <pt x="359" y="358" on="0"/>
        <pt x="334" y="442" on="0"/>
        <pt x="325" y="477" on="1"/>
        <pt x="323" y="477" on="1"/>
        <pt x="313" y="442" on="0"/>
        <pt x="287" y="360" on="0"/>
        <pt x="275" y="321" on="1"/>
      </contour>
    </TTGlyph>
    <TTGlyph name="Aaytam.tm" xMin="12" yMin="-22" xMax="666" yMax="563">
      <contour>
        <pt x="340" y="563" on="1"/>
        <pt x="372" y="563" on="0"/>
        <pt x="427" y="542" on="0"/>
        <pt x="468" y="503" on="0"/>
        <pt x="491" y="450" on="0"/>
        <pt x="491" y="417" on="1"/>
        <pt x="491" y="381" on="0"/>
        <pt x="465" y="327" on="0"/>
        <pt x="421" y="291" on="0"/>
        <pt x="366" y="273" on="0"/>
        <pt x="337" y="273" on="1"/>
        <pt x="308" y="273" on="0"/>
        <pt x="254" y="291" on="0"/>
        <pt x="210" y="327" on="0"/>
        <pt x="184" y="381" on="0"/>
        <pt x="184" y="417" on="1"/>
        <pt x="184" y="450" on="0"/>
        <pt x="207" y="503" on="0"/>
        <pt x="248" y="542" on="0"/>
        <pt x="305" y="563" on="0"/>
      </contour>
      <contour>
        <pt x="337" y="468" on="1"/>
        <pt x="292" y="468" on="0"/>
        <pt x="292" y="416" on="1"/>
        <pt x="292" y="391" on="0"/>
        <pt x="318" y="365" on="0"/>
        <pt x="339" y="365" on="1"/>
        <pt x="359" y="365" on="0"/>
        <pt x="385" y="392" on="0"/>
        <pt x="385" y="416" on="1"/>
        <pt x="385" y="442" on="0"/>
        <pt x="358" y="468" on="0"/>
      </contour>
      <contour>
        <pt x="167" y="268" on="1"/>
        <pt x="199" y="268" on="0"/>
        <pt x="254" y="247" on="0"/>
        <pt x="294" y="209" on="0"/>
        <pt x="317" y="155" on="0"/>
        <pt x="317" y="123" on="1"/>
        <pt x="317" y="91" on="0"/>
        <pt x="294" y="37" on="0"/>
        <pt x="252" y="-1" on="0"/>
        <pt x="196" y="-22" on="0"/>
        <pt x="163" y="-22" on="1"/>
        <pt x="130" y="-22" on="0"/>
        <pt x="75" y="-1" on="0"/>
        <pt x="34" y="37" on="0"/>
        <pt x="12" y="91" on="0"/>
        <pt x="12" y="123" on="1"/>
        <pt x="12" y="155" on="0"/>
        <pt x="35" y="209" on="0"/>
        <pt x="75" y="247" on="0"/>
        <pt x="132" y="268" on="0"/>
      </contour>
      <contour>
        <pt x="164" y="174" on="1"/>
        <pt x="144" y="174" on="0"/>
        <pt x="119" y="147" on="0"/>
        <pt x="119" y="123" on="1"/>
        <pt x="119" y="97" on="0"/>
        <pt x="146" y="72" on="0"/>
        <pt x="166" y="72" on="1"/>
        <pt x="186" y="72" on="0"/>
        <pt x="211" y="100" on="0"/>
        <pt x="211" y="123" on="1"/>
        <pt x="211" y="149" on="0"/>
        <pt x="185" y="174" on="0"/>
      </contour>
      <contour>
        <pt x="515" y="270" on="1"/>
        <pt x="547" y="270" on="0"/>
        <pt x="602" y="249" on="0"/>
        <pt x="643" y="210" on="0"/>
        <pt x="666" y="156" on="0"/>
        <pt x="666" y="124" on="1"/>
        <pt x="666" y="92" on="0"/>
        <pt x="643" y="38" on="0"/>
        <pt x="601" y="-1" on="0"/>
        <pt x="544" y="-22" on="0"/>
        <pt x="511" y="-22" on="1"/>
        <pt x="478" y="-22" on="0"/>
        <pt x="422" y="-1" on="0"/>
        <pt x="381" y="38" on="0"/>
        <pt x="359" y="92" on="0"/>
        <pt x="359" y="124" on="1"/>
        <pt x="359" y="156" on="0"/>
        <pt x="382" y="210" on="0"/>
        <pt x="423" y="249" on="0"/>
        <pt x="480" y="270" on="0"/>
      </contour>
      <contour>
        <pt x="512" y="176" on="1"/>
        <pt x="491" y="176" on="0"/>
        <pt x="467" y="149" on="0"/>
        <pt x="467" y="124" on="1"/>
        <pt x="467" y="98" on="0"/>
        <pt x="493" y="72" on="0"/>
        <pt x="514" y="72" on="1"/>
        <pt x="534" y="72" on="0"/>
        <pt x="559" y="100" on="0"/>
        <pt x="559" y="124" on="1"/>
        <pt x="559" y="150" on="0"/>
        <pt x="532" y="176" on="0"/>
      </contour>
    </TTGlyph>
    <TTGlyph name="Abreve" xMin="16" yMin="0" xMax="634" yMax="814">
      <contour>
        <pt x="271" y="814" on="1"/>
        <pt x="272" y="791" on="0"/>
        <pt x="297" y="764" on="0"/>
        <pt x="324" y="764" on="1"/>
        <pt x="373" y="764" on="0"/>
        <pt x="375" y="814" on="1"/>
        <pt x="457" y="814" on="1"/>
        <pt x="457" y="753" on="0"/>
        <pt x="388" y="685" on="0"/>
        <pt x="323" y="685" on="1"/>
        <pt x="287" y="685" on="0"/>
        <pt x="236" y="706" on="0"/>
        <pt x="203" y="741" on="0"/>
        <pt x="188" y="788" on="0"/>
        <pt x="188" y="814" on="1"/>
      </contour>
      <contour>
        <pt x="245" y="630" on="1"/>
        <pt x="407" y="630" on="1"/>
        <pt x="634" y="0" on="1"/>
        <pt x="473" y="0" on="1"/>
        <pt x="430" y="135" on="1"/>
        <pt x="218" y="135" on="1"/>
        <pt x="175" y="0" on="1"/>
        <pt x="16" y="0" on="1"/>
      </contour>
      <contour>
        <pt x="251" y="245" on="1"/>
        <pt x="395" y="245" on="1"/>
        <pt x="371" y="321" on="1"/>
        <pt x="359" y="358" on="0"/>
        <pt x="334" y="442" on="0"/>
        <pt x="325" y="477" on="1"/>
        <pt x="323" y="477" on="1"/>
        <pt x="313" y="442" on="0"/>
        <pt x="287" y="360" on="0"/>
        <pt x="275" y="321" on="1"/>
      </contour>
    </TTGlyph>
    <TTGlyph name="Acircumflex" xMin="16" yMin="0" xMax="634" yMax="814">
      <contour>
        <pt x="269" y="814" on="1"/>
        <pt x="378" y="814" on="1"/>
        <pt x="493" y="690" on="1"/>
        <pt x="383" y="690" on="1"/>
        <pt x="323" y="754" on="1"/>
        <pt x="263" y="690" on="1"/>
        <pt x="157" y="690" on="1"/>
      </contour>
      <contour>
        <pt x="245" y="630" on="1"/>
        <pt x="407" y="630" on="1"/>
        <pt x="634" y="0" on="1"/>
        <pt x="473" y="0" on="1"/>
        <pt x="430" y="135" on="1"/>
        <pt x="218" y="135" on="1"/>
        <pt x="175" y="0" on="1"/>
        <pt x="16" y="0" on="1"/>
      </contour>
      <contour>
        <pt x="251" y="245" on="1"/>
        <pt x="395" y="245" on="1"/>
        <pt x="371" y="321" on="1"/>
        <pt x="359" y="358" on="0"/>
        <pt x="334" y="442" on="0"/>
        <pt x="325" y="477" on="1"/>
        <pt x="323" y="477" on="1"/>
        <pt x="313" y="442" on="0"/>
        <pt x="287" y="360" on="0"/>
        <pt x="275" y="321" on="1"/>
      </contour>
    </TTGlyph>
    <TTGlyph name="Adieresis" xMin="16" yMin="0" xMax="634" yMax="814">
      <contour>
        <pt x="154" y="748" on="1"/>
        <pt x="154" y="776" on="0"/>
        <pt x="193" y="814" on="0"/>
        <pt x="222" y="814" on="1"/>
        <pt x="251" y="814" on="0"/>
        <pt x="289" y="776" on="0"/>
        <pt x="289" y="748" on="1"/>
        <pt x="289" y="719" on="0"/>
        <pt x="251" y="679" on="0"/>
        <pt x="222" y="679" on="1"/>
        <pt x="193" y="679" on="0"/>
        <pt x="154" y="719" on="0"/>
      </contour>
      <contour>
        <pt x="359" y="748" on="1"/>
        <pt x="359" y="776" on="0"/>
        <pt x="398" y="814" on="0"/>
        <pt x="427" y="814" on="1"/>
        <pt x="456" y="814" on="0"/>
        <pt x="494" y="776" on="0"/>
        <pt x="494" y="748" on="1"/>
        <pt x="494" y="719" on="0"/>
        <pt x="456" y="679" on="0"/>
        <pt x="427" y="679" on="1"/>
        <pt x="398" y="679" on="0"/>
        <pt x="359" y="719" on="0"/>
      </contour>
      <contour>
        <pt x="245" y="630" on="1"/>
        <pt x="407" y="630" on="1"/>
        <pt x="634" y="0" on="1"/>
        <pt x="473" y="0" on="1"/>
        <pt x="430" y="135" on="1"/>
        <pt x="218" y="135" on="1"/>
        <pt x="175" y="0" on="1"/>
        <pt x="16" y="0" on="1"/>
      </contour>
      <contour>
        <pt x="251" y="245" on="1"/>
        <pt x="395" y="245" on="1"/>
        <pt x="371" y="321" on="1"/>
        <pt x="359" y="358" on="0"/>
        <pt x="334" y="442" on="0"/>
        <pt x="325" y="477" on="1"/>
        <pt x="323" y="477" on="1"/>
        <pt x="313" y="442" on="0"/>
        <pt x="287" y="360" on="0"/>
        <pt x="275" y="321" on="1"/>
      </contour>
    </TTGlyph>
    <TTGlyph name="Agrave" xMin="16" yMin="0" xMax="634" yMax="814">
      <contour>
        <pt x="150" y="814" on="1"/>
        <pt x="308" y="814" on="1"/>
        <pt x="388" y="690" on="1"/>
        <pt x="266" y="690" on="1"/>
      </contour>
      <contour>
        <pt x="245" y="630" on="1"/>
        <pt x="407" y="630" on="1"/>
        <pt x="634" y="0" on="1"/>
        <pt x="473" y="0" on="1"/>
        <pt x="430" y="135" on="1"/>
        <pt x="218" y="135" on="1"/>
        <pt x="175" y="0" on="1"/>
        <pt x="16" y="0" on="1"/>
      </contour>
      <contour>
        <pt x="251" y="245" on="1"/>
        <pt x="395" y="245" on="1"/>
        <pt x="371" y="321" on="1"/>
        <pt x="359" y="358" on="0"/>
        <pt x="334" y="442" on="0"/>
        <pt x="325" y="477" on="1"/>
        <pt x="323" y="477" on="1"/>
        <pt x="313" y="442" on="0"/>
        <pt x="287" y="360" on="0"/>
        <pt x="275" y="321" on="1"/>
      </contour>
    </TTGlyph>
    <TTGlyph name="Amacron" xMin="16" yMin="0" xMax="634" yMax="772">
      <contour>
        <pt x="454" y="772" on="1"/>
        <pt x="454" y="690" on="1"/>
        <pt x="194" y="690" on="1"/>
        <pt x="194" y="772" on="1"/>
      </contour>
      <contour>
        <pt x="245" y="630" on="1"/>
        <pt x="407" y="630" on="1"/>
        <pt x="634" y="0" on="1"/>
        <pt x="473" y="0" on="1"/>
        <pt x="430" y="135" on="1"/>
        <pt x="218" y="135" on="1"/>
        <pt x="175" y="0" on="1"/>
        <pt x="16" y="0" on="1"/>
      </contour>
      <contour>
        <pt x="251" y="245" on="1"/>
        <pt x="395" y="245" on="1"/>
        <pt x="371" y="321" on="1"/>
        <pt x="359" y="358" on="0"/>
        <pt x="334" y="442" on="0"/>
        <pt x="325" y="477" on="1"/>
        <pt x="323" y="477" on="1"/>
        <pt x="313" y="442" on="0"/>
        <pt x="287" y="360" on="0"/>
        <pt x="275" y="321" on="1"/>
      </contour>
    </TTGlyph>
    <TTGlyph name="Anusvara.tm" xMin="2" yMin="517" xMax="309" yMax="807">
      <contour>
        <pt x="158" y="807" on="1"/>
        <pt x="190" y="807" on="0"/>
        <pt x="245" y="786" on="0"/>
        <pt x="286" y="747" on="0"/>
        <pt x="309" y="694" on="0"/>
        <pt x="309" y="661" on="1"/>
        <pt x="309" y="625" on="0"/>
        <pt x="283" y="571" on="0"/>
        <pt x="239" y="535" on="0"/>
        <pt x="184" y="517" on="0"/>
        <pt x="155" y="517" on="1"/>
        <pt x="126" y="517" on="0"/>
        <pt x="72" y="535" on="0"/>
        <pt x="28" y="571" on="0"/>
        <pt x="2" y="625" on="0"/>
        <pt x="2" y="661" on="1"/>
        <pt x="2" y="694" on="0"/>
        <pt x="25" y="747" on="0"/>
        <pt x="66" y="786" on="0"/>
        <pt x="123" y="807" on="0"/>
      </contour>
      <contour>
        <pt x="155" y="712" on="1"/>
        <pt x="110" y="712" on="0"/>
        <pt x="110" y="660" on="1"/>
        <pt x="110" y="635" on="0"/>
        <pt x="136" y="609" on="0"/>
        <pt x="157" y="609" on="1"/>
        <pt x="177" y="609" on="0"/>
        <pt x="203" y="636" on="0"/>
        <pt x="203" y="660" on="1"/>
        <pt x="203" y="686" on="0"/>
        <pt x="176" y="712" on="0"/>
      </contour>
    </TTGlyph>
    <TTGlyph name="Aogonek" xMin="16" yMin="-206" xMax="634" yMax="630">
      <contour>
        <pt x="245" y="630" on="1"/>
        <pt x="407" y="630" on="1"/>
        <pt x="634" y="0" on="1"/>
        <pt x="568" y="0" on="1"/>
        <pt x="551" y="-17" on="0"/>
        <pt x="528" y="-55" on="0"/>
        <pt x="528" y="-75" on="1"/>
        <pt x="528" y="-94" on="0"/>
        <pt x="549" y="-116" on="0"/>
        <pt x="569" y="-116" on="1"/>
        <pt x="582" y="-116" on="0"/>
        <pt x="600" y="-111" on="0"/>
        <pt x="608" y="-108" on="1"/>
        <pt x="628" y="-184" on="1"/>
        <pt x="612" y="-194" on="0"/>
        <pt x="567" y="-206" on="0"/>
        <pt x="541" y="-206" on="1"/>
        <pt x="495" y="-206" on="0"/>
        <pt x="434" y="-151" on="0"/>
        <pt x="434" y="-104" on="1"/>
        <pt x="434" y="-66" on="0"/>
        <pt x="460" y="-17" on="0"/>
        <pt x="473" y="0" on="1"/>
        <pt x="430" y="135" on="1"/>
        <pt x="218" y="135" on="1"/>
        <pt x="175" y="0" on="1"/>
        <pt x="16" y="0" on="1"/>
      </contour>
      <contour>
        <pt x="251" y="245" on="1"/>
        <pt x="395" y="245" on="1"/>
        <pt x="371" y="321" on="1"/>
        <pt x="359" y="358" on="0"/>
        <pt x="334" y="442" on="0"/>
        <pt x="325" y="477" on="1"/>
        <pt x="323" y="477" on="1"/>
        <pt x="313" y="442" on="0"/>
        <pt x="287" y="360" on="0"/>
        <pt x="275" y="321" on="1"/>
      </contour>
    </TTGlyph>
    <TTGlyph name="Aring" xMin="16" yMin="0" xMax="634" yMax="856">
      <contour>
        <pt x="216" y="763" on="1"/>
        <pt x="216" y="809" on="0"/>
        <pt x="276" y="856" on="0"/>
        <pt x="323" y="856" on="1"/>
        <pt x="370" y="856" on="0"/>
        <pt x="430" y="809" on="0"/>
        <pt x="430" y="763" on="1"/>
        <pt x="430" y="740" on="0"/>
        <pt x="413" y="705" on="0"/>
        <pt x="384" y="682" on="0"/>
        <pt x="345" y="670" on="0"/>
        <pt x="323" y="670" on="1"/>
        <pt x="278" y="670" on="0"/>
        <pt x="216" y="718" on="0"/>
      </contour>
      <contour>
        <pt x="285" y="763" on="1"/>
        <pt x="285" y="742" on="0"/>
        <pt x="306" y="719" on="0"/>
        <pt x="323" y="719" on="1"/>
        <pt x="340" y="719" on="0"/>
        <pt x="361" y="742" on="0"/>
        <pt x="361" y="763" on="1"/>
        <pt x="361" y="784" on="0"/>
        <pt x="340" y="807" on="0"/>
        <pt x="323" y="807" on="1"/>
        <pt x="306" y="807" on="0"/>
        <pt x="285" y="784" on="0"/>
      </contour>
      <contour>
        <pt x="245" y="630" on="1"/>
        <pt x="407" y="630" on="1"/>
        <pt x="634" y="0" on="1"/>
        <pt x="473" y="0" on="1"/>
        <pt x="430" y="135" on="1"/>
        <pt x="218" y="135" on="1"/>
        <pt x="175" y="0" on="1"/>
        <pt x="16" y="0" on="1"/>
      </contour>
      <contour>
        <pt x="251" y="245" on="1"/>
        <pt x="395" y="245" on="1"/>
        <pt x="371" y="321" on="1"/>
        <pt x="359" y="358" on="0"/>
        <pt x="334" y="442" on="0"/>
        <pt x="325" y="477" on="1"/>
        <pt x="323" y="477" on="1"/>
        <pt x="313" y="442" on="0"/>
        <pt x="287" y="360" on="0"/>
        <pt x="275" y="321" on="1"/>
      </contour>
    </TTGlyph>
    <TTGlyph name="AsAboveSign.tm" xMin="26" yMin="-215" xMax="1810" yMax="739">
      <contour>
        <pt x="928" y="154" on="1"/>
        <pt x="928" y="173" on="0"/>
        <pt x="912" y="206" on="0"/>
        <pt x="883" y="239" on="0"/>
        <pt x="845" y="273" on="0"/>
        <pt x="823" y="293" on="1"/>
        <pt x="815" y="273" on="0"/>
        <pt x="806" y="224" on="0"/>
        <pt x="806" y="193" on="1"/>
        <pt x="806" y="145" on="0"/>
        <pt x="844" y="95" on="0"/>
        <pt x="873" y="95" on="1"/>
        <pt x="898" y="95" on="0"/>
        <pt x="928" y="125" on="0"/>
      </contour>
      <contour>
        <pt x="372" y="176" on="1"/>
        <pt x="372" y="146" on="0"/>
        <pt x="406" y="95" on="0"/>
        <pt x="435" y="84" on="1"/>
        <pt x="464" y="92" on="0"/>
        <pt x="501" y="146" on="0"/>
        <pt x="501" y="175" on="1"/>
        <pt x="501" y="213" on="0"/>
        <pt x="462" y="249" on="0"/>
        <pt x="436" y="249" on="1"/>
        <pt x="407" y="249" on="0"/>
        <pt x="372" y="208" on="0"/>
      </contour>
      <contour>
        <pt x="1142" y="0" on="1"/>
        <pt x="1110" y="76" on="1"/>
        <pt x="1127" y="106" on="0"/>
        <pt x="1146" y="181" on="0"/>
        <pt x="1146" y="232" on="1"/>
        <pt x="1146" y="270" on="0"/>
        <pt x="1123" y="334" on="0"/>
        <pt x="1080" y="381" on="0"/>
        <pt x="1017" y="407" on="0"/>
        <pt x="978" y="407" on="1"/>
        <pt x="923" y="407" on="0"/>
        <pt x="888" y="383" on="1"/>
        <pt x="916" y="357" on="0"/>
        <pt x="976" y="311" on="0"/>
        <pt x="1025" y="258" on="0"/>
        <pt x="1056" y="194" on="0"/>
        <pt x="1056" y="152" on="1"/>
        <pt x="1056" y="114" on="0"/>
        <pt x="1028" y="54" on="0"/>
        <pt x="979" y="12" on="0"/>
        <pt x="910" y="-11" on="0"/>
        <pt x="870" y="-11" on="1"/>
        <pt x="829" y="-11" on="0"/>
        <pt x="759" y="16" on="0"/>
        <pt x="708" y="68" on="0"/>
        <pt x="680" y="142" on="0"/>
        <pt x="680" y="190" on="1"/>
        <pt x="680" y="250" on="0"/>
        <pt x="713" y="343" on="0"/>
        <pt x="736" y="375" on="1"/>
        <pt x="723" y="390" on="0"/>
        <pt x="692" y="433" on="0"/>
        <pt x="667" y="471" on="1"/>
        <pt x="649" y="498" on="0"/>
        <pt x="604" y="555" on="0"/>
        <pt x="545" y="601" on="0"/>
        <pt x="469" y="631" on="0"/>
        <pt x="420" y="631" on="1"/>
        <pt x="363" y="631" on="0"/>
        <pt x="268" y="589" on="0"/>
        <pt x="200" y="513" on="0"/>
        <pt x="162" y="409" on="0"/>
        <pt x="162" y="348" on="1"/>
        <pt x="162" y="297" on="0"/>
        <pt x="185" y="210" on="0"/>
        <pt x="226" y="143" on="0"/>
        <pt x="280" y="96" on="0"/>
        <pt x="311" y="85" on="1"/>
        <pt x="288" y="103" on="0"/>
        <pt x="260" y="160" on="0"/>
        <pt x="260" y="195" on="1"/>
        <pt x="260" y="226" on="0"/>
        <pt x="284" y="283" on="0"/>
        <pt x="330" y="328" on="0"/>
        <pt x="397" y="355" on="0"/>
        <pt x="439" y="355" on="1"/>
        <pt x="478" y="355" on="0"/>
        <pt x="545" y="329" on="0"/>
        <pt x="596" y="281" on="0"/>
        <pt x="625" y="214" on="0"/>
        <pt x="625" y="174" on="1"/>
        <pt x="625" y="132" on="0"/>
        <pt x="588" y="62" on="0"/>
        <pt x="524" y="12" on="0"/>
        <pt x="435" y="-16" on="0"/>
        <pt x="384" y="-16" on="1"/>
        <pt x="306" y="-16" on="0"/>
        <pt x="174" y="38" on="0"/>
        <pt x="79" y="134" on="0"/>
        <pt x="26" y="267" on="0"/>
        <pt x="26" y="347" on="1"/>
        <pt x="26" y="428" on="0"/>
        <pt x="79" y="571" on="0"/>
        <pt x="181" y="677" on="0"/>
        <pt x="328" y="739" on="0"/>
        <pt x="422" y="739" on="1"/>
        <pt x="495" y="739" on="0"/>
        <pt x="606" y="696" on="0"/>
        <pt x="688" y="635" on="0"/>
        <pt x="744" y="565" on="0"/>
        <pt x="763" y="538" on="1"/>
        <pt x="780" y="513" on="0"/>
        <pt x="802" y="478" on="0"/>
        <pt x="816" y="460" on="1"/>
        <pt x="848" y="483" on="0"/>
        <pt x="934" y="515" on="0"/>
        <pt x="985" y="515" on="1"/>
        <pt x="1047" y="515" on="0"/>
        <pt x="1155" y="477" on="0"/>
        <pt x="1236" y="406" on="0"/>
        <pt x="1283" y="305" on="0"/>
        <pt x="1283" y="243" on="1"/>
        <pt x="1283" y="196" on="0"/>
        <pt x="1270" y="130" on="0"/>
        <pt x="1259" y="103" on="1"/>
        <pt x="1442" y="103" on="1"/>
        <pt x="1491" y="212" on="1"/>
        <pt x="1413" y="218" on="0"/>
        <pt x="1327" y="303" on="0"/>
        <pt x="1327" y="361" on="1"/>
        <pt x="1327" y="392" on="0"/>
        <pt x="1350" y="448" on="0"/>
        <pt x="1394" y="488" on="0"/>
        <pt x="1455" y="512" on="0"/>
        <pt x="1493" y="512" on="1"/>
        <pt x="1532" y="512" on="0"/>
        <pt x="1594" y="489" on="0"/>
        <pt x="1637" y="450" on="0"/>
        <pt x="1661" y="397" on="0"/>
        <pt x="1661" y="367" on="1"/>
        <pt x="1661" y="352" on="0"/>
        <pt x="1654" y="321" on="0"/>
        <pt x="1649" y="305" on="1"/>
        <pt x="1684" y="303" on="0"/>
        <pt x="1743" y="282" on="0"/>
        <pt x="1786" y="245" on="0"/>
        <pt x="1810" y="192" on="0"/>
        <pt x="1810" y="158" on="1"/>
        <pt x="1810" y="87" on="0"/>
        <pt x="1703" y="0" on="0"/>
        <pt x="1611" y="0" on="1"/>
        <pt x="1522" y="0" on="1"/>
        <pt x="1425" y="-215" on="1"/>
        <pt x="1320" y="-181" on="1"/>
        <pt x="1400" y="0" on="1"/>
      </contour>
      <contour>
        <pt x="1614" y="215" on="1"/>
        <pt x="1564" y="102" on="1"/>
        <pt x="1608" y="102" on="1"/>
        <pt x="1643" y="102" on="0"/>
        <pt x="1680" y="134" on="0"/>
        <pt x="1680" y="162" on="1"/>
        <pt x="1680" y="188" on="0"/>
        <pt x="1647" y="215" on="0"/>
        <pt x="1620" y="215" on="1"/>
      </contour>
      <contour>
        <pt x="1447" y="363" on="1"/>
        <pt x="1447" y="333" on="0"/>
        <pt x="1493" y="303" on="0"/>
        <pt x="1519" y="303" on="1"/>
        <pt x="1526" y="303" on="1"/>
        <pt x="1533" y="317" on="0"/>
        <pt x="1542" y="345" on="0"/>
        <pt x="1542" y="359" on="1"/>
        <pt x="1542" y="380" on="0"/>
        <pt x="1515" y="410" on="0"/>
        <pt x="1492" y="410" on="1"/>
        <pt x="1473" y="410" on="0"/>
        <pt x="1447" y="386" on="0"/>
      </contour>
    </TTGlyph>
    <TTGlyph name="Asmall" xMin="16" yMin="0" xMax="516" yMax="480">
      <contour>
        <pt x="185" y="480" on="1"/>
        <pt x="348" y="480" on="1"/>
        <pt x="516" y="0" on="1"/>
        <pt x="368" y="0" on="1"/>
        <pt x="339" y="93" on="1"/>
        <pt x="191" y="93" on="1"/>
        <pt x="162" y="0" on="1"/>
        <pt x="16" y="0" on="1"/>
      </contour>
      <contour>
        <pt x="265" y="345" on="1"/>
        <pt x="260" y="325" on="0"/>
        <pt x="245" y="270" on="0"/>
        <pt x="238" y="249" on="1"/>
        <pt x="220" y="191" on="1"/>
        <pt x="310" y="191" on="1"/>
        <pt x="292" y="249" on="1"/>
        <pt x="285" y="271" on="0"/>
        <pt x="271" y="325" on="0"/>
        <pt x="267" y="345" on="1"/>
      </contour>
    </TTGlyph>
    <TTGlyph name="Atilde" xMin="16" yMin="0" xMax="634" yMax="814">
      <contour>
        <pt x="171" y="690" on="1"/>
        <pt x="171" y="715" on="0"/>
        <pt x="183" y="759" on="0"/>
        <pt x="207" y="792" on="0"/>
        <pt x="241" y="811" on="0"/>
        <pt x="263" y="811" on="1"/>
        <pt x="281" y="811" on="0"/>
        <pt x="310" y="801" on="0"/>
        <pt x="336" y="788" on="0"/>
        <pt x="360" y="778" on="0"/>
        <pt x="374" y="778" on="1"/>
        <pt x="388" y="778" on="0"/>
        <pt x="403" y="797" on="0"/>
        <pt x="404" y="814" on="1"/>
        <pt x="474" y="814" on="1"/>
        <pt x="474" y="759" on="0"/>
        <pt x="426" y="695" on="0"/>
        <pt x="386" y="695" on="1"/>
        <pt x="367" y="695" on="0"/>
        <pt x="334" y="705" on="0"/>
        <pt x="305" y="717" on="0"/>
        <pt x="280" y="727" on="0"/>
        <pt x="270" y="727" on="1"/>
        <pt x="254" y="727" on="0"/>
        <pt x="242" y="705" on="0"/>
        <pt x="241" y="690" on="1"/>
      </contour>
      <contour>
        <pt x="245" y="630" on="1"/>
        <pt x="407" y="630" on="1"/>
        <pt x="634" y="0" on="1"/>
        <pt x="473" y="0" on="1"/>
        <pt x="430" y="135" on="1"/>
        <pt x="218" y="135" on="1"/>
        <pt x="175" y="0" on="1"/>
        <pt x="16" y="0" on="1"/>
      </contour>
      <contour>
        <pt x="251" y="245" on="1"/>
        <pt x="395" y="245" on="1"/>
        <pt x="371" y="321" on="1"/>
        <pt x="359" y="358" on="0"/>
        <pt x="334" y="442" on="0"/>
        <pt x="325" y="477" on="1"/>
        <pt x="323" y="477" on="1"/>
        <pt x="313" y="442" on="0"/>
        <pt x="287" y="360" on="0"/>
        <pt x="275" y="321" on="1"/>
      </contour>
    </TTGlyph>
    <TTGlyph name="B" xMin="66" yMin="0" xMax="543" yMax="630">
      <contour>
        <pt x="303" y="630" on="1"/>
        <pt x="404" y="630" on="0"/>
        <pt x="524" y="542" on="0"/>
        <pt x="524" y="464" on="1"/>
        <pt x="524" y="435" on="0"/>
        <pt x="503" y="389" on="0"/>
        <pt x="469" y="356" on="0"/>
        <pt x="428" y="334" on="0"/>
        <pt x="408" y="330" on="1"/>
        <pt x="435" y="325" on="0"/>
        <pt x="484" y="302" on="0"/>
        <pt x="521" y="265" on="0"/>
        <pt x="543" y="213" on="0"/>
        <pt x="543" y="179" on="1"/>
        <pt x="543" y="140" on="0"/>
        <pt x="509" y="74" on="0"/>
        <pt x="445" y="27" on="0"/>
        <pt x="354" y="0" on="0"/>
        <pt x="298" y="0" on="1"/>
        <pt x="66" y="0" on="1"/>
        <pt x="66" y="630" on="1"/>
      </contour>
      <contour>
        <pt x="218" y="382" on="1"/>
        <pt x="279" y="382" on="1"/>
        <pt x="322" y="382" on="0"/>
        <pt x="368" y="421" on="0"/>
        <pt x="368" y="453" on="1"/>
        <pt x="368" y="483" on="0"/>
        <pt x="324" y="516" on="0"/>
        <pt x="280" y="516" on="1"/>
        <pt x="218" y="516" on="1"/>
      </contour>
      <contour>
        <pt x="218" y="114" on="1"/>
        <pt x="277" y="114" on="1"/>
        <pt x="326" y="114" on="0"/>
        <pt x="387" y="150" on="0"/>
        <pt x="387" y="193" on="1"/>
        <pt x="387" y="233" on="0"/>
        <pt x="327" y="269" on="0"/>
        <pt x="278" y="269" on="1"/>
        <pt x="218" y="269" on="1"/>
      </contour>
    </TTGlyph>
    <TTGlyph name="Bsmall" xMin="58" yMin="0" xMax="470" yMax="480">
      <contour>
        <pt x="274" y="480" on="1"/>
        <pt x="363" y="480" on="0"/>
        <pt x="449" y="410" on="0"/>
        <pt x="449" y="353" on="1"/>
        <pt x="449" y="315" on="0"/>
        <pt x="405" y="265" on="0"/>
        <pt x="367" y="253" on="1"/>
        <pt x="417" y="242" on="0"/>
        <pt x="470" y="183" on="0"/>
        <pt x="470" y="139" on="1"/>
        <pt x="470" y="79" on="0"/>
        <pt x="372" y="0" on="0"/>
        <pt x="273" y="0" on="1"/>
        <pt x="58" y="0" on="1"/>
        <pt x="58" y="480" on="1"/>
      </contour>
      <contour>
        <pt x="206" y="298" on="1"/>
        <pt x="245" y="298" on="1"/>
        <pt x="267" y="298" on="0"/>
        <pt x="299" y="315" on="0"/>
        <pt x="299" y="335" on="1"/>
        <pt x="299" y="353" on="0"/>
        <pt x="273" y="372" on="0"/>
        <pt x="243" y="372" on="1"/>
        <pt x="206" y="372" on="1"/>
      </contour>
      <contour>
        <pt x="206" y="108" on="1"/>
        <pt x="249" y="108" on="1"/>
        <pt x="285" y="108" on="0"/>
        <pt x="318" y="128" on="0"/>
        <pt x="318" y="152" on="1"/>
        <pt x="318" y="169" on="0"/>
        <pt x="289" y="192" on="0"/>
        <pt x="253" y="192" on="1"/>
        <pt x="206" y="192" on="1"/>
      </contour>
    </TTGlyph>
    <TTGlyph name="C" xMin="38" yMin="-11" xMax="548" yMax="642">
      <contour>
        <pt x="389" y="105" on="1"/>
        <pt x="434" y="105" on="0"/>
        <pt x="496" y="121" on="0"/>
        <pt x="517" y="134" on="1"/>
        <pt x="547" y="25" on="1"/>
        <pt x="527" y="13" on="0"/>
        <pt x="438" y="-11" on="0"/>
        <pt x="373" y="-11" on="1"/>
        <pt x="299" y="-11" on="0"/>
        <pt x="175" y="35" on="0"/>
        <pt x="87" y="120" on="0"/>
        <pt x="38" y="241" on="0"/>
        <pt x="38" y="316" on="1"/>
        <pt x="38" y="389" on="0"/>
        <pt x="85" y="510" on="0"/>
        <pt x="172" y="595" on="0"/>
        <pt x="297" y="642" on="0"/>
        <pt x="375" y="642" on="1"/>
        <pt x="441" y="642" on="0"/>
        <pt x="524" y="617" on="0"/>
        <pt x="548" y="604" on="1"/>
        <pt x="514" y="493" on="1"/>
        <pt x="491" y="506" on="0"/>
        <pt x="428" y="526" on="0"/>
        <pt x="390" y="526" on="1"/>
        <pt x="350" y="526" on="0"/>
        <pt x="280" y="503" on="0"/>
        <pt x="228" y="453" on="0"/>
        <pt x="198" y="374" on="0"/>
        <pt x="198" y="317" on="1"/>
        <pt x="198" y="264" on="0"/>
        <pt x="227" y="184" on="0"/>
        <pt x="279" y="131" on="0"/>
        <pt x="348" y="105" on="0"/>
      </contour>
    </TTGlyph>
    <TTGlyph name="Ca.tm" xMin="21" yMin="-11" xMax="611" yMax="505">
      <contour>
        <pt x="589" y="505" on="1"/>
        <pt x="589" y="408" on="1"/>
        <pt x="459" y="408" on="1"/>
        <pt x="459" y="306" on="1"/>
        <pt x="611" y="306" on="1"/>
        <pt x="611" y="210" on="1"/>
        <pt x="459" y="210" on="1"/>
        <pt x="459" y="165" on="1"/>
        <pt x="459" y="82" on="0"/>
        <pt x="350" y="-11" on="0"/>
        <pt x="245" y="-11" on="1"/>
        <pt x="196" y="-11" on="0"/>
        <pt x="114" y="13" on="0"/>
        <pt x="54" y="58" on="0"/>
        <pt x="21" y="122" on="0"/>
        <pt x="21" y="161" on="1"/>
        <pt x="21" y="188" on="0"/>
        <pt x="38" y="234" on="0"/>
        <pt x="65" y="268" on="0"/>
        <pt x="100" y="291" on="0"/>
        <pt x="118" y="295" on="1"/>
        <pt x="118" y="505" on="1"/>
      </contour>
      <contour>
        <pt x="216" y="211" on="1"/>
        <pt x="186" y="211" on="0"/>
        <pt x="151" y="182" on="0"/>
        <pt x="151" y="156" on="1"/>
        <pt x="151" y="126" on="0"/>
        <pt x="201" y="88" on="0"/>
        <pt x="246" y="88" on="1"/>
        <pt x="289" y="88" on="0"/>
        <pt x="337" y="130" on="0"/>
        <pt x="337" y="165" on="1"/>
        <pt x="337" y="211" on="1"/>
      </contour>
      <contour>
        <pt x="239" y="306" on="1"/>
        <pt x="339" y="306" on="1"/>
        <pt x="339" y="408" on="1"/>
        <pt x="239" y="408" on="1"/>
      </contour>
    </TTGlyph>
    <TTGlyph name="CaMatraI.tm" xMin="21" yMin="-11" xMax="819" yMax="766">
      <contour>
        <pt x="322" y="505" on="1"/>
        <pt x="314" y="535" on="0"/>
        <pt x="314" y="567" on="1"/>
        <pt x="314" y="612" on="0"/>
        <pt x="348" y="685" on="0"/>
        <pt x="411" y="737" on="0"/>
        <pt x="502" y="766" on="0"/>
        <pt x="559" y="766" on="1"/>
        <pt x="624" y="766" on="0"/>
        <pt x="721" y="729" on="0"/>
        <pt x="786" y="660" on="0"/>
        <pt x="819" y="561" on="0"/>
        <pt x="819" y="499" on="1"/>
        <pt x="819" y="0" on="1"/>
        <pt x="683" y="0" on="1"/>
        <pt x="683" y="495" on="1"/>
        <pt x="683" y="573" on="0"/>
        <pt x="621" y="655" on="0"/>
        <pt x="556" y="655" on="1"/>
        <pt x="501" y="655" on="0"/>
        <pt x="447" y="602" on="0"/>
        <pt x="447" y="556" on="1"/>
        <pt x="447" y="529" on="0"/>
        <pt x="455" y="505" on="1"/>
        <pt x="589" y="505" on="1"/>
        <pt x="589" y="408" on="1"/>
        <pt x="459" y="408" on="1"/>
        <pt x="459" y="306" on="1"/>
        <pt x="611" y="306" on="1"/>
        <pt x="611" y="210" on="1"/>
        <pt x="459" y="210" on="1"/>
        <pt x="459" y="165" on="1"/>
        <pt x="459" y="82" on="0"/>
        <pt x="350" y="-11" on="0"/>
        <pt x="245" y="-11" on="1"/>
        <pt x="196" y="-11" on="0"/>
        <pt x="114" y="13" on="0"/>
        <pt x="54" y="58" on="0"/>
        <pt x="21" y="122" on="0"/>
        <pt x="21" y="161" on="1"/>
        <pt x="21" y="188" on="0"/>
        <pt x="38" y="234" on="0"/>
        <pt x="65" y="268" on="0"/>
        <pt x="100" y="291" on="0"/>
        <pt x="118" y="295" on="1"/>
        <pt x="118" y="505" on="1"/>
      </contour>
      <contour>
        <pt x="216" y="211" on="1"/>
        <pt x="186" y="211" on="0"/>
        <pt x="151" y="182" on="0"/>
        <pt x="151" y="156" on="1"/>
        <pt x="151" y="126" on="0"/>
        <pt x="201" y="88" on="0"/>
        <pt x="246" y="88" on="1"/>
        <pt x="289" y="88" on="0"/>
        <pt x="337" y="130" on="0"/>
        <pt x="337" y="165" on="1"/>
        <pt x="337" y="211" on="1"/>
      </contour>
      <contour>
        <pt x="239" y="306" on="1"/>
        <pt x="339" y="306" on="1"/>
        <pt x="339" y="408" on="1"/>
        <pt x="239" y="408" on="1"/>
      </contour>
    </TTGlyph>
    <TTGlyph name="CaMatraIi.tm" xMin="21" yMin="-11" xMax="696" yMax="802">
      <contour>
        <pt x="515" y="802" on="1"/>
        <pt x="601" y="802" on="0"/>
        <pt x="696" y="725" on="0"/>
        <pt x="696" y="667" on="1"/>
        <pt x="696" y="613" on="0"/>
        <pt x="624" y="547" on="0"/>
        <pt x="567" y="547" on="1"/>
        <pt x="539" y="547" on="0"/>
        <pt x="494" y="564" on="0"/>
        <pt x="463" y="594" on="0"/>
        <pt x="446" y="634" on="0"/>
        <pt x="446" y="656" on="1"/>
        <pt x="446" y="675" on="0"/>
        <pt x="458" y="708" on="0"/>
        <pt x="469" y="720" on="1"/>
        <pt x="443" y="711" on="0"/>
        <pt x="405" y="659" on="0"/>
        <pt x="405" y="617" on="1"/>
        <pt x="405" y="582" on="0"/>
        <pt x="431" y="524" on="0"/>
        <pt x="451" y="505" on="1"/>
        <pt x="589" y="505" on="1"/>
        <pt x="589" y="408" on="1"/>
        <pt x="459" y="408" on="1"/>
        <pt x="459" y="306" on="1"/>
        <pt x="611" y="306" on="1"/>
        <pt x="611" y="210" on="1"/>
        <pt x="459" y="210" on="1"/>
        <pt x="459" y="165" on="1"/>
        <pt x="459" y="82" on="0"/>
        <pt x="350" y="-11" on="0"/>
        <pt x="245" y="-11" on="1"/>
        <pt x="196" y="-11" on="0"/>
        <pt x="114" y="13" on="0"/>
        <pt x="54" y="58" on="0"/>
        <pt x="21" y="122" on="0"/>
        <pt x="21" y="161" on="1"/>
        <pt x="21" y="188" on="0"/>
        <pt x="38" y="234" on="0"/>
        <pt x="65" y="268" on="0"/>
        <pt x="100" y="291" on="0"/>
        <pt x="118" y="295" on="1"/>
        <pt x="118" y="505" on="1"/>
        <pt x="321" y="505" on="1"/>
        <pt x="304" y="527" on="0"/>
        <pt x="286" y="584" on="0"/>
        <pt x="286" y="613" on="1"/>
        <pt x="286" y="656" on="0"/>
        <pt x="320" y="726" on="0"/>
        <pt x="381" y="776" on="0"/>
        <pt x="465" y="802" on="0"/>
      </contour>
      <contour>
        <pt x="216" y="211" on="1"/>
        <pt x="186" y="211" on="0"/>
        <pt x="151" y="182" on="0"/>
        <pt x="151" y="156" on="1"/>
        <pt x="151" y="126" on="0"/>
        <pt x="201" y="88" on="0"/>
        <pt x="246" y="88" on="1"/>
        <pt x="289" y="88" on="0"/>
        <pt x="337" y="130" on="0"/>
        <pt x="337" y="165" on="1"/>
        <pt x="337" y="211" on="1"/>
      </contour>
      <contour>
        <pt x="239" y="306" on="1"/>
        <pt x="339" y="306" on="1"/>
        <pt x="339" y="408" on="1"/>
        <pt x="239" y="408" on="1"/>
      </contour>
      <contour>
        <pt x="605" y="669" on="1"/>
        <pt x="605" y="689" on="0"/>
        <pt x="580" y="714" on="0"/>
        <pt x="560" y="716" on="1"/>
        <pt x="548" y="709" on="0"/>
        <pt x="533" y="687" on="0"/>
        <pt x="533" y="670" on="1"/>
        <pt x="533" y="653" on="0"/>
        <pt x="553" y="632" on="0"/>
        <pt x="570" y="632" on="1"/>
        <pt x="585" y="632" on="0"/>
        <pt x="605" y="652" on="0"/>
      </contour>
    </TTGlyph>
    <TTGlyph name="CaMatraU.tm" xMin="21" yMin="-11" xMax="723" yMax="505">
      <contour>
        <pt x="609" y="505" on="1"/>
        <pt x="609" y="408" on="1"/>
        <pt x="459" y="408" on="1"/>
        <pt x="459" y="306" on="1"/>
        <pt x="723" y="306" on="1"/>
        <pt x="723" y="210" on="1"/>
        <pt x="651" y="210" on="1"/>
        <pt x="651" y="0" on="1"/>
        <pt x="531" y="0" on="1"/>
        <pt x="531" y="210" on="1"/>
        <pt x="459" y="210" on="1"/>
        <pt x="459" y="165" on="1"/>
        <pt x="459" y="82" on="0"/>
        <pt x="350" y="-11" on="0"/>
        <pt x="245" y="-11" on="1"/>
        <pt x="196" y="-11" on="0"/>
        <pt x="114" y="13" on="0"/>
        <pt x="54" y="58" on="0"/>
        <pt x="21" y="122" on="0"/>
        <pt x="21" y="161" on="1"/>
        <pt x="21" y="188" on="0"/>
        <pt x="38" y="234" on="0"/>
        <pt x="65" y="268" on="0"/>
        <pt x="100" y="291" on="0"/>
        <pt x="118" y="295" on="1"/>
        <pt x="118" y="505" on="1"/>
      </contour>
      <contour>
        <pt x="216" y="211" on="1"/>
        <pt x="186" y="211" on="0"/>
        <pt x="151" y="182" on="0"/>
        <pt x="151" y="156" on="1"/>
        <pt x="151" y="126" on="0"/>
        <pt x="201" y="88" on="0"/>
        <pt x="246" y="88" on="1"/>
        <pt x="289" y="88" on="0"/>
        <pt x="337" y="130" on="0"/>
        <pt x="337" y="165" on="1"/>
        <pt x="337" y="211" on="1"/>
      </contour>
      <contour>
        <pt x="239" y="306" on="1"/>
        <pt x="339" y="306" on="1"/>
        <pt x="339" y="408" on="1"/>
        <pt x="239" y="408" on="1"/>
      </contour>
    </TTGlyph>
    <TTGlyph name="CaMatraUu.tm" xMin="34" yMin="-286" xMax="1107" yMax="519">
      <contour>
        <pt x="965" y="183" on="1"/>
        <pt x="997" y="183" on="0"/>
        <pt x="1050" y="160" on="0"/>
        <pt x="1087" y="118" on="0"/>
        <pt x="1107" y="60" on="0"/>
        <pt x="1107" y="26" on="1"/>
        <pt x="1107" y="-41" on="0"/>
        <pt x="1034" y="-155" on="0"/>
        <pt x="899" y="-239" on="0"/>
        <pt x="710" y="-286" on="0"/>
        <pt x="593" y="-286" on="1"/>
        <pt x="470" y="-286" on="0"/>
        <pt x="265" y="-225" on="0"/>
        <pt x="116" y="-111" on="0"/>
        <pt x="34" y="53" on="0"/>
        <pt x="34" y="156" on="1"/>
        <pt x="34" y="274" on="0"/>
        <pt x="120" y="461" on="0"/>
        <pt x="186" y="519" on="1"/>
        <pt x="279" y="445" on="1"/>
        <pt x="256" y="422" on="0"/>
        <pt x="214" y="363" on="0"/>
        <pt x="182" y="291" on="0"/>
        <pt x="163" y="206" on="0"/>
        <pt x="163" y="156" on="1"/>
        <pt x="163" y="80" on="0"/>
        <pt x="225" y="-43" on="0"/>
        <pt x="339" y="-130" on="0"/>
        <pt x="499" y="-178" on="0"/>
        <pt x="597" y="-178" on="1"/>
        <pt x="685" y="-178" on="0"/>
        <pt x="829" y="-147" on="0"/>
        <pt x="931" y="-93" on="0"/>
        <pt x="987" y="-19" on="0"/>
        <pt x="987" y="25" on="1"/>
        <pt x="987" y="54" on="0"/>
        <pt x="958" y="93" on="0"/>
        <pt x="930" y="93" on="1"/>
        <pt x="904" y="93" on="0"/>
        <pt x="886" y="72" on="1"/>
        <pt x="886" y="0" on="1"/>
        <pt x="769" y="0" on="1"/>
        <pt x="769" y="211" on="1"/>
        <pt x="698" y="211" on="1"/>
        <pt x="698" y="165" on="1"/>
        <pt x="698" y="82" on="0"/>
        <pt x="589" y="-11" on="0"/>
        <pt x="484" y="-11" on="1"/>
        <pt x="435" y="-11" on="0"/>
        <pt x="353" y="13" on="0"/>
        <pt x="293" y="58" on="0"/>
        <pt x="260" y="122" on="0"/>
        <pt x="260" y="161" on="1"/>
        <pt x="260" y="188" on="0"/>
        <pt x="277" y="234" on="0"/>
        <pt x="304" y="268" on="0"/>
        <pt x="339" y="291" on="0"/>
        <pt x="357" y="295" on="1"/>
        <pt x="357" y="505" on="1"/>
        <pt x="839" y="505" on="1"/>
        <pt x="839" y="408" on="1"/>
        <pt x="698" y="408" on="1"/>
        <pt x="698" y="306" on="1"/>
        <pt x="953" y="306" on="1"/>
        <pt x="953" y="216" on="1"/>
        <pt x="879" y="216" on="1"/>
        <pt x="879" y="158" on="1"/>
        <pt x="915" y="183" on="0"/>
      </contour>
      <contour>
        <pt x="455" y="211" on="1"/>
        <pt x="425" y="211" on="0"/>
        <pt x="390" y="182" on="0"/>
        <pt x="390" y="156" on="1"/>
        <pt x="390" y="126" on="0"/>
        <pt x="440" y="88" on="0"/>
        <pt x="485" y="88" on="1"/>
        <pt x="528" y="88" on="0"/>
        <pt x="576" y="130" on="0"/>
        <pt x="576" y="165" on="1"/>
        <pt x="576" y="211" on="1"/>
      </contour>
      <contour>
        <pt x="478" y="306" on="1"/>
        <pt x="578" y="306" on="1"/>
        <pt x="578" y="408" on="1"/>
        <pt x="478" y="408" on="1"/>
      </contour>
    </TTGlyph>
    <TTGlyph name="CaPulli.tm" xMin="21" yMin="-11" xMax="611" yMax="723">
      <contour>
        <pt x="589" y="505" on="1"/>
        <pt x="589" y="408" on="1"/>
        <pt x="459" y="408" on="1"/>
        <pt x="459" y="306" on="1"/>
        <pt x="611" y="306" on="1"/>
        <pt x="611" y="210" on="1"/>
        <pt x="459" y="210" on="1"/>
        <pt x="459" y="165" on="1"/>
        <pt x="459" y="82" on="0"/>
        <pt x="350" y="-11" on="0"/>
        <pt x="245" y="-11" on="1"/>
        <pt x="196" y="-11" on="0"/>
        <pt x="114" y="13" on="0"/>
        <pt x="54" y="58" on="0"/>
        <pt x="21" y="122" on="0"/>
        <pt x="21" y="161" on="1"/>
        <pt x="21" y="188" on="0"/>
        <pt x="38" y="234" on="0"/>
        <pt x="65" y="268" on="0"/>
        <pt x="100" y="291" on="0"/>
        <pt x="118" y="295" on="1"/>
        <pt x="118" y="505" on="1"/>
      </contour>
      <contour>
        <pt x="216" y="211" on="1"/>
        <pt x="186" y="211" on="0"/>
        <pt x="151" y="182" on="0"/>
        <pt x="151" y="156" on="1"/>
        <pt x="151" y="126" on="0"/>
        <pt x="201" y="88" on="0"/>
        <pt x="246" y="88" on="1"/>
        <pt x="289" y="88" on="0"/>
        <pt x="337" y="130" on="0"/>
        <pt x="337" y="165" on="1"/>
        <pt x="337" y="211" on="1"/>
      </contour>
      <contour>
        <pt x="316" y="723" on="1"/>
        <pt x="350" y="723" on="0"/>
        <pt x="392" y="680" on="0"/>
        <pt x="392" y="647" on="1"/>
        <pt x="392" y="614" on="0"/>
        <pt x="350" y="571" on="0"/>
        <pt x="318" y="571" on="1"/>
        <pt x="284" y="571" on="0"/>
        <pt x="241" y="614" on="0"/>
        <pt x="241" y="647" on="1"/>
        <pt x="241" y="680" on="0"/>
        <pt x="284" y="723" on="0"/>
      </contour>
      <contour>
        <pt x="239" y="306" on="1"/>
        <pt x="339" y="306" on="1"/>
        <pt x="339" y="408" on="1"/>
        <pt x="239" y="408" on="1"/>
      </contour>
    </TTGlyph>
    <TTGlyph name="Cacute" xMin="38" yMin="-11" xMax="548" yMax="814">
      <contour>
        <pt x="389" y="105" on="1"/>
        <pt x="434" y="105" on="0"/>
        <pt x="496" y="121" on="0"/>
        <pt x="517" y="134" on="1"/>
        <pt x="547" y="25" on="1"/>
        <pt x="527" y="13" on="0"/>
        <pt x="438" y="-11" on="0"/>
        <pt x="373" y="-11" on="1"/>
        <pt x="299" y="-11" on="0"/>
        <pt x="175" y="35" on="0"/>
        <pt x="87" y="120" on="0"/>
        <pt x="38" y="241" on="0"/>
        <pt x="38" y="316" on="1"/>
        <pt x="38" y="389" on="0"/>
        <pt x="85" y="510" on="0"/>
        <pt x="172" y="595" on="0"/>
        <pt x="297" y="642" on="0"/>
        <pt x="375" y="642" on="1"/>
        <pt x="441" y="642" on="0"/>
        <pt x="524" y="617" on="0"/>
        <pt x="548" y="604" on="1"/>
        <pt x="514" y="493" on="1"/>
        <pt x="491" y="506" on="0"/>
        <pt x="428" y="526" on="0"/>
        <pt x="390" y="526" on="1"/>
        <pt x="350" y="526" on="0"/>
        <pt x="280" y="503" on="0"/>
        <pt x="228" y="453" on="0"/>
        <pt x="198" y="374" on="0"/>
        <pt x="198" y="317" on="1"/>
        <pt x="198" y="264" on="0"/>
        <pt x="227" y="184" on="0"/>
        <pt x="279" y="131" on="0"/>
        <pt x="348" y="105" on="0"/>
      </contour>
      <contour>
        <pt x="364" y="690" on="1"/>
        <pt x="242" y="690" on="1"/>
        <pt x="322" y="814" on="1"/>
        <pt x="480" y="814" on="1"/>
      </contour>
    </TTGlyph>
    <TTGlyph name="Ccaron" xMin="38" yMin="-11" xMax="548" yMax="814">
      <contour>
        <pt x="389" y="105" on="1"/>
        <pt x="434" y="105" on="0"/>
        <pt x="496" y="121" on="0"/>
        <pt x="517" y="134" on="1"/>
        <pt x="547" y="25" on="1"/>
        <pt x="527" y="13" on="0"/>
        <pt x="438" y="-11" on="0"/>
        <pt x="373" y="-11" on="1"/>
        <pt x="299" y="-11" on="0"/>
        <pt x="175" y="35" on="0"/>
        <pt x="87" y="120" on="0"/>
        <pt x="38" y="241" on="0"/>
        <pt x="38" y="316" on="1"/>
        <pt x="38" y="389" on="0"/>
        <pt x="85" y="510" on="0"/>
        <pt x="172" y="595" on="0"/>
        <pt x="297" y="642" on="0"/>
        <pt x="375" y="642" on="1"/>
        <pt x="441" y="642" on="0"/>
        <pt x="524" y="617" on="0"/>
        <pt x="548" y="604" on="1"/>
        <pt x="514" y="493" on="1"/>
        <pt x="491" y="506" on="0"/>
        <pt x="428" y="526" on="0"/>
        <pt x="390" y="526" on="1"/>
        <pt x="350" y="526" on="0"/>
        <pt x="280" y="503" on="0"/>
        <pt x="228" y="453" on="0"/>
        <pt x="198" y="374" on="0"/>
        <pt x="198" y="317" on="1"/>
        <pt x="198" y="264" on="0"/>
        <pt x="227" y="184" on="0"/>
        <pt x="279" y="131" on="0"/>
        <pt x="348" y="105" on="0"/>
      </contour>
      <contour>
        <pt x="177" y="814" on="1"/>
        <pt x="287" y="814" on="1"/>
        <pt x="347" y="750" on="1"/>
        <pt x="407" y="814" on="1"/>
        <pt x="513" y="814" on="1"/>
        <pt x="401" y="690" on="1"/>
        <pt x="292" y="690" on="1"/>
      </contour>
    </TTGlyph>
    <TTGlyph name="Ccedilla" xMin="38" yMin="-215" xMax="548" yMax="642">
      <contour>
        <pt x="389" y="105" on="1"/>
        <pt x="434" y="105" on="0"/>
        <pt x="496" y="121" on="0"/>
        <pt x="517" y="134" on="1"/>
        <pt x="547" y="25" on="1"/>
        <pt x="527" y="14" on="0"/>
        <pt x="445" y="-9" on="0"/>
        <pt x="385" y="-11" on="1"/>
        <pt x="374" y="-47" on="1"/>
        <pt x="407" y="-50" on="0"/>
        <pt x="450" y="-93" on="0"/>
        <pt x="450" y="-122" on="1"/>
        <pt x="450" y="-169" on="0"/>
        <pt x="383" y="-215" on="0"/>
        <pt x="332" y="-215" on="1"/>
        <pt x="306" y="-215" on="0"/>
        <pt x="262" y="-206" on="0"/>
        <pt x="248" y="-200" on="1"/>
        <pt x="266" y="-141" on="1"/>
        <pt x="278" y="-146" on="0"/>
        <pt x="299" y="-150" on="0"/>
        <pt x="315" y="-150" on="1"/>
        <pt x="333" y="-150" on="0"/>
        <pt x="355" y="-133" on="0"/>
        <pt x="355" y="-114" on="1"/>
        <pt x="355" y="-99" on="0"/>
        <pt x="325" y="-78" on="0"/>
        <pt x="284" y="-78" on="1"/>
        <pt x="308" y="-6" on="1"/>
        <pt x="247" y="3" on="0"/>
        <pt x="147" y="57" on="0"/>
        <pt x="77" y="139" on="0"/>
        <pt x="38" y="250" on="0"/>
        <pt x="38" y="316" on="1"/>
        <pt x="38" y="389" on="0"/>
        <pt x="85" y="510" on="0"/>
        <pt x="172" y="595" on="0"/>
        <pt x="297" y="642" on="0"/>
        <pt x="375" y="642" on="1"/>
        <pt x="441" y="642" on="0"/>
        <pt x="524" y="617" on="0"/>
        <pt x="548" y="604" on="1"/>
        <pt x="514" y="493" on="1"/>
        <pt x="491" y="506" on="0"/>
        <pt x="428" y="526" on="0"/>
        <pt x="390" y="526" on="1"/>
        <pt x="350" y="526" on="0"/>
        <pt x="280" y="503" on="0"/>
        <pt x="228" y="453" on="0"/>
        <pt x="198" y="374" on="0"/>
        <pt x="198" y="317" on="1"/>
        <pt x="198" y="264" on="0"/>
        <pt x="227" y="184" on="0"/>
        <pt x="279" y="131" on="0"/>
        <pt x="348" y="105" on="0"/>
      </contour>
    </TTGlyph>
    <TTGlyph name="Ccircumflex" xMin="38" yMin="-11" xMax="548" yMax="814">
      <contour>
        <pt x="389" y="105" on="1"/>
        <pt x="434" y="105" on="0"/>
        <pt x="496" y="121" on="0"/>
        <pt x="517" y="134" on="1"/>
        <pt x="547" y="25" on="1"/>
        <pt x="527" y="13" on="0"/>
        <pt x="438" y="-11" on="0"/>
        <pt x="373" y="-11" on="1"/>
        <pt x="299" y="-11" on="0"/>
        <pt x="175" y="35" on="0"/>
        <pt x="87" y="120" on="0"/>
        <pt x="38" y="241" on="0"/>
        <pt x="38" y="316" on="1"/>
        <pt x="38" y="389" on="0"/>
        <pt x="85" y="510" on="0"/>
        <pt x="172" y="595" on="0"/>
        <pt x="297" y="642" on="0"/>
        <pt x="375" y="642" on="1"/>
        <pt x="441" y="642" on="0"/>
        <pt x="524" y="617" on="0"/>
        <pt x="548" y="604" on="1"/>
        <pt x="514" y="493" on="1"/>
        <pt x="491" y="506" on="0"/>
        <pt x="428" y="526" on="0"/>
        <pt x="390" y="526" on="1"/>
        <pt x="350" y="526" on="0"/>
        <pt x="280" y="503" on="0"/>
        <pt x="228" y="453" on="0"/>
        <pt x="198" y="374" on="0"/>
        <pt x="198" y="317" on="1"/>
        <pt x="198" y="264" on="0"/>
        <pt x="227" y="184" on="0"/>
        <pt x="279" y="131" on="0"/>
        <pt x="348" y="105" on="0"/>
      </contour>
      <contour>
        <pt x="293" y="814" on="1"/>
        <pt x="402" y="814" on="1"/>
        <pt x="517" y="690" on="1"/>
        <pt x="407" y="690" on="1"/>
        <pt x="347" y="754" on="1"/>
        <pt x="287" y="690" on="1"/>
        <pt x="181" y="690" on="1"/>
      </contour>
    </TTGlyph>
    <TTGlyph name="Cdotaccent" xMin="38" yMin="-11" xMax="548" yMax="814">
      <contour>
        <pt x="389" y="105" on="1"/>
        <pt x="434" y="105" on="0"/>
        <pt x="496" y="121" on="0"/>
        <pt x="517" y="134" on="1"/>
        <pt x="547" y="25" on="1"/>
        <pt x="527" y="13" on="0"/>
        <pt x="438" y="-11" on="0"/>
        <pt x="373" y="-11" on="1"/>
        <pt x="299" y="-11" on="0"/>
        <pt x="175" y="35" on="0"/>
        <pt x="87" y="120" on="0"/>
        <pt x="38" y="241" on="0"/>
        <pt x="38" y="316" on="1"/>
        <pt x="38" y="389" on="0"/>
        <pt x="85" y="510" on="0"/>
        <pt x="172" y="595" on="0"/>
        <pt x="297" y="642" on="0"/>
        <pt x="375" y="642" on="1"/>
        <pt x="441" y="642" on="0"/>
        <pt x="524" y="617" on="0"/>
        <pt x="548" y="604" on="1"/>
        <pt x="514" y="493" on="1"/>
        <pt x="491" y="506" on="0"/>
        <pt x="428" y="526" on="0"/>
        <pt x="390" y="526" on="1"/>
        <pt x="350" y="526" on="0"/>
        <pt x="280" y="503" on="0"/>
        <pt x="228" y="453" on="0"/>
        <pt x="198" y="374" on="0"/>
        <pt x="198" y="317" on="1"/>
        <pt x="198" y="264" on="0"/>
        <pt x="227" y="184" on="0"/>
        <pt x="279" y="131" on="0"/>
        <pt x="348" y="105" on="0"/>
      </contour>
      <contour>
        <pt x="307" y="748" on="1"/>
        <pt x="307" y="776" on="0"/>
        <pt x="346" y="814" on="0"/>
        <pt x="375" y="814" on="1"/>
        <pt x="404" y="814" on="0"/>
        <pt x="442" y="776" on="0"/>
        <pt x="442" y="748" on="1"/>
        <pt x="442" y="719" on="0"/>
        <pt x="404" y="679" on="0"/>
        <pt x="375" y="679" on="1"/>
        <pt x="346" y="679" on="0"/>
        <pt x="307" y="719" on="0"/>
      </contour>
    </TTGlyph>
    <TTGlyph name="CreditSign.tm" xMin="29" yMin="-11" xMax="1339" yMax="505">
      <contour>
        <pt x="954" y="420" on="1"/>
        <pt x="1012" y="420" on="0"/>
        <pt x="1108" y="387" on="0"/>
        <pt x="1176" y="327" on="0"/>
        <pt x="1213" y="243" on="0"/>
        <pt x="1213" y="191" on="1"/>
        <pt x="1213" y="168" on="0"/>
        <pt x="1202" y="120" on="0"/>
        <pt x="1195" y="104" on="1"/>
        <pt x="1339" y="104" on="1"/>
        <pt x="1339" y="0" on="1"/>
        <pt x="1103" y="0" on="1"/>
        <pt x="1071" y="76" on="1"/>
        <pt x="1084" y="101" on="0"/>
        <pt x="1096" y="155" on="0"/>
        <pt x="1096" y="190" on="1"/>
        <pt x="1096" y="221" on="0"/>
        <pt x="1073" y="271" on="0"/>
        <pt x="1034" y="305" on="0"/>
        <pt x="980" y="324" on="0"/>
        <pt x="950" y="324" on="1"/>
        <pt x="911" y="324" on="0"/>
        <pt x="856" y="298" on="0"/>
        <pt x="841" y="278" on="1"/>
        <pt x="851" y="281" on="0"/>
        <pt x="870" y="285" on="0"/>
        <pt x="881" y="285" on="1"/>
        <pt x="909" y="285" on="0"/>
        <pt x="963" y="267" on="0"/>
        <pt x="1006" y="230" on="0"/>
        <pt x="1032" y="175" on="0"/>
        <pt x="1032" y="139" on="1"/>
        <pt x="1032" y="106" on="0"/>
        <pt x="1007" y="53" on="0"/>
        <pt x="962" y="14" on="0"/>
        <pt x="901" y="-7" on="0"/>
        <pt x="865" y="-7" on="1"/>
        <pt x="828" y="-7" on="0"/>
        <pt x="773" y="17" on="0"/>
        <pt x="735" y="55" on="0"/>
        <pt x="714" y="104" on="0"/>
        <pt x="711" y="129" on="1"/>
        <pt x="676" y="106" on="0"/>
        <pt x="618" y="33" on="0"/>
        <pt x="603" y="0" on="1"/>
        <pt x="489" y="0" on="1"/>
        <pt x="489" y="401" on="1"/>
        <pt x="375" y="401" on="1"/>
        <pt x="283" y="401" on="0"/>
        <pt x="172" y="341" on="0"/>
        <pt x="159" y="278" on="1"/>
        <pt x="193" y="306" on="0"/>
        <pt x="244" y="306" on="1"/>
        <pt x="278" y="306" on="0"/>
        <pt x="337" y="284" on="0"/>
        <pt x="380" y="244" on="0"/>
        <pt x="405" y="187" on="0"/>
        <pt x="405" y="152" on="1"/>
        <pt x="405" y="114" on="0"/>
        <pt x="376" y="54" on="0"/>
        <pt x="327" y="12" on="0"/>
        <pt x="261" y="-11" on="0"/>
        <pt x="225" y="-11" on="1"/>
        <pt x="181" y="-11" on="0"/>
        <pt x="108" y="20" on="0"/>
        <pt x="57" y="79" on="0"/>
        <pt x="29" y="161" on="0"/>
        <pt x="29" y="212" on="1"/>
        <pt x="29" y="283" on="0"/>
        <pt x="76" y="393" on="0"/>
        <pt x="164" y="467" on="0"/>
        <pt x="290" y="505" on="0"/>
        <pt x="370" y="505" on="1"/>
        <pt x="721" y="505" on="1"/>
        <pt x="721" y="401" on="1"/>
        <pt x="618" y="401" on="1"/>
        <pt x="618" y="155" on="1"/>
        <pt x="636" y="181" on="0"/>
        <pt x="689" y="230" on="0"/>
        <pt x="717" y="247" on="1"/>
        <pt x="728" y="286" on="0"/>
        <pt x="772" y="349" on="0"/>
        <pt x="834" y="395" on="0"/>
        <pt x="910" y="420" on="0"/>
      </contour>
      <contour>
        <pt x="218" y="210" on="1"/>
        <pt x="199" y="210" on="0"/>
        <pt x="171" y="190" on="0"/>
        <pt x="161" y="173" on="1"/>
        <pt x="161" y="137" on="0"/>
        <pt x="194" y="94" on="0"/>
        <pt x="224" y="94" on="1"/>
        <pt x="245" y="94" on="0"/>
        <pt x="276" y="125" on="0"/>
        <pt x="276" y="152" on="1"/>
        <pt x="276" y="180" on="0"/>
        <pt x="243" y="210" on="0"/>
      </contour>
      <contour>
        <pt x="858" y="196" on="1"/>
        <pt x="835" y="196" on="0"/>
        <pt x="818" y="185" on="1"/>
        <pt x="815" y="170" on="0"/>
        <pt x="815" y="154" on="1"/>
        <pt x="815" y="124" on="0"/>
        <pt x="844" y="91" on="0"/>
        <pt x="867" y="91" on="1"/>
        <pt x="888" y="91" on="0"/>
        <pt x="915" y="119" on="0"/>
        <pt x="915" y="142" on="1"/>
        <pt x="915" y="165" on="0"/>
        <pt x="883" y="196" on="0"/>
      </contour>
    </TTGlyph>
    <TTGlyph name="Csmall" xMin="39" yMin="-11" xMax="444" yMax="491">
      <contour>
        <pt x="323" y="97" on="1"/>
        <pt x="355" y="97" on="0"/>
        <pt x="404" y="114" on="0"/>
        <pt x="417" y="121" on="1"/>
        <pt x="444" y="21" on="1"/>
        <pt x="427" y="11" on="0"/>
        <pt x="347" y="-11" on="0"/>
        <pt x="299" y="-11" on="1"/>
        <pt x="243" y="-11" on="0"/>
        <pt x="148" y="21" on="0"/>
        <pt x="79" y="84" on="0"/>
        <pt x="39" y="177" on="0"/>
        <pt x="39" y="238" on="1"/>
        <pt x="39" y="294" on="0"/>
        <pt x="77" y="387" on="0"/>
        <pt x="147" y="454" on="0"/>
        <pt x="243" y="491" on="0"/>
        <pt x="302" y="491" on="1"/>
        <pt x="333" y="491" on="0"/>
        <pt x="406" y="477" on="0"/>
        <pt x="444" y="457" on="1"/>
        <pt x="413" y="356" on="1"/>
        <pt x="393" y="368" on="0"/>
        <pt x="344" y="384" on="0"/>
        <pt x="319" y="384" on="1"/>
        <pt x="261" y="384" on="0"/>
        <pt x="189" y="313" on="0"/>
        <pt x="189" y="242" on="1"/>
        <pt x="189" y="202" on="0"/>
        <pt x="213" y="147" on="0"/>
        <pt x="251" y="112" on="0"/>
        <pt x="299" y="97" on="0"/>
      </contour>
    </TTGlyph>
    <TTGlyph name="D" xMin="66" yMin="0" xMax="622" yMax="630">
      <contour>
        <pt x="291" y="630" on="1"/>
        <pt x="366" y="630" on="0"/>
        <pt x="488" y="592" on="0"/>
        <pt x="575" y="516" on="0"/>
        <pt x="622" y="403" on="0"/>
        <pt x="622" y="328" on="1"/>
        <pt x="622" y="244" on="0"/>
        <pt x="566" y="121" on="0"/>
        <pt x="469" y="40" on="0"/>
        <pt x="339" y="0" on="0"/>
        <pt x="266" y="0" on="1"/>
        <pt x="66" y="0" on="1"/>
        <pt x="66" y="630" on="1"/>
      </contour>
      <contour>
        <pt x="218" y="116" on="1"/>
        <pt x="257" y="116" on="1"/>
        <pt x="297" y="116" on="0"/>
        <pt x="372" y="136" on="0"/>
        <pt x="428" y="185" on="0"/>
        <pt x="462" y="267" on="0"/>
        <pt x="462" y="328" on="1"/>
        <pt x="462" y="419" on="0"/>
        <pt x="360" y="514" on="0"/>
        <pt x="273" y="514" on="1"/>
        <pt x="218" y="514" on="1"/>
      </contour>
    </TTGlyph>
    <TTGlyph name="DaySign.tm" xMin="31" yMin="-11" xMax="774" yMax="515">
      <contour>
        <pt x="330" y="515" on="1"/>
        <pt x="393" y="515" on="0"/>
        <pt x="501" y="476" on="0"/>
        <pt x="580" y="405" on="0"/>
        <pt x="625" y="305" on="0"/>
        <pt x="625" y="243" on="1"/>
        <pt x="625" y="198" on="0"/>
        <pt x="611" y="132" on="0"/>
        <pt x="600" y="106" on="1"/>
        <pt x="774" y="106" on="1"/>
        <pt x="774" y="0" on="1"/>
        <pt x="484" y="0" on="1"/>
        <pt x="452" y="76" on="1"/>
        <pt x="469" y="106" on="0"/>
        <pt x="488" y="181" on="0"/>
        <pt x="488" y="232" on="1"/>
        <pt x="488" y="271" on="0"/>
        <pt x="465" y="335" on="0"/>
        <pt x="423" y="382" on="0"/>
        <pt x="362" y="407" on="0"/>
        <pt x="325" y="407" on="1"/>
        <pt x="256" y="407" on="0"/>
        <pt x="170" y="335" on="0"/>
        <pt x="159" y="277" on="1"/>
        <pt x="194" y="306" on="0"/>
        <pt x="246" y="306" on="1"/>
        <pt x="280" y="306" on="0"/>
        <pt x="339" y="284" on="0"/>
        <pt x="382" y="244" on="0"/>
        <pt x="407" y="187" on="0"/>
        <pt x="407" y="152" on="1"/>
        <pt x="407" y="114" on="0"/>
        <pt x="378" y="54" on="0"/>
        <pt x="329" y="12" on="0"/>
        <pt x="263" y="-11" on="0"/>
        <pt x="227" y="-11" on="1"/>
        <pt x="183" y="-11" on="0"/>
        <pt x="110" y="21" on="0"/>
        <pt x="59" y="81" on="0"/>
        <pt x="31" y="168" on="0"/>
        <pt x="31" y="224" on="1"/>
        <pt x="31" y="290" on="0"/>
        <pt x="75" y="398" on="0"/>
        <pt x="155" y="474" on="0"/>
        <pt x="264" y="515" on="0"/>
      </contour>
      <contour>
        <pt x="220" y="210" on="1"/>
        <pt x="201" y="210" on="0"/>
        <pt x="173" y="190" on="0"/>
        <pt x="163" y="173" on="1"/>
        <pt x="163" y="137" on="0"/>
        <pt x="196" y="94" on="0"/>
        <pt x="226" y="94" on="1"/>
        <pt x="247" y="94" on="0"/>
        <pt x="278" y="125" on="0"/>
        <pt x="278" y="152" on="1"/>
        <pt x="278" y="180" on="0"/>
        <pt x="245" y="210" on="0"/>
      </contour>
    </TTGlyph>
    <TTGlyph name="Dcaron" xMin="66" yMin="0" xMax="622" yMax="814">
      <contour>
        <pt x="291" y="630" on="1"/>
        <pt x="366" y="630" on="0"/>
        <pt x="488" y="592" on="0"/>
        <pt x="575" y="516" on="0"/>
        <pt x="622" y="403" on="0"/>
        <pt x="622" y="328" on="1"/>
        <pt x="622" y="244" on="0"/>
        <pt x="566" y="121" on="0"/>
        <pt x="469" y="40" on="0"/>
        <pt x="339" y="0" on="0"/>
        <pt x="266" y="0" on="1"/>
        <pt x="66" y="0" on="1"/>
        <pt x="66" y="630" on="1"/>
      </contour>
      <contour>
        <pt x="218" y="116" on="1"/>
        <pt x="257" y="116" on="1"/>
        <pt x="297" y="116" on="0"/>
        <pt x="372" y="136" on="0"/>
        <pt x="428" y="185" on="0"/>
        <pt x="462" y="267" on="0"/>
        <pt x="462" y="328" on="1"/>
        <pt x="462" y="419" on="0"/>
        <pt x="360" y="514" on="0"/>
        <pt x="273" y="514" on="1"/>
        <pt x="218" y="514" on="1"/>
      </contour>
      <contour>
        <pt x="125" y="814" on="1"/>
        <pt x="235" y="814" on="1"/>
        <pt x="295" y="750" on="1"/>
        <pt x="355" y="814" on="1"/>
        <pt x="461" y="814" on="1"/>
        <pt x="349" y="690" on="1"/>
        <pt x="240" y="690" on="1"/>
      </contour>
    </TTGlyph>
    <TTGlyph name="Dcroat" xMin="20" yMin="0" xMax="662" yMax="630">
      <contour>
        <pt x="331" y="630" on="1"/>
        <pt x="406" y="630" on="0"/>
        <pt x="528" y="592" on="0"/>
        <pt x="615" y="516" on="0"/>
        <pt x="662" y="403" on="0"/>
        <pt x="662" y="328" on="1"/>
        <pt x="662" y="244" on="0"/>
        <pt x="606" y="121" on="0"/>
        <pt x="509" y="40" on="0"/>
        <pt x="379" y="0" on="0"/>
        <pt x="306" y="0" on="1"/>
        <pt x="106" y="0" on="1"/>
        <pt x="106" y="268" on="1"/>
        <pt x="20" y="268" on="1"/>
        <pt x="20" y="370" on="1"/>
        <pt x="106" y="370" on="1"/>
        <pt x="106" y="630" on="1"/>
      </contour>
      <contour>
        <pt x="370" y="370" on="1"/>
        <pt x="370" y="268" on="1"/>
        <pt x="258" y="268" on="1"/>
        <pt x="258" y="116" on="1"/>
        <pt x="297" y="116" on="1"/>
        <pt x="337" y="116" on="0"/>
        <pt x="412" y="136" on="0"/>
        <pt x="468" y="185" on="0"/>
        <pt x="502" y="267" on="0"/>
        <pt x="502" y="328" on="1"/>
        <pt x="502" y="419" on="0"/>
        <pt x="400" y="514" on="0"/>
        <pt x="313" y="514" on="1"/>
        <pt x="258" y="514" on="1"/>
        <pt x="258" y="370" on="1"/>
      </contour>
    </TTGlyph>
    <TTGlyph name="DebitSign.tm" xMin="33" yMin="-320" xMax="863" yMax="505">
      <contour>
        <pt x="863" y="505" on="1"/>
        <pt x="863" y="-147" on="1"/>
        <pt x="612" y="-147" on="1"/>
        <pt x="604" y="-178" on="0"/>
        <pt x="563" y="-240" on="0"/>
        <pt x="490" y="-289" on="0"/>
        <pt x="383" y="-320" on="0"/>
        <pt x="309" y="-320" on="1"/>
        <pt x="246" y="-320" on="0"/>
        <pt x="144" y="-295" on="0"/>
        <pt x="72" y="-250" on="0"/>
        <pt x="33" y="-188" on="0"/>
        <pt x="33" y="-151" on="1"/>
        <pt x="33" y="-106" on="0"/>
        <pt x="99" y="-49" on="0"/>
        <pt x="160" y="-49" on="1"/>
        <pt x="492" y="-49" on="1"/>
        <pt x="492" y="0" on="1"/>
        <pt x="69" y="0" on="1"/>
        <pt x="69" y="505" on="1"/>
        <pt x="207" y="505" on="1"/>
        <pt x="207" y="106" on="1"/>
        <pt x="484" y="106" on="1"/>
        <pt x="484" y="505" on="1"/>
        <pt x="619" y="505" on="1"/>
        <pt x="619" y="-49" on="1"/>
        <pt x="730" y="-49" on="1"/>
        <pt x="730" y="505" on="1"/>
      </contour>
      <contour>
        <pt x="310" y="-221" on="1"/>
        <pt x="385" y="-221" on="0"/>
        <pt x="468" y="-180" on="0"/>
        <pt x="483" y="-147" on="1"/>
        <pt x="186" y="-147" on="1"/>
        <pt x="163" y="-147" on="0"/>
        <pt x="163" y="-166" on="1"/>
        <pt x="163" y="-191" on="0"/>
        <pt x="244" y="-221" on="0"/>
      </contour>
    </TTGlyph>
    <TTGlyph name="DottedCircle" xMin="12" yMin="-13" xMax="545" yMax="521">
      <contour>
        <pt x="236" y="29" on="1"/>
        <pt x="236" y="47" on="0"/>
        <pt x="261" y="71" on="0"/>
        <pt x="278" y="71" on="1"/>
        <pt x="296" y="71" on="0"/>
        <pt x="321" y="47" on="0"/>
        <pt x="321" y="29" on="1"/>
        <pt x="321" y="12" on="0"/>
        <pt x="296" y="-13" on="0"/>
        <pt x="278" y="-13" on="1"/>
        <pt x="261" y="-13" on="0"/>
        <pt x="236" y="12" on="0"/>
      </contour>
      <contour>
        <pt x="236" y="477" on="1"/>
        <pt x="236" y="495" on="0"/>
        <pt x="261" y="521" on="0"/>
        <pt x="278" y="521" on="1"/>
        <pt x="297" y="521" on="0"/>
        <pt x="321" y="497" on="0"/>
        <pt x="321" y="477" on="1"/>
        <pt x="321" y="460" on="0"/>
        <pt x="296" y="437" on="0"/>
        <pt x="278" y="437" on="1"/>
        <pt x="261" y="437" on="0"/>
        <pt x="236" y="460" on="0"/>
      </contour>
      <contour>
        <pt x="12" y="254" on="1"/>
        <pt x="12" y="271" on="0"/>
        <pt x="37" y="297" on="0"/>
        <pt x="54" y="297" on="1"/>
        <pt x="71" y="297" on="0"/>
        <pt x="95" y="272" on="0"/>
        <pt x="95" y="254" on="1"/>
        <pt x="95" y="236" on="0"/>
        <pt x="71" y="211" on="0"/>
        <pt x="54" y="211" on="1"/>
        <pt x="36" y="211" on="0"/>
        <pt x="12" y="236" on="0"/>
      </contour>
      <contour>
        <pt x="462" y="254" on="1"/>
        <pt x="462" y="271" on="0"/>
        <pt x="486" y="297" on="0"/>
        <pt x="503" y="297" on="1"/>
        <pt x="520" y="297" on="0"/>
        <pt x="545" y="271" on="0"/>
        <pt x="545" y="254" on="1"/>
        <pt x="545" y="237" on="0"/>
        <pt x="520" y="211" on="0"/>
        <pt x="503" y="211" on="1"/>
        <pt x="486" y="211" on="0"/>
        <pt x="462" y="236" on="0"/>
      </contour>
      <contour>
        <pt x="86" y="404" on="1"/>
        <pt x="86" y="422" on="0"/>
        <pt x="110" y="447" on="0"/>
        <pt x="128" y="447" on="1"/>
        <pt x="146" y="447" on="0"/>
        <pt x="172" y="421" on="0"/>
        <pt x="172" y="404" on="1"/>
        <pt x="172" y="386" on="0"/>
        <pt x="146" y="361" on="0"/>
        <pt x="128" y="361" on="1"/>
        <pt x="110" y="361" on="0"/>
        <pt x="86" y="386" on="0"/>
      </contour>
      <contour>
        <pt x="86" y="104" on="1"/>
        <pt x="86" y="122" on="0"/>
        <pt x="110" y="147" on="0"/>
        <pt x="128" y="147" on="1"/>
        <pt x="146" y="147" on="0"/>
        <pt x="172" y="122" on="0"/>
        <pt x="172" y="104" on="1"/>
        <pt x="172" y="86" on="0"/>
        <pt x="146" y="62" on="0"/>
        <pt x="128" y="62" on="1"/>
        <pt x="110" y="62" on="0"/>
        <pt x="86" y="86" on="0"/>
      </contour>
      <contour>
        <pt x="385" y="104" on="1"/>
        <pt x="385" y="122" on="0"/>
        <pt x="411" y="147" on="0"/>
        <pt x="429" y="147" on="1"/>
        <pt x="446" y="147" on="0"/>
        <pt x="472" y="121" on="0"/>
        <pt x="472" y="104" on="1"/>
        <pt x="472" y="86" on="0"/>
        <pt x="447" y="62" on="0"/>
        <pt x="429" y="62" on="1"/>
        <pt x="411" y="62" on="0"/>
        <pt x="385" y="86" on="0"/>
      </contour>
      <contour>
        <pt x="385" y="404" on="1"/>
        <pt x="385" y="422" on="0"/>
        <pt x="411" y="447" on="0"/>
        <pt x="429" y="447" on="1"/>
        <pt x="446" y="447" on="0"/>
        <pt x="472" y="421" on="0"/>
        <pt x="472" y="404" on="1"/>
        <pt x="472" y="386" on="0"/>
        <pt x="446" y="361" on="0"/>
        <pt x="429" y="361" on="1"/>
        <pt x="411" y="361" on="0"/>
        <pt x="385" y="386" on="0"/>
      </contour>
    </TTGlyph>
    <TTGlyph name="Dsmall" xMin="58" yMin="0" xMax="518" yMax="480">
      <contour>
        <pt x="261" y="480" on="1"/>
        <pt x="314" y="480" on="0"/>
        <pt x="408" y="454" on="0"/>
        <pt x="478" y="398" on="0"/>
        <pt x="518" y="311" on="0"/>
        <pt x="518" y="250" on="1"/>
        <pt x="518" y="183" on="0"/>
        <pt x="476" y="88" on="0"/>
        <pt x="402" y="28" on="0"/>
        <pt x="303" y="0" on="0"/>
        <pt x="245" y="0" on="1"/>
        <pt x="58" y="0" on="1"/>
        <pt x="58" y="480" on="1"/>
      </contour>
      <contour>
        <pt x="206" y="109" on="1"/>
        <pt x="235" y="109" on="1"/>
        <pt x="256" y="109" on="0"/>
        <pt x="303" y="120" on="0"/>
        <pt x="342" y="150" on="0"/>
        <pt x="368" y="204" on="0"/>
        <pt x="368" y="247" on="1"/>
        <pt x="368" y="306" on="0"/>
        <pt x="303" y="371" on="0"/>
        <pt x="235" y="371" on="1"/>
        <pt x="206" y="371" on="1"/>
      </contour>
    </TTGlyph>
    <TTGlyph name="E" xMin="66" yMin="0" xMax="489" yMax="630">
      <contour>
        <pt x="66" y="630" on="1"/>
        <pt x="486" y="630" on="1"/>
        <pt x="486" y="514" on="1"/>
        <pt x="218" y="514" on="1"/>
        <pt x="218" y="385" on="1"/>
        <pt x="460" y="385" on="1"/>
        <pt x="460" y="270" on="1"/>
        <pt x="218" y="270" on="1"/>
        <pt x="218" y="116" on="1"/>
        <pt x="489" y="116" on="1"/>
        <pt x="489" y="0" on="1"/>
        <pt x="66" y="0" on="1"/>
      </contour>
    </TTGlyph>
    <TTGlyph name="Eacute" xMin="66" yMin="0" xMax="489" yMax="814">
      <contour>
        <pt x="66" y="630" on="1"/>
        <pt x="486" y="630" on="1"/>
        <pt x="486" y="514" on="1"/>
        <pt x="218" y="514" on="1"/>
        <pt x="218" y="385" on="1"/>
        <pt x="460" y="385" on="1"/>
        <pt x="460" y="270" on="1"/>
        <pt x="218" y="270" on="1"/>
        <pt x="218" y="116" on="1"/>
        <pt x="489" y="116" on="1"/>
        <pt x="489" y="0" on="1"/>
        <pt x="66" y="0" on="1"/>
      </contour>
      <contour>
        <pt x="282" y="690" on="1"/>
        <pt x="160" y="690" on="1"/>
        <pt x="240" y="814" on="1"/>
        <pt x="398" y="814" on="1"/>
      </contour>
    </TTGlyph>
    <TTGlyph name="Ebreve" xMin="66" yMin="0" xMax="489" yMax="814">
      <contour>
        <pt x="66" y="630" on="1"/>
        <pt x="486" y="630" on="1"/>
        <pt x="486" y="514" on="1"/>
        <pt x="218" y="514" on="1"/>
        <pt x="218" y="385" on="1"/>
        <pt x="460" y="385" on="1"/>
        <pt x="460" y="270" on="1"/>
        <pt x="218" y="270" on="1"/>
        <pt x="218" y="116" on="1"/>
        <pt x="489" y="116" on="1"/>
        <pt x="489" y="0" on="1"/>
        <pt x="66" y="0" on="1"/>
      </contour>
      <contour>
        <pt x="228" y="814" on="1"/>
        <pt x="229" y="791" on="0"/>
        <pt x="254" y="764" on="0"/>
        <pt x="281" y="764" on="1"/>
        <pt x="330" y="764" on="0"/>
        <pt x="332" y="814" on="1"/>
        <pt x="414" y="814" on="1"/>
        <pt x="414" y="753" on="0"/>
        <pt x="345" y="685" on="0"/>
        <pt x="280" y="685" on="1"/>
        <pt x="244" y="685" on="0"/>
        <pt x="193" y="706" on="0"/>
        <pt x="160" y="741" on="0"/>
        <pt x="145" y="788" on="0"/>
        <pt x="145" y="814" on="1"/>
      </contour>
    </TTGlyph>
    <TTGlyph name="Ecaron" xMin="66" yMin="0" xMax="489" yMax="814">
      <contour>
        <pt x="66" y="630" on="1"/>
        <pt x="486" y="630" on="1"/>
        <pt x="486" y="514" on="1"/>
        <pt x="218" y="514" on="1"/>
        <pt x="218" y="385" on="1"/>
        <pt x="460" y="385" on="1"/>
        <pt x="460" y="270" on="1"/>
        <pt x="218" y="270" on="1"/>
        <pt x="218" y="116" on="1"/>
        <pt x="489" y="116" on="1"/>
        <pt x="489" y="0" on="1"/>
        <pt x="66" y="0" on="1"/>
      </contour>
      <contour>
        <pt x="333" y="690" on="1"/>
        <pt x="224" y="690" on="1"/>
        <pt x="109" y="814" on="1"/>
        <pt x="219" y="814" on="1"/>
        <pt x="279" y="750" on="1"/>
        <pt x="339" y="814" on="1"/>
        <pt x="445" y="814" on="1"/>
      </contour>
    </TTGlyph>
    <TTGlyph name="Ecircumflex" xMin="66" yMin="0" xMax="489" yMax="814">
      <contour>
        <pt x="66" y="630" on="1"/>
        <pt x="486" y="630" on="1"/>
        <pt x="486" y="514" on="1"/>
        <pt x="218" y="514" on="1"/>
        <pt x="218" y="385" on="1"/>
        <pt x="460" y="385" on="1"/>
        <pt x="460" y="270" on="1"/>
        <pt x="218" y="270" on="1"/>
        <pt x="218" y="116" on="1"/>
        <pt x="489" y="116" on="1"/>
        <pt x="489" y="0" on="1"/>
        <pt x="66" y="0" on="1"/>
      </contour>
      <contour>
        <pt x="215" y="814" on="1"/>
        <pt x="324" y="814" on="1"/>
        <pt x="439" y="690" on="1"/>
        <pt x="329" y="690" on="1"/>
        <pt x="269" y="754" on="1"/>
        <pt x="209" y="690" on="1"/>
        <pt x="103" y="690" on="1"/>
      </contour>
    </TTGlyph>
    <TTGlyph name="Edieresis" xMin="66" yMin="0" xMax="489" yMax="814">
      <contour>
        <pt x="66" y="630" on="1"/>
        <pt x="486" y="630" on="1"/>
        <pt x="486" y="514" on="1"/>
        <pt x="218" y="514" on="1"/>
        <pt x="218" y="385" on="1"/>
        <pt x="460" y="385" on="1"/>
        <pt x="460" y="270" on="1"/>
        <pt x="218" y="270" on="1"/>
        <pt x="218" y="116" on="1"/>
        <pt x="489" y="116" on="1"/>
        <pt x="489" y="0" on="1"/>
        <pt x="66" y="0" on="1"/>
      </contour>
      <contour>
        <pt x="104" y="748" on="1"/>
        <pt x="104" y="776" on="0"/>
        <pt x="143" y="814" on="0"/>
        <pt x="172" y="814" on="1"/>
        <pt x="201" y="814" on="0"/>
        <pt x="239" y="776" on="0"/>
        <pt x="239" y="748" on="1"/>
        <pt x="239" y="719" on="0"/>
        <pt x="201" y="679" on="0"/>
        <pt x="172" y="679" on="1"/>
        <pt x="143" y="679" on="0"/>
        <pt x="104" y="719" on="0"/>
      </contour>
      <contour>
        <pt x="309" y="748" on="1"/>
        <pt x="309" y="776" on="0"/>
        <pt x="348" y="814" on="0"/>
        <pt x="377" y="814" on="1"/>
        <pt x="406" y="814" on="0"/>
        <pt x="444" y="776" on="0"/>
        <pt x="444" y="748" on="1"/>
        <pt x="444" y="719" on="0"/>
        <pt x="406" y="679" on="0"/>
        <pt x="377" y="679" on="1"/>
        <pt x="348" y="679" on="0"/>
        <pt x="309" y="719" on="0"/>
      </contour>
    </TTGlyph>
    <TTGlyph name="Edotaccent" xMin="66" yMin="0" xMax="489" yMax="814">
      <contour>
        <pt x="66" y="630" on="1"/>
        <pt x="486" y="630" on="1"/>
        <pt x="486" y="514" on="1"/>
        <pt x="218" y="514" on="1"/>
        <pt x="218" y="385" on="1"/>
        <pt x="460" y="385" on="1"/>
        <pt x="460" y="270" on="1"/>
        <pt x="218" y="270" on="1"/>
        <pt x="218" y="116" on="1"/>
        <pt x="489" y="116" on="1"/>
        <pt x="489" y="0" on="1"/>
        <pt x="66" y="0" on="1"/>
      </contour>
      <contour>
        <pt x="214" y="748" on="1"/>
        <pt x="214" y="776" on="0"/>
        <pt x="253" y="814" on="0"/>
        <pt x="282" y="814" on="1"/>
        <pt x="311" y="814" on="0"/>
        <pt x="349" y="776" on="0"/>
        <pt x="349" y="748" on="1"/>
        <pt x="349" y="719" on="0"/>
        <pt x="311" y="679" on="0"/>
        <pt x="282" y="679" on="1"/>
        <pt x="253" y="679" on="0"/>
        <pt x="214" y="719" on="0"/>
      </contour>
    </TTGlyph>
    <TTGlyph name="Egrave" xMin="66" yMin="0" xMax="489" yMax="814">
      <contour>
        <pt x="66" y="630" on="1"/>
        <pt x="486" y="630" on="1"/>
        <pt x="486" y="514" on="1"/>
        <pt x="218" y="514" on="1"/>
        <pt x="218" y="385" on="1"/>
        <pt x="460" y="385" on="1"/>
        <pt x="460" y="270" on="1"/>
        <pt x="218" y="270" on="1"/>
        <pt x="218" y="116" on="1"/>
        <pt x="489" y="116" on="1"/>
        <pt x="489" y="0" on="1"/>
        <pt x="66" y="0" on="1"/>
      </contour>
      <contour>
        <pt x="160" y="814" on="1"/>
        <pt x="318" y="814" on="1"/>
        <pt x="398" y="690" on="1"/>
        <pt x="276" y="690" on="1"/>
      </contour>
    </TTGlyph>
    <TTGlyph name="Eight.tm" xMin="11" yMin="-121" xMax="1040" yMax="515">
      <contour>
        <pt x="675" y="202" on="1"/>
        <pt x="678" y="220" on="0"/>
        <pt x="678" y="242" on="1"/>
        <pt x="678" y="318" on="0"/>
        <pt x="601" y="411" on="0"/>
        <pt x="537" y="411" on="1"/>
        <pt x="496" y="411" on="0"/>
        <pt x="447" y="368" on="0"/>
        <pt x="447" y="333" on="1"/>
        <pt x="447" y="319" on="0"/>
        <pt x="455" y="295" on="0"/>
        <pt x="460" y="287" on="1"/>
        <pt x="367" y="236" on="1"/>
        <pt x="353" y="250" on="0"/>
        <pt x="327" y="304" on="0"/>
        <pt x="327" y="339" on="1"/>
        <pt x="327" y="375" on="0"/>
        <pt x="355" y="439" on="0"/>
        <pt x="410" y="487" on="0"/>
        <pt x="489" y="515" on="0"/>
        <pt x="540" y="515" on="1"/>
        <pt x="600" y="515" on="0"/>
        <pt x="698" y="474" on="0"/>
        <pt x="768" y="400" on="0"/>
        <pt x="806" y="296" on="0"/>
        <pt x="806" y="233" on="1"/>
        <pt x="806" y="223" on="0"/>
        <pt x="805" y="208" on="0"/>
        <pt x="804" y="201" on="1"/>
        <pt x="909" y="201" on="1"/>
        <pt x="909" y="505" on="1"/>
        <pt x="1040" y="505" on="1"/>
        <pt x="1040" y="-121" on="1"/>
        <pt x="909" y="-121" on="1"/>
        <pt x="909" y="97" on="1"/>
        <pt x="793" y="97" on="1"/>
        <pt x="774" y="47" on="0"/>
        <pt x="696" y="-31" on="0"/>
        <pt x="586" y="-85" on="0"/>
        <pt x="450" y="-114" on="0"/>
        <pt x="372" y="-114" on="1"/>
        <pt x="288" y="-114" on="0"/>
        <pt x="154" y="-87" on="0"/>
        <pt x="61" y="-35" on="0"/>
        <pt x="11" y="39" on="0"/>
        <pt x="11" y="86" on="1"/>
        <pt x="11" y="140" on="0"/>
        <pt x="90" y="202" on="0"/>
        <pt x="159" y="202" on="1"/>
      </contour>
      <contour>
        <pt x="376" y="-4" on="1"/>
        <pt x="479" y="-4" on="0"/>
        <pt x="616" y="49" on="0"/>
        <pt x="648" y="97" on="1"/>
        <pt x="179" y="97" on="1"/>
        <pt x="148" y="97" on="0"/>
        <pt x="148" y="73" on="1"/>
        <pt x="148" y="56" on="0"/>
        <pt x="180" y="27" on="0"/>
        <pt x="240" y="7" on="0"/>
        <pt x="324" y="-4" on="0"/>
      </contour>
    </TTGlyph>
    <TTGlyph name="Ek_Type" xMin="100" yMin="-312" xMax="1089" yMax="636">
      <contour>
        <pt x="800" y="531" on="1"/>
        <pt x="800" y="403" on="1"/>
        <pt x="814" y="421" on="0"/>
        <pt x="867" y="447" on="0"/>
        <pt x="902" y="447" on="1"/>
        <pt x="977" y="447" on="0"/>
        <pt x="1062" y="351" on="0"/>
        <pt x="1062" y="266" on="1"/>
        <pt x="1062" y="224" on="0"/>
        <pt x="1037" y="156" on="0"/>
        <pt x="991" y="107" on="0"/>
        <pt x="925" y="81" on="0"/>
        <pt x="885" y="81" on="1"/>
        <pt x="876" y="81" on="0"/>
        <pt x="852" y="84" on="0"/>
        <pt x="841" y="87" on="1"/>
        <pt x="854" y="184" on="1"/>
        <pt x="869" y="184" on="1"/>
        <pt x="927" y="184" on="0"/>
        <pt x="927" y="266" on="1"/>
        <pt x="927" y="301" on="0"/>
        <pt x="894" y="340" on="0"/>
        <pt x="865" y="340" on="1"/>
        <pt x="836" y="340" on="0"/>
        <pt x="807" y="299" on="0"/>
        <pt x="803" y="276" on="1"/>
        <pt x="803" y="0" on="1"/>
        <pt x="672" y="0" on="1"/>
        <pt x="672" y="113" on="1"/>
        <pt x="657" y="95" on="0"/>
        <pt x="603" y="74" on="0"/>
        <pt x="579" y="74" on="1"/>
        <pt x="549" y="74" on="0"/>
        <pt x="489" y="94" on="0"/>
        <pt x="441" y="139" on="0"/>
        <pt x="411" y="211" on="0"/>
        <pt x="411" y="263" on="1"/>
        <pt x="411" y="352" on="0"/>
        <pt x="493" y="447" on="0"/>
        <pt x="568" y="447" on="1"/>
        <pt x="600" y="447" on="0"/>
        <pt x="654" y="428" on="0"/>
        <pt x="672" y="411" on="1"/>
        <pt x="672" y="531" on="1"/>
        <pt x="330" y="531" on="1"/>
        <pt x="330" y="50" on="1"/>
        <pt x="549" y="-40" on="0"/>
        <pt x="818" y="-164" on="0"/>
        <pt x="883" y="-197" on="1"/>
        <pt x="822" y="-312" on="1"/>
        <pt x="778" y="-291" on="0"/>
        <pt x="661" y="-235" on="0"/>
        <pt x="507" y="-163" on="0"/>
        <pt x="314" y="-73" on="0"/>
        <pt x="195" y="-18" on="1"/>
        <pt x="195" y="531" on="1"/>
        <pt x="100" y="531" on="1"/>
        <pt x="100" y="636" on="1"/>
        <pt x="1089" y="636" on="1"/>
        <pt x="1089" y="531" on="1"/>
      </contour>
      <contour>
        <pt x="675" y="309" on="1"/>
        <pt x="665" y="320" on="0"/>
        <pt x="633" y="338" on="0"/>
        <pt x="613" y="338" on="1"/>
        <pt x="584" y="338" on="0"/>
        <pt x="548" y="297" on="0"/>
        <pt x="548" y="262" on="1"/>
        <pt x="548" y="225" on="0"/>
        <pt x="582" y="182" on="0"/>
        <pt x="611" y="182" on="1"/>
        <pt x="667" y="182" on="0"/>
        <pt x="675" y="236" on="1"/>
      </contour>
    </TTGlyph>
    <TTGlyph name="Emacron" xMin="66" yMin="0" xMax="489" yMax="772">
      <contour>
        <pt x="66" y="630" on="1"/>
        <pt x="486" y="630" on="1"/>
        <pt x="486" y="514" on="1"/>
        <pt x="218" y="514" on="1"/>
        <pt x="218" y="385" on="1"/>
        <pt x="460" y="385" on="1"/>
        <pt x="460" y="270" on="1"/>
        <pt x="218" y="270" on="1"/>
        <pt x="218" y="116" on="1"/>
        <pt x="489" y="116" on="1"/>
        <pt x="489" y="0" on="1"/>
        <pt x="66" y="0" on="1"/>
      </contour>
      <contour>
        <pt x="400" y="772" on="1"/>
        <pt x="400" y="690" on="1"/>
        <pt x="140" y="690" on="1"/>
        <pt x="140" y="772" on="1"/>
      </contour>
    </TTGlyph>
    <TTGlyph name="Eng" xMin="66" yMin="-249" xMax="604" yMax="630">
      <contour>
        <pt x="66" y="630" on="1"/>
        <pt x="206" y="630" on="1"/>
        <pt x="344" y="419" on="1"/>
        <pt x="381" y="360" on="0"/>
        <pt x="450" y="235" on="0"/>
        <pt x="469" y="185" on="1"/>
        <pt x="471" y="185" on="1"/>
        <pt x="466" y="245" on="0"/>
        <pt x="464" y="366" on="0"/>
        <pt x="464" y="426" on="1"/>
        <pt x="464" y="630" on="1"/>
        <pt x="604" y="630" on="1"/>
        <pt x="604" y="97" on="1"/>
        <pt x="604" y="37" on="0"/>
        <pt x="586" y="-67" on="0"/>
        <pt x="541" y="-154" on="0"/>
        <pt x="466" y="-224" on="0"/>
        <pt x="409" y="-249" on="1"/>
        <pt x="347" y="-150" on="1"/>
        <pt x="388" y="-124" on="0"/>
        <pt x="447" y="-54" on="0"/>
        <pt x="458" y="-1" on="1"/>
        <pt x="318" y="215" on="1"/>
        <pt x="282" y="268" on="0"/>
        <pt x="222" y="378" on="0"/>
        <pt x="201" y="439" on="1"/>
        <pt x="199" y="439" on="1"/>
        <pt x="204" y="376" on="0"/>
        <pt x="206" y="260" on="0"/>
        <pt x="206" y="200" on="1"/>
        <pt x="206" y="0" on="1"/>
        <pt x="66" y="0" on="1"/>
      </contour>
    </TTGlyph>
    <TTGlyph name="Eogonek" xMin="66" yMin="-206" xMax="549" yMax="630">
      <contour>
        <pt x="66" y="630" on="1"/>
        <pt x="486" y="630" on="1"/>
        <pt x="486" y="514" on="1"/>
        <pt x="218" y="514" on="1"/>
        <pt x="218" y="385" on="1"/>
        <pt x="460" y="385" on="1"/>
        <pt x="460" y="270" on="1"/>
        <pt x="218" y="270" on="1"/>
        <pt x="218" y="116" on="1"/>
        <pt x="489" y="116" on="1"/>
        <pt x="489" y="0" on="1"/>
        <pt x="472" y="-17" on="0"/>
        <pt x="449" y="-55" on="0"/>
        <pt x="449" y="-75" on="1"/>
        <pt x="449" y="-94" on="0"/>
        <pt x="470" y="-116" on="0"/>
        <pt x="490" y="-116" on="1"/>
        <pt x="503" y="-116" on="0"/>
        <pt x="521" y="-111" on="0"/>
        <pt x="529" y="-108" on="1"/>
        <pt x="549" y="-184" on="1"/>
        <pt x="533" y="-194" on="0"/>
        <pt x="488" y="-206" on="0"/>
        <pt x="462" y="-206" on="1"/>
        <pt x="416" y="-206" on="0"/>
        <pt x="355" y="-151" on="0"/>
        <pt x="355" y="-104" on="1"/>
        <pt x="355" y="-69" on="0"/>
        <pt x="380" y="-19" on="0"/>
        <pt x="397" y="-3" on="1"/>
        <pt x="397" y="0" on="1"/>
        <pt x="66" y="0" on="1"/>
      </contour>
    </TTGlyph>
    <TTGlyph name="Esmall" xMin="58" yMin="0" xMax="407" yMax="480">
      <contour>
        <pt x="58" y="480" on="1"/>
        <pt x="405" y="480" on="1"/>
        <pt x="405" y="372" on="1"/>
        <pt x="204" y="372" on="1"/>
        <pt x="204" y="296" on="1"/>
        <pt x="383" y="296" on="1"/>
        <pt x="383" y="189" on="1"/>
        <pt x="204" y="189" on="1"/>
        <pt x="204" y="108" on="1"/>
        <pt x="407" y="108" on="1"/>
        <pt x="407" y="0" on="1"/>
        <pt x="58" y="0" on="1"/>
      </contour>
    </TTGlyph>
    <TTGlyph name="Eth" xMin="20" yMin="0" xMax="662" yMax="630">
      <contour>
        <pt x="331" y="630" on="1"/>
        <pt x="406" y="630" on="0"/>
        <pt x="528" y="592" on="0"/>
        <pt x="615" y="516" on="0"/>
        <pt x="662" y="403" on="0"/>
        <pt x="662" y="328" on="1"/>
        <pt x="662" y="244" on="0"/>
        <pt x="606" y="121" on="0"/>
        <pt x="509" y="40" on="0"/>
        <pt x="379" y="0" on="0"/>
        <pt x="306" y="0" on="1"/>
        <pt x="106" y="0" on="1"/>
        <pt x="106" y="268" on="1"/>
        <pt x="20" y="268" on="1"/>
        <pt x="20" y="370" on="1"/>
        <pt x="106" y="370" on="1"/>
        <pt x="106" y="630" on="1"/>
      </contour>
      <contour>
        <pt x="370" y="370" on="1"/>
        <pt x="370" y="268" on="1"/>
        <pt x="258" y="268" on="1"/>
        <pt x="258" y="116" on="1"/>
        <pt x="297" y="116" on="1"/>
        <pt x="337" y="116" on="0"/>
        <pt x="412" y="136" on="0"/>
        <pt x="468" y="185" on="0"/>
        <pt x="502" y="267" on="0"/>
        <pt x="502" y="328" on="1"/>
        <pt x="502" y="419" on="0"/>
        <pt x="400" y="514" on="0"/>
        <pt x="313" y="514" on="1"/>
        <pt x="258" y="514" on="1"/>
        <pt x="258" y="370" on="1"/>
      </contour>
    </TTGlyph>
    <TTGlyph name="Euro" xMin="20" yMin="-9" xMax="460" yMax="514">
      <contour>
        <pt x="316" y="514" on="1"/>
        <pt x="372" y="514" on="0"/>
        <pt x="440" y="491" on="0"/>
        <pt x="460" y="479" on="1"/>
        <pt x="429" y="387" on="1"/>
        <pt x="411" y="398" on="0"/>
        <pt x="360" y="415" on="0"/>
        <pt x="328" y="415" on="1"/>
        <pt x="285" y="415" on="0"/>
        <pt x="219" y="375" on="0"/>
        <pt x="206" y="324" on="1"/>
        <pt x="393" y="324" on="1"/>
        <pt x="393" y="263" on="1"/>
        <pt x="200" y="263" on="1"/>
        <pt x="200" y="223" on="1"/>
        <pt x="393" y="223" on="1"/>
        <pt x="393" y="162" on="1"/>
        <pt x="212" y="162" on="1"/>
        <pt x="229" y="124" on="0"/>
        <pt x="289" y="90" on="0"/>
        <pt x="327" y="90" on="1"/>
        <pt x="364" y="90" on="0"/>
        <pt x="415" y="103" on="0"/>
        <pt x="432" y="114" on="1"/>
        <pt x="459" y="24" on="1"/>
        <pt x="442" y="13" on="0"/>
        <pt x="369" y="-9" on="0"/>
        <pt x="315" y="-9" on="1"/>
        <pt x="224" y="-9" on="0"/>
        <pt x="101" y="78" on="0"/>
        <pt x="79" y="162" on="1"/>
        <pt x="20" y="162" on="1"/>
        <pt x="20" y="223" on="1"/>
        <pt x="70" y="223" on="1"/>
        <pt x="70" y="263" on="1"/>
        <pt x="20" y="263" on="1"/>
        <pt x="20" y="324" on="1"/>
        <pt x="75" y="324" on="1"/>
        <pt x="92" y="415" on="0"/>
        <pt x="216" y="514" on="0"/>
      </contour>
    </TTGlyph>
    <TTGlyph name="Euro.lat" xMin="5" yMin="-11" xMax="543" yMax="642">
      <contour>
        <pt x="384" y="105" on="1"/>
        <pt x="429" y="105" on="0"/>
        <pt x="491" y="121" on="0"/>
        <pt x="512" y="134" on="1"/>
        <pt x="542" y="25" on="1"/>
        <pt x="522" y="13" on="0"/>
        <pt x="433" y="-11" on="0"/>
        <pt x="368" y="-11" on="1"/>
        <pt x="257" y="-11" on="0"/>
        <pt x="102" y="101" on="0"/>
        <pt x="75" y="208" on="1"/>
        <pt x="5" y="208" on="1"/>
        <pt x="5" y="279" on="1"/>
        <pt x="64" y="279" on="1"/>
        <pt x="63" y="288" on="0"/>
        <pt x="63" y="306" on="0"/>
        <pt x="63" y="316" on="1"/>
        <pt x="63" y="329" on="1"/>
        <pt x="5" y="329" on="1"/>
        <pt x="5" y="400" on="1"/>
        <pt x="70" y="400" on="1"/>
        <pt x="91" y="516" on="0"/>
        <pt x="247" y="642" on="0"/>
        <pt x="370" y="642" on="1"/>
        <pt x="436" y="642" on="0"/>
        <pt x="519" y="617" on="0"/>
        <pt x="543" y="604" on="1"/>
        <pt x="509" y="493" on="1"/>
        <pt x="486" y="506" on="0"/>
        <pt x="423" y="526" on="0"/>
        <pt x="385" y="526" on="1"/>
        <pt x="358" y="526" on="0"/>
        <pt x="309" y="513" on="0"/>
        <pt x="269" y="484" on="0"/>
        <pt x="239" y="436" on="0"/>
        <pt x="231" y="400" on="1"/>
        <pt x="461" y="400" on="1"/>
        <pt x="461" y="329" on="1"/>
        <pt x="223" y="329" on="1"/>
        <pt x="223" y="317" on="1"/>
        <pt x="223" y="306" on="0"/>
        <pt x="223" y="288" on="0"/>
        <pt x="224" y="279" on="1"/>
        <pt x="461" y="279" on="1"/>
        <pt x="461" y="208" on="1"/>
        <pt x="239" y="208" on="1"/>
        <pt x="259" y="153" on="0"/>
        <pt x="336" y="105" on="0"/>
      </contour>
    </TTGlyph>
    <TTGlyph name="F" xMin="66" yMin="0" xMax="476" yMax="630">
      <contour>
        <pt x="476" y="630" on="1"/>
        <pt x="476" y="514" on="1"/>
        <pt x="218" y="514" on="1"/>
        <pt x="218" y="360" on="1"/>
        <pt x="454" y="360" on="1"/>
        <pt x="454" y="245" on="1"/>
        <pt x="218" y="245" on="1"/>
        <pt x="218" y="0" on="1"/>
        <pt x="66" y="0" on="1"/>
        <pt x="66" y="630" on="1"/>
      </contour>
    </TTGlyph>
    <TTGlyph name="Five.tm" xMin="33" yMin="-265" xMax="975" yMax="755">
      <contour>
        <pt x="784" y="319" on="1"/>
        <pt x="828" y="319" on="0"/>
        <pt x="899" y="288" on="0"/>
        <pt x="948" y="231" on="0"/>
        <pt x="975" y="150" on="0"/>
        <pt x="975" y="99" on="1"/>
        <pt x="975" y="21" on="0"/>
        <pt x="909" y="-112" on="0"/>
        <pt x="791" y="-210" on="0"/>
        <pt x="628" y="-265" on="0"/>
        <pt x="530" y="-265" on="1"/>
        <pt x="421" y="-265" on="0"/>
        <pt x="239" y="-200" on="0"/>
        <pt x="107" y="-74" on="0"/>
        <pt x="33" y="108" on="0"/>
        <pt x="33" y="225" on="1"/>
        <pt x="33" y="347" on="0"/>
        <pt x="107" y="543" on="0"/>
        <pt x="245" y="681" on="0"/>
        <pt x="441" y="755" on="0"/>
        <pt x="564" y="755" on="1"/>
        <pt x="629" y="755" on="0"/>
        <pt x="739" y="734" on="0"/>
        <pt x="828" y="703" on="0"/>
        <pt x="895" y="667" on="0"/>
        <pt x="917" y="652" on="1"/>
        <pt x="867" y="561" on="1"/>
        <pt x="842" y="576" on="0"/>
        <pt x="779" y="606" on="0"/>
        <pt x="702" y="630" on="0"/>
        <pt x="612" y="645" on="0"/>
        <pt x="560" y="645" on="1"/>
        <pt x="371" y="645" on="0"/>
        <pt x="170" y="430" on="0"/>
        <pt x="170" y="226" on="1"/>
        <pt x="170" y="133" on="0"/>
        <pt x="220" y="-9" on="0"/>
        <pt x="314" y="-106" on="0"/>
        <pt x="449" y="-156" on="0"/>
        <pt x="535" y="-156" on="1"/>
        <pt x="609" y="-156" on="0"/>
        <pt x="722" y="-118" on="0"/>
        <pt x="798" y="-50" on="0"/>
        <pt x="837" y="43" on="0"/>
        <pt x="837" y="97" on="1"/>
        <pt x="837" y="156" on="0"/>
        <pt x="793" y="217" on="0"/>
        <pt x="757" y="217" on="1"/>
        <pt x="740" y="217" on="0"/>
        <pt x="714" y="207" on="0"/>
        <pt x="703" y="198" on="1"/>
        <pt x="703" y="0" on="1"/>
        <pt x="571" y="0" on="1"/>
        <pt x="571" y="402" on="1"/>
        <pt x="450" y="402" on="1"/>
        <pt x="450" y="0" on="1"/>
        <pt x="315" y="0" on="1"/>
        <pt x="315" y="505" on="1"/>
        <pt x="860" y="505" on="1"/>
        <pt x="860" y="402" on="1"/>
        <pt x="703" y="402" on="1"/>
        <pt x="703" y="299" on="1"/>
        <pt x="722" y="310" on="0"/>
        <pt x="763" y="319" on="0"/>
      </contour>
    </TTGlyph>
    <TTGlyph name="Four.tm" xMin="21" yMin="-11" xMax="752" yMax="505">
      <contour>
        <pt x="752" y="505" on="1"/>
        <pt x="752" y="211" on="1"/>
        <pt x="459" y="211" on="1"/>
        <pt x="459" y="165" on="1"/>
        <pt x="459" y="82" on="0"/>
        <pt x="350" y="-11" on="0"/>
        <pt x="245" y="-11" on="1"/>
        <pt x="196" y="-11" on="0"/>
        <pt x="114" y="13" on="0"/>
        <pt x="54" y="58" on="0"/>
        <pt x="21" y="122" on="0"/>
        <pt x="21" y="161" on="1"/>
        <pt x="21" y="188" on="0"/>
        <pt x="38" y="234" on="0"/>
        <pt x="65" y="268" on="0"/>
        <pt x="100" y="291" on="0"/>
        <pt x="118" y="295" on="1"/>
        <pt x="118" y="505" on="1"/>
        <pt x="583" y="505" on="1"/>
        <pt x="583" y="408" on="1"/>
        <pt x="459" y="408" on="1"/>
        <pt x="459" y="304" on="1"/>
        <pt x="637" y="304" on="1"/>
        <pt x="637" y="505" on="1"/>
      </contour>
      <contour>
        <pt x="216" y="211" on="1"/>
        <pt x="186" y="211" on="0"/>
        <pt x="151" y="182" on="0"/>
        <pt x="151" y="156" on="1"/>
        <pt x="151" y="126" on="0"/>
        <pt x="201" y="88" on="0"/>
        <pt x="246" y="88" on="1"/>
        <pt x="289" y="88" on="0"/>
        <pt x="337" y="130" on="0"/>
        <pt x="337" y="165" on="1"/>
        <pt x="337" y="211" on="1"/>
      </contour>
      <contour>
        <pt x="239" y="306" on="1"/>
        <pt x="339" y="306" on="1"/>
        <pt x="339" y="408" on="1"/>
        <pt x="239" y="408" on="1"/>
      </contour>
    </TTGlyph>
    <TTGlyph name="Fsmall" xMin="58" yMin="0" xMax="396" yMax="480">
      <contour>
        <pt x="396" y="480" on="1"/>
        <pt x="396" y="372" on="1"/>
        <pt x="206" y="372" on="1"/>
        <pt x="206" y="275" on="1"/>
        <pt x="378" y="275" on="1"/>
        <pt x="378" y="167" on="1"/>
        <pt x="206" y="167" on="1"/>
        <pt x="206" y="0" on="1"/>
        <pt x="58" y="0" on="1"/>
        <pt x="58" y="480" on="1"/>
      </contour>
    </TTGlyph>
    <TTGlyph name="G" xMin="38" yMin="-11" xMax="588" yMax="642">
      <contour>
        <pt x="377" y="642" on="1"/>
        <pt x="437" y="642" on="0"/>
        <pt x="530" y="622" on="0"/>
        <pt x="566" y="605" on="1"/>
        <pt x="535" y="505" on="1"/>
        <pt x="501" y="522" on="0"/>
        <pt x="426" y="537" on="0"/>
        <pt x="391" y="537" on="1"/>
        <pt x="351" y="537" on="0"/>
        <pt x="281" y="511" on="0"/>
        <pt x="228" y="456" on="0"/>
        <pt x="198" y="372" on="0"/>
        <pt x="198" y="314" on="1"/>
        <pt x="198" y="208" on="0"/>
        <pt x="291" y="95" on="0"/>
        <pt x="378" y="95" on="1"/>
        <pt x="399" y="95" on="0"/>
        <pt x="433" y="99" on="0"/>
        <pt x="442" y="103" on="1"/>
        <pt x="442" y="240" on="1"/>
        <pt x="343" y="240" on="1"/>
        <pt x="343" y="352" on="1"/>
        <pt x="588" y="352" on="1"/>
        <pt x="588" y="28" on="1"/>
        <pt x="549" y="11" on="0"/>
        <pt x="443" y="-11" on="0"/>
        <pt x="377" y="-11" on="1"/>
        <pt x="305" y="-11" on="0"/>
        <pt x="182" y="31" on="0"/>
        <pt x="90" y="114" on="0"/>
        <pt x="38" y="235" on="0"/>
        <pt x="38" y="314" on="1"/>
        <pt x="38" y="393" on="0"/>
        <pt x="90" y="516" on="0"/>
        <pt x="182" y="599" on="0"/>
        <pt x="305" y="642" on="0"/>
      </contour>
    </TTGlyph>
    <TTGlyph name="Gbreve" xMin="38" yMin="-11" xMax="588" yMax="814">
      <contour>
        <pt x="377" y="642" on="1"/>
        <pt x="437" y="642" on="0"/>
        <pt x="530" y="622" on="0"/>
        <pt x="566" y="605" on="1"/>
        <pt x="535" y="505" on="1"/>
        <pt x="501" y="522" on="0"/>
        <pt x="426" y="537" on="0"/>
        <pt x="391" y="537" on="1"/>
        <pt x="351" y="537" on="0"/>
        <pt x="281" y="511" on="0"/>
        <pt x="228" y="456" on="0"/>
        <pt x="198" y="372" on="0"/>
        <pt x="198" y="314" on="1"/>
        <pt x="198" y="208" on="0"/>
        <pt x="291" y="95" on="0"/>
        <pt x="378" y="95" on="1"/>
        <pt x="399" y="95" on="0"/>
        <pt x="433" y="99" on="0"/>
        <pt x="442" y="103" on="1"/>
        <pt x="442" y="240" on="1"/>
        <pt x="343" y="240" on="1"/>
        <pt x="343" y="352" on="1"/>
        <pt x="588" y="352" on="1"/>
        <pt x="588" y="28" on="1"/>
        <pt x="549" y="11" on="0"/>
        <pt x="443" y="-11" on="0"/>
        <pt x="377" y="-11" on="1"/>
        <pt x="305" y="-11" on="0"/>
        <pt x="182" y="31" on="0"/>
        <pt x="90" y="114" on="0"/>
        <pt x="38" y="235" on="0"/>
        <pt x="38" y="314" on="1"/>
        <pt x="38" y="393" on="0"/>
        <pt x="90" y="516" on="0"/>
        <pt x="182" y="599" on="0"/>
        <pt x="305" y="642" on="0"/>
      </contour>
      <contour>
        <pt x="324" y="814" on="1"/>
        <pt x="325" y="791" on="0"/>
        <pt x="350" y="764" on="0"/>
        <pt x="377" y="764" on="1"/>
        <pt x="426" y="764" on="0"/>
        <pt x="428" y="814" on="1"/>
        <pt x="510" y="814" on="1"/>
        <pt x="510" y="753" on="0"/>
        <pt x="441" y="685" on="0"/>
        <pt x="376" y="685" on="1"/>
        <pt x="340" y="685" on="0"/>
        <pt x="289" y="706" on="0"/>
        <pt x="256" y="741" on="0"/>
        <pt x="241" y="788" on="0"/>
        <pt x="241" y="814" on="1"/>
      </contour>
    </TTGlyph>
    <TTGlyph name="Gcircumflex" xMin="38" yMin="-11" xMax="588" yMax="814">
      <contour>
        <pt x="377" y="642" on="1"/>
        <pt x="437" y="642" on="0"/>
        <pt x="530" y="622" on="0"/>
        <pt x="566" y="605" on="1"/>
        <pt x="535" y="505" on="1"/>
        <pt x="501" y="522" on="0"/>
        <pt x="426" y="537" on="0"/>
        <pt x="391" y="537" on="1"/>
        <pt x="351" y="537" on="0"/>
        <pt x="281" y="511" on="0"/>
        <pt x="228" y="456" on="0"/>
        <pt x="198" y="372" on="0"/>
        <pt x="198" y="314" on="1"/>
        <pt x="198" y="208" on="0"/>
        <pt x="291" y="95" on="0"/>
        <pt x="378" y="95" on="1"/>
        <pt x="399" y="95" on="0"/>
        <pt x="433" y="99" on="0"/>
        <pt x="442" y="103" on="1"/>
        <pt x="442" y="240" on="1"/>
        <pt x="343" y="240" on="1"/>
        <pt x="343" y="352" on="1"/>
        <pt x="588" y="352" on="1"/>
        <pt x="588" y="28" on="1"/>
        <pt x="549" y="11" on="0"/>
        <pt x="443" y="-11" on="0"/>
        <pt x="377" y="-11" on="1"/>
        <pt x="305" y="-11" on="0"/>
        <pt x="182" y="31" on="0"/>
        <pt x="90" y="114" on="0"/>
        <pt x="38" y="235" on="0"/>
        <pt x="38" y="314" on="1"/>
        <pt x="38" y="393" on="0"/>
        <pt x="90" y="516" on="0"/>
        <pt x="182" y="599" on="0"/>
        <pt x="305" y="642" on="0"/>
      </contour>
      <contour>
        <pt x="293" y="814" on="1"/>
        <pt x="402" y="814" on="1"/>
        <pt x="517" y="690" on="1"/>
        <pt x="407" y="690" on="1"/>
        <pt x="347" y="754" on="1"/>
        <pt x="287" y="690" on="1"/>
        <pt x="181" y="690" on="1"/>
      </contour>
    </TTGlyph>
    <TTGlyph name="Gcommaaccent" xMin="38" yMin="-340" xMax="588" yMax="642">
      <contour>
        <pt x="377" y="642" on="1"/>
        <pt x="437" y="642" on="0"/>
        <pt x="530" y="622" on="0"/>
        <pt x="566" y="605" on="1"/>
        <pt x="535" y="505" on="1"/>
        <pt x="501" y="522" on="0"/>
        <pt x="426" y="537" on="0"/>
        <pt x="391" y="537" on="1"/>
        <pt x="351" y="537" on="0"/>
        <pt x="281" y="511" on="0"/>
        <pt x="228" y="456" on="0"/>
        <pt x="198" y="372" on="0"/>
        <pt x="198" y="314" on="1"/>
        <pt x="198" y="208" on="0"/>
        <pt x="291" y="95" on="0"/>
        <pt x="378" y="95" on="1"/>
        <pt x="399" y="95" on="0"/>
        <pt x="433" y="99" on="0"/>
        <pt x="442" y="103" on="1"/>
        <pt x="442" y="240" on="1"/>
        <pt x="343" y="240" on="1"/>
        <pt x="343" y="352" on="1"/>
        <pt x="588" y="352" on="1"/>
        <pt x="588" y="28" on="1"/>
        <pt x="549" y="11" on="0"/>
        <pt x="443" y="-11" on="0"/>
        <pt x="377" y="-11" on="1"/>
        <pt x="305" y="-11" on="0"/>
        <pt x="182" y="31" on="0"/>
        <pt x="90" y="114" on="0"/>
        <pt x="38" y="235" on="0"/>
        <pt x="38" y="314" on="1"/>
        <pt x="38" y="393" on="0"/>
        <pt x="90" y="516" on="0"/>
        <pt x="182" y="599" on="0"/>
        <pt x="305" y="642" on="0"/>
      </contour>
      <contour>
        <pt x="369" y="-203" on="1"/>
        <pt x="341" y="-198" on="0"/>
        <pt x="307" y="-161" on="0"/>
        <pt x="307" y="-133" on="1"/>
        <pt x="307" y="-106" on="0"/>
        <pt x="344" y="-64" on="0"/>
        <pt x="378" y="-64" on="1"/>
        <pt x="391" y="-64" on="0"/>
        <pt x="420" y="-75" on="0"/>
        <pt x="444" y="-99" on="0"/>
        <pt x="460" y="-138" on="0"/>
        <pt x="460" y="-166" on="1"/>
        <pt x="460" y="-195" on="0"/>
        <pt x="440" y="-249" on="0"/>
        <pt x="409" y="-294" on="0"/>
        <pt x="368" y="-330" on="0"/>
        <pt x="347" y="-340" on="1"/>
        <pt x="314" y="-296" on="1"/>
        <pt x="340" y="-282" on="0"/>
        <pt x="381" y="-235" on="0"/>
        <pt x="386" y="-206" on="1"/>
      </contour>
    </TTGlyph>
    <TTGlyph name="Gdotaccent" xMin="38" yMin="-11" xMax="588" yMax="814">
      <contour>
        <pt x="377" y="642" on="1"/>
        <pt x="437" y="642" on="0"/>
        <pt x="530" y="622" on="0"/>
        <pt x="566" y="605" on="1"/>
        <pt x="535" y="505" on="1"/>
        <pt x="501" y="522" on="0"/>
        <pt x="426" y="537" on="0"/>
        <pt x="391" y="537" on="1"/>
        <pt x="351" y="537" on="0"/>
        <pt x="281" y="511" on="0"/>
        <pt x="228" y="456" on="0"/>
        <pt x="198" y="372" on="0"/>
        <pt x="198" y="314" on="1"/>
        <pt x="198" y="208" on="0"/>
        <pt x="291" y="95" on="0"/>
        <pt x="378" y="95" on="1"/>
        <pt x="399" y="95" on="0"/>
        <pt x="433" y="99" on="0"/>
        <pt x="442" y="103" on="1"/>
        <pt x="442" y="240" on="1"/>
        <pt x="343" y="240" on="1"/>
        <pt x="343" y="352" on="1"/>
        <pt x="588" y="352" on="1"/>
        <pt x="588" y="28" on="1"/>
        <pt x="549" y="11" on="0"/>
        <pt x="443" y="-11" on="0"/>
        <pt x="377" y="-11" on="1"/>
        <pt x="305" y="-11" on="0"/>
        <pt x="182" y="31" on="0"/>
        <pt x="90" y="114" on="0"/>
        <pt x="38" y="235" on="0"/>
        <pt x="38" y="314" on="1"/>
        <pt x="38" y="393" on="0"/>
        <pt x="90" y="516" on="0"/>
        <pt x="182" y="599" on="0"/>
        <pt x="305" y="642" on="0"/>
      </contour>
      <contour>
        <pt x="309" y="748" on="1"/>
        <pt x="309" y="776" on="0"/>
        <pt x="348" y="814" on="0"/>
        <pt x="377" y="814" on="1"/>
        <pt x="406" y="814" on="0"/>
        <pt x="444" y="776" on="0"/>
        <pt x="444" y="748" on="1"/>
        <pt x="444" y="719" on="0"/>
        <pt x="406" y="679" on="0"/>
        <pt x="377" y="679" on="1"/>
        <pt x="348" y="679" on="0"/>
        <pt x="309" y="719" on="0"/>
      </contour>
    </TTGlyph>
    <TTGlyph name="Gsmall" xMin="39" yMin="-11" xMax="474" yMax="491">
      <contour>
        <pt x="306" y="97" on="1"/>
        <pt x="315" y="97" on="0"/>
        <pt x="336" y="100" on="0"/>
        <pt x="341" y="103" on="1"/>
        <pt x="341" y="170" on="1"/>
        <pt x="273" y="170" on="1"/>
        <pt x="273" y="275" on="1"/>
        <pt x="474" y="275" on="1"/>
        <pt x="474" y="17" on="1"/>
        <pt x="439" y="3" on="0"/>
        <pt x="347" y="-11" on="0"/>
        <pt x="299" y="-11" on="1"/>
        <pt x="244" y="-11" on="0"/>
        <pt x="149" y="20" on="0"/>
        <pt x="79" y="81" on="0"/>
        <pt x="39" y="173" on="0"/>
        <pt x="39" y="234" on="1"/>
        <pt x="39" y="292" on="0"/>
        <pt x="77" y="387" on="0"/>
        <pt x="146" y="455" on="0"/>
        <pt x="243" y="491" on="0"/>
        <pt x="301" y="491" on="1"/>
        <pt x="343" y="491" on="0"/>
        <pt x="422" y="476" on="0"/>
        <pt x="460" y="457" on="1"/>
        <pt x="432" y="357" on="1"/>
        <pt x="407" y="370" on="0"/>
        <pt x="349" y="384" on="0"/>
        <pt x="320" y="384" on="1"/>
        <pt x="255" y="384" on="0"/>
        <pt x="189" y="306" on="0"/>
        <pt x="189" y="237" on="1"/>
        <pt x="189" y="198" on="0"/>
        <pt x="209" y="144" on="0"/>
        <pt x="241" y="111" on="0"/>
        <pt x="283" y="97" on="0"/>
      </contour>
    </TTGlyph>
    <TTGlyph name="H" xMin="66" yMin="0" xMax="589" yMax="630">
      <contour>
        <pt x="66" y="0" on="1"/>
        <pt x="66" y="630" on="1"/>
        <pt x="218" y="630" on="1"/>
        <pt x="218" y="385" on="1"/>
        <pt x="437" y="385" on="1"/>
        <pt x="437" y="630" on="1"/>
        <pt x="589" y="630" on="1"/>
        <pt x="589" y="0" on="1"/>
        <pt x="437" y="0" on="1"/>
        <pt x="437" y="267" on="1"/>
        <pt x="218" y="267" on="1"/>
        <pt x="218" y="0" on="1"/>
      </contour>
    </TTGlyph>
    <TTGlyph name="Ha.tm" xMin="-1" yMin="-298" xMax="1383" yMax="515">
      <contour>
        <pt x="885" y="515" on="1"/>
        <pt x="915" y="515" on="0"/>
        <pt x="964" y="500" on="0"/>
        <pt x="1000" y="476" on="0"/>
        <pt x="1024" y="445" on="0"/>
        <pt x="1031" y="429" on="1"/>
        <pt x="1042" y="464" on="0"/>
        <pt x="1107" y="515" on="0"/>
        <pt x="1161" y="515" on="1"/>
        <pt x="1204" y="515" on="0"/>
        <pt x="1285" y="477" on="0"/>
        <pt x="1346" y="397" on="0"/>
        <pt x="1383" y="276" on="0"/>
        <pt x="1383" y="193" on="1"/>
        <pt x="1383" y="22" on="0"/>
        <pt x="1200" y="-167" on="0"/>
        <pt x="1018" y="-167" on="1"/>
        <pt x="183" y="-167" on="1"/>
        <pt x="134" y="-167" on="0"/>
        <pt x="134" y="-210" on="1"/>
        <pt x="134" y="-222" on="0"/>
        <pt x="141" y="-247" on="0"/>
        <pt x="147" y="-261" on="1"/>
        <pt x="29" y="-298" on="1"/>
        <pt x="17" y="-277" on="0"/>
        <pt x="-1" y="-221" on="0"/>
        <pt x="-1" y="-194" on="1"/>
        <pt x="-1" y="-160" on="0"/>
        <pt x="22" y="-110" on="0"/>
        <pt x="59" y="-79" on="0"/>
        <pt x="109" y="-64" on="0"/>
        <pt x="136" y="-64" on="1"/>
        <pt x="1030" y="-64" on="1"/>
        <pt x="1091" y="-64" on="0"/>
        <pt x="1174" y="-27" on="0"/>
        <pt x="1224" y="41" on="0"/>
        <pt x="1245" y="137" on="0"/>
        <pt x="1245" y="196" on="1"/>
        <pt x="1245" y="296" on="0"/>
        <pt x="1197" y="405" on="0"/>
        <pt x="1152" y="405" on="1"/>
        <pt x="1124" y="405" on="0"/>
        <pt x="1098" y="369" on="0"/>
        <pt x="1098" y="338" on="1"/>
        <pt x="1098" y="0" on="1"/>
        <pt x="963" y="0" on="1"/>
        <pt x="963" y="336" on="1"/>
        <pt x="963" y="368" on="0"/>
        <pt x="933" y="405" on="0"/>
        <pt x="904" y="405" on="1"/>
        <pt x="875" y="405" on="0"/>
        <pt x="848" y="367" on="0"/>
        <pt x="848" y="335" on="1"/>
        <pt x="848" y="0" on="1"/>
        <pt x="484" y="0" on="1"/>
        <pt x="452" y="76" on="1"/>
        <pt x="469" y="106" on="0"/>
        <pt x="488" y="181" on="0"/>
        <pt x="488" y="232" on="1"/>
        <pt x="488" y="271" on="0"/>
        <pt x="465" y="335" on="0"/>
        <pt x="423" y="382" on="0"/>
        <pt x="362" y="407" on="0"/>
        <pt x="325" y="407" on="1"/>
        <pt x="256" y="407" on="0"/>
        <pt x="170" y="335" on="0"/>
        <pt x="159" y="277" on="1"/>
        <pt x="194" y="306" on="0"/>
        <pt x="246" y="306" on="1"/>
        <pt x="280" y="306" on="0"/>
        <pt x="339" y="284" on="0"/>
        <pt x="382" y="244" on="0"/>
        <pt x="407" y="187" on="0"/>
        <pt x="407" y="152" on="1"/>
        <pt x="407" y="114" on="0"/>
        <pt x="378" y="54" on="0"/>
        <pt x="329" y="12" on="0"/>
        <pt x="263" y="-11" on="0"/>
        <pt x="227" y="-11" on="1"/>
        <pt x="183" y="-11" on="0"/>
        <pt x="110" y="21" on="0"/>
        <pt x="59" y="81" on="0"/>
        <pt x="31" y="168" on="0"/>
        <pt x="31" y="224" on="1"/>
        <pt x="31" y="290" on="0"/>
        <pt x="75" y="398" on="0"/>
        <pt x="155" y="474" on="0"/>
        <pt x="264" y="515" on="0"/>
        <pt x="330" y="515" on="1"/>
        <pt x="393" y="515" on="0"/>
        <pt x="501" y="476" on="0"/>
        <pt x="580" y="405" on="0"/>
        <pt x="625" y="305" on="0"/>
        <pt x="625" y="243" on="1"/>
        <pt x="625" y="196" on="0"/>
        <pt x="611" y="131" on="0"/>
        <pt x="601" y="103" on="1"/>
        <pt x="713" y="103" on="1"/>
        <pt x="713" y="336" on="1"/>
        <pt x="713" y="384" on="0"/>
        <pt x="741" y="452" on="0"/>
        <pt x="788" y="495" on="0"/>
        <pt x="850" y="515" on="0"/>
      </contour>
      <contour>
        <pt x="220" y="210" on="1"/>
        <pt x="201" y="210" on="0"/>
        <pt x="173" y="190" on="0"/>
        <pt x="163" y="173" on="1"/>
        <pt x="163" y="137" on="0"/>
        <pt x="196" y="94" on="0"/>
        <pt x="226" y="94" on="1"/>
        <pt x="247" y="94" on="0"/>
        <pt x="278" y="125" on="0"/>
        <pt x="278" y="152" on="1"/>
        <pt x="278" y="180" on="0"/>
        <pt x="245" y="210" on="0"/>
      </contour>
    </TTGlyph>
    <TTGlyph name="HaMatraI.tm" xMin="-1" yMin="-298" xMax="1605" yMax="759">
      <contour>
        <pt x="1367" y="759" on="1"/>
        <pt x="1421" y="759" on="0"/>
        <pt x="1509" y="728" on="0"/>
        <pt x="1571" y="668" on="0"/>
        <pt x="1605" y="583" on="0"/>
        <pt x="1605" y="529" on="1"/>
        <pt x="1605" y="0" on="1"/>
        <pt x="1469" y="0" on="1"/>
        <pt x="1469" y="524" on="1"/>
        <pt x="1469" y="584" on="0"/>
        <pt x="1415" y="649" on="0"/>
        <pt x="1364" y="649" on="1"/>
        <pt x="1318" y="649" on="0"/>
        <pt x="1267" y="598" on="0"/>
        <pt x="1267" y="556" on="1"/>
        <pt x="1267" y="533" on="0"/>
        <pt x="1285" y="478" on="0"/>
        <pt x="1308" y="443" on="1"/>
        <pt x="1323" y="420" on="0"/>
        <pt x="1350" y="368" on="0"/>
        <pt x="1371" y="307" on="0"/>
        <pt x="1384" y="235" on="0"/>
        <pt x="1384" y="193" on="1"/>
        <pt x="1384" y="22" on="0"/>
        <pt x="1201" y="-167" on="0"/>
        <pt x="1019" y="-167" on="1"/>
        <pt x="183" y="-167" on="1"/>
        <pt x="134" y="-167" on="0"/>
        <pt x="134" y="-210" on="1"/>
        <pt x="134" y="-222" on="0"/>
        <pt x="141" y="-247" on="0"/>
        <pt x="147" y="-261" on="1"/>
        <pt x="29" y="-298" on="1"/>
        <pt x="17" y="-277" on="0"/>
        <pt x="-1" y="-221" on="0"/>
        <pt x="-1" y="-194" on="1"/>
        <pt x="-1" y="-160" on="0"/>
        <pt x="22" y="-110" on="0"/>
        <pt x="59" y="-79" on="0"/>
        <pt x="109" y="-64" on="0"/>
        <pt x="136" y="-64" on="1"/>
        <pt x="1031" y="-64" on="1"/>
        <pt x="1092" y="-64" on="0"/>
        <pt x="1175" y="-27" on="0"/>
        <pt x="1225" y="41" on="0"/>
        <pt x="1246" y="137" on="0"/>
        <pt x="1246" y="196" on="1"/>
        <pt x="1246" y="296" on="0"/>
        <pt x="1198" y="405" on="0"/>
        <pt x="1152" y="405" on="1"/>
        <pt x="1123" y="405" on="0"/>
        <pt x="1098" y="369" on="0"/>
        <pt x="1098" y="338" on="1"/>
        <pt x="1098" y="0" on="1"/>
        <pt x="963" y="0" on="1"/>
        <pt x="963" y="336" on="1"/>
        <pt x="963" y="368" on="0"/>
        <pt x="933" y="405" on="0"/>
        <pt x="904" y="405" on="1"/>
        <pt x="875" y="405" on="0"/>
        <pt x="848" y="367" on="0"/>
        <pt x="848" y="335" on="1"/>
        <pt x="848" y="0" on="1"/>
        <pt x="484" y="0" on="1"/>
        <pt x="452" y="76" on="1"/>
        <pt x="469" y="106" on="0"/>
        <pt x="488" y="181" on="0"/>
        <pt x="488" y="232" on="1"/>
        <pt x="488" y="271" on="0"/>
        <pt x="465" y="335" on="0"/>
        <pt x="423" y="382" on="0"/>
        <pt x="362" y="407" on="0"/>
        <pt x="325" y="407" on="1"/>
        <pt x="256" y="407" on="0"/>
        <pt x="170" y="335" on="0"/>
        <pt x="159" y="277" on="1"/>
        <pt x="194" y="306" on="0"/>
        <pt x="246" y="306" on="1"/>
        <pt x="280" y="306" on="0"/>
        <pt x="339" y="284" on="0"/>
        <pt x="382" y="244" on="0"/>
        <pt x="407" y="187" on="0"/>
        <pt x="407" y="152" on="1"/>
        <pt x="407" y="114" on="0"/>
        <pt x="378" y="54" on="0"/>
        <pt x="329" y="12" on="0"/>
        <pt x="263" y="-11" on="0"/>
        <pt x="227" y="-11" on="1"/>
        <pt x="183" y="-11" on="0"/>
        <pt x="110" y="21" on="0"/>
        <pt x="59" y="81" on="0"/>
        <pt x="31" y="168" on="0"/>
        <pt x="31" y="224" on="1"/>
        <pt x="31" y="290" on="0"/>
        <pt x="75" y="398" on="0"/>
        <pt x="155" y="474" on="0"/>
        <pt x="264" y="515" on="0"/>
        <pt x="330" y="515" on="1"/>
        <pt x="393" y="515" on="0"/>
        <pt x="501" y="476" on="0"/>
        <pt x="580" y="405" on="0"/>
        <pt x="625" y="305" on="0"/>
        <pt x="625" y="243" on="1"/>
        <pt x="625" y="196" on="0"/>
        <pt x="611" y="131" on="0"/>
        <pt x="601" y="103" on="1"/>
        <pt x="713" y="103" on="1"/>
        <pt x="713" y="336" on="1"/>
        <pt x="713" y="384" on="0"/>
        <pt x="741" y="452" on="0"/>
        <pt x="788" y="495" on="0"/>
        <pt x="850" y="515" on="0"/>
        <pt x="885" y="515" on="1"/>
        <pt x="915" y="515" on="0"/>
        <pt x="964" y="500" on="0"/>
        <pt x="1000" y="476" on="0"/>
        <pt x="1024" y="445" on="0"/>
        <pt x="1031" y="429" on="1"/>
        <pt x="1042" y="459" on="0"/>
        <pt x="1097" y="505" on="0"/>
        <pt x="1145" y="509" on="1"/>
        <pt x="1135" y="535" on="0"/>
        <pt x="1135" y="568" on="1"/>
        <pt x="1135" y="608" on="0"/>
        <pt x="1168" y="678" on="0"/>
        <pt x="1228" y="729" on="0"/>
        <pt x="1314" y="759" on="0"/>
      </contour>
      <contour>
        <pt x="220" y="210" on="1"/>
        <pt x="201" y="210" on="0"/>
        <pt x="173" y="190" on="0"/>
        <pt x="163" y="173" on="1"/>
        <pt x="163" y="137" on="0"/>
        <pt x="196" y="94" on="0"/>
        <pt x="226" y="94" on="1"/>
        <pt x="247" y="94" on="0"/>
        <pt x="278" y="125" on="0"/>
        <pt x="278" y="152" on="1"/>
        <pt x="278" y="180" on="0"/>
        <pt x="245" y="210" on="0"/>
      </contour>
    </TTGlyph>
    <TTGlyph name="HaMatraIi.tm" xMin="-1" yMin="-298" xMax="1483" yMax="802">
      <contour>
        <pt x="1302" y="802" on="1"/>
        <pt x="1388" y="802" on="0"/>
        <pt x="1483" y="725" on="0"/>
        <pt x="1483" y="667" on="1"/>
        <pt x="1483" y="613" on="0"/>
        <pt x="1411" y="547" on="0"/>
        <pt x="1354" y="547" on="1"/>
        <pt x="1326" y="547" on="0"/>
        <pt x="1281" y="564" on="0"/>
        <pt x="1250" y="594" on="0"/>
        <pt x="1233" y="634" on="0"/>
        <pt x="1233" y="656" on="1"/>
        <pt x="1233" y="675" on="0"/>
        <pt x="1246" y="708" on="0"/>
        <pt x="1256" y="720" on="1"/>
        <pt x="1230" y="710" on="0"/>
        <pt x="1192" y="657" on="0"/>
        <pt x="1192" y="614" on="1"/>
        <pt x="1192" y="590" on="0"/>
        <pt x="1209" y="550" on="0"/>
        <pt x="1237" y="513" on="0"/>
        <pt x="1273" y="479" on="0"/>
        <pt x="1292" y="462" on="1"/>
        <pt x="1310" y="445" on="0"/>
        <pt x="1343" y="397" on="0"/>
        <pt x="1368" y="332" on="0"/>
        <pt x="1383" y="247" on="0"/>
        <pt x="1383" y="193" on="1"/>
        <pt x="1383" y="22" on="0"/>
        <pt x="1200" y="-167" on="0"/>
        <pt x="1018" y="-167" on="1"/>
        <pt x="183" y="-167" on="1"/>
        <pt x="134" y="-167" on="0"/>
        <pt x="134" y="-210" on="1"/>
        <pt x="134" y="-222" on="0"/>
        <pt x="141" y="-247" on="0"/>
        <pt x="147" y="-261" on="1"/>
        <pt x="29" y="-298" on="1"/>
        <pt x="17" y="-277" on="0"/>
        <pt x="-1" y="-221" on="0"/>
        <pt x="-1" y="-194" on="1"/>
        <pt x="-1" y="-160" on="0"/>
        <pt x="22" y="-110" on="0"/>
        <pt x="59" y="-79" on="0"/>
        <pt x="109" y="-64" on="0"/>
        <pt x="136" y="-64" on="1"/>
        <pt x="1030" y="-64" on="1"/>
        <pt x="1091" y="-64" on="0"/>
        <pt x="1174" y="-27" on="0"/>
        <pt x="1224" y="41" on="0"/>
        <pt x="1245" y="137" on="0"/>
        <pt x="1245" y="196" on="1"/>
        <pt x="1245" y="296" on="0"/>
        <pt x="1197" y="405" on="0"/>
        <pt x="1152" y="405" on="1"/>
        <pt x="1124" y="405" on="0"/>
        <pt x="1098" y="369" on="0"/>
        <pt x="1098" y="338" on="1"/>
        <pt x="1098" y="0" on="1"/>
        <pt x="963" y="0" on="1"/>
        <pt x="963" y="336" on="1"/>
        <pt x="963" y="368" on="0"/>
        <pt x="933" y="405" on="0"/>
        <pt x="904" y="405" on="1"/>
        <pt x="875" y="405" on="0"/>
        <pt x="848" y="367" on="0"/>
        <pt x="848" y="335" on="1"/>
        <pt x="848" y="0" on="1"/>
        <pt x="484" y="0" on="1"/>
        <pt x="452" y="76" on="1"/>
        <pt x="469" y="106" on="0"/>
        <pt x="488" y="181" on="0"/>
        <pt x="488" y="232" on="1"/>
        <pt x="488" y="271" on="0"/>
        <pt x="465" y="335" on="0"/>
        <pt x="422" y="382" on="0"/>
        <pt x="362" y="407" on="0"/>
        <pt x="325" y="407" on="1"/>
        <pt x="257" y="407" on="0"/>
        <pt x="170" y="335" on="0"/>
        <pt x="159" y="277" on="1"/>
        <pt x="194" y="306" on="0"/>
        <pt x="246" y="306" on="1"/>
        <pt x="280" y="306" on="0"/>
        <pt x="339" y="284" on="0"/>
        <pt x="382" y="244" on="0"/>
        <pt x="407" y="187" on="0"/>
        <pt x="407" y="152" on="1"/>
        <pt x="407" y="114" on="0"/>
        <pt x="378" y="54" on="0"/>
        <pt x="329" y="12" on="0"/>
        <pt x="263" y="-11" on="0"/>
        <pt x="227" y="-11" on="1"/>
        <pt x="183" y="-11" on="0"/>
        <pt x="110" y="21" on="0"/>
        <pt x="59" y="81" on="0"/>
        <pt x="31" y="168" on="0"/>
        <pt x="31" y="224" on="1"/>
        <pt x="31" y="290" on="0"/>
        <pt x="75" y="398" on="0"/>
        <pt x="155" y="474" on="0"/>
        <pt x="265" y="515" on="0"/>
        <pt x="330" y="515" on="1"/>
        <pt x="393" y="515" on="0"/>
        <pt x="501" y="476" on="0"/>
        <pt x="580" y="405" on="0"/>
        <pt x="625" y="305" on="0"/>
        <pt x="625" y="243" on="1"/>
        <pt x="625" y="196" on="0"/>
        <pt x="611" y="131" on="0"/>
        <pt x="601" y="103" on="1"/>
        <pt x="713" y="103" on="1"/>
        <pt x="713" y="336" on="1"/>
        <pt x="713" y="384" on="0"/>
        <pt x="741" y="452" on="0"/>
        <pt x="788" y="495" on="0"/>
        <pt x="850" y="515" on="0"/>
        <pt x="885" y="515" on="1"/>
        <pt x="915" y="515" on="0"/>
        <pt x="964" y="500" on="0"/>
        <pt x="1000" y="476" on="0"/>
        <pt x="1024" y="445" on="0"/>
        <pt x="1031" y="429" on="1"/>
        <pt x="1039" y="454" on="0"/>
        <pt x="1080" y="494" on="0"/>
        <pt x="1113" y="503" on="1"/>
        <pt x="1094" y="525" on="0"/>
        <pt x="1073" y="583" on="0"/>
        <pt x="1073" y="613" on="1"/>
        <pt x="1073" y="656" on="0"/>
        <pt x="1107" y="726" on="0"/>
        <pt x="1168" y="776" on="0"/>
        <pt x="1252" y="802" on="0"/>
      </contour>
      <contour>
        <pt x="220" y="210" on="1"/>
        <pt x="201" y="210" on="0"/>
        <pt x="173" y="190" on="0"/>
        <pt x="163" y="173" on="1"/>
        <pt x="163" y="137" on="0"/>
        <pt x="196" y="94" on="0"/>
        <pt x="226" y="94" on="1"/>
        <pt x="247" y="94" on="0"/>
        <pt x="278" y="125" on="0"/>
        <pt x="278" y="152" on="1"/>
        <pt x="278" y="180" on="0"/>
        <pt x="245" y="210" on="0"/>
      </contour>
      <contour>
        <pt x="1392" y="669" on="1"/>
        <pt x="1392" y="689" on="0"/>
        <pt x="1367" y="714" on="0"/>
        <pt x="1347" y="716" on="1"/>
        <pt x="1335" y="709" on="0"/>
        <pt x="1320" y="687" on="0"/>
        <pt x="1320" y="670" on="1"/>
        <pt x="1320" y="653" on="0"/>
        <pt x="1340" y="632" on="0"/>
        <pt x="1357" y="632" on="1"/>
        <pt x="1372" y="632" on="0"/>
        <pt x="1392" y="652" on="0"/>
      </contour>
    </TTGlyph>
    <TTGlyph name="HaMatraU.tm" xMin="-1" yMin="-298" xMax="1742" yMax="515">
      <contour>
        <pt x="452" y="76" on="1"/>
        <pt x="469" y="106" on="0"/>
        <pt x="488" y="181" on="0"/>
        <pt x="488" y="232" on="1"/>
        <pt x="488" y="271" on="0"/>
        <pt x="465" y="335" on="0"/>
        <pt x="422" y="382" on="0"/>
        <pt x="362" y="407" on="0"/>
        <pt x="325" y="407" on="1"/>
        <pt x="257" y="407" on="0"/>
        <pt x="171" y="335" on="0"/>
        <pt x="160" y="278" on="1"/>
        <pt x="194" y="306" on="0"/>
        <pt x="246" y="306" on="1"/>
        <pt x="280" y="306" on="0"/>
        <pt x="339" y="284" on="0"/>
        <pt x="382" y="244" on="0"/>
        <pt x="407" y="187" on="0"/>
        <pt x="407" y="152" on="1"/>
        <pt x="407" y="114" on="0"/>
        <pt x="378" y="54" on="0"/>
        <pt x="329" y="12" on="0"/>
        <pt x="263" y="-11" on="0"/>
        <pt x="227" y="-11" on="1"/>
        <pt x="183" y="-11" on="0"/>
        <pt x="110" y="21" on="0"/>
        <pt x="59" y="81" on="0"/>
        <pt x="31" y="168" on="0"/>
        <pt x="31" y="224" on="1"/>
        <pt x="31" y="290" on="0"/>
        <pt x="75" y="398" on="0"/>
        <pt x="155" y="474" on="0"/>
        <pt x="265" y="515" on="0"/>
        <pt x="330" y="515" on="1"/>
        <pt x="393" y="515" on="0"/>
        <pt x="500" y="476" on="0"/>
        <pt x="580" y="405" on="0"/>
        <pt x="625" y="305" on="0"/>
        <pt x="625" y="243" on="1"/>
        <pt x="625" y="196" on="0"/>
        <pt x="611" y="130" on="0"/>
        <pt x="601" y="103" on="1"/>
        <pt x="713" y="103" on="1"/>
        <pt x="713" y="336" on="1"/>
        <pt x="713" y="384" on="0"/>
        <pt x="741" y="452" on="0"/>
        <pt x="788" y="495" on="0"/>
        <pt x="850" y="515" on="0"/>
        <pt x="885" y="515" on="1"/>
        <pt x="915" y="515" on="0"/>
        <pt x="964" y="500" on="0"/>
        <pt x="1000" y="476" on="0"/>
        <pt x="1024" y="445" on="0"/>
        <pt x="1031" y="429" on="1"/>
        <pt x="1042" y="461" on="0"/>
        <pt x="1107" y="505" on="0"/>
        <pt x="1161" y="505" on="1"/>
        <pt x="1544" y="505" on="1"/>
        <pt x="1638" y="505" on="0"/>
        <pt x="1742" y="428" on="0"/>
        <pt x="1742" y="360" on="1"/>
        <pt x="1742" y="300" on="0"/>
        <pt x="1660" y="226" on="0"/>
        <pt x="1593" y="226" on="1"/>
        <pt x="1528" y="226" on="0"/>
        <pt x="1448" y="295" on="0"/>
        <pt x="1448" y="351" on="1"/>
        <pt x="1448" y="388" on="0"/>
        <pt x="1469" y="415" on="1"/>
        <pt x="1318" y="415" on="1"/>
        <pt x="1350" y="378" on="0"/>
        <pt x="1383" y="265" on="0"/>
        <pt x="1383" y="193" on="1"/>
        <pt x="1383" y="22" on="0"/>
        <pt x="1200" y="-167" on="0"/>
        <pt x="1018" y="-167" on="1"/>
        <pt x="183" y="-167" on="1"/>
        <pt x="134" y="-167" on="0"/>
        <pt x="134" y="-210" on="1"/>
        <pt x="134" y="-222" on="0"/>
        <pt x="141" y="-247" on="0"/>
        <pt x="147" y="-261" on="1"/>
        <pt x="29" y="-298" on="1"/>
        <pt x="17" y="-277" on="0"/>
        <pt x="-1" y="-221" on="0"/>
        <pt x="-1" y="-194" on="1"/>
        <pt x="-1" y="-160" on="0"/>
        <pt x="22" y="-110" on="0"/>
        <pt x="59" y="-79" on="0"/>
        <pt x="109" y="-64" on="0"/>
        <pt x="136" y="-64" on="1"/>
        <pt x="1030" y="-64" on="1"/>
        <pt x="1091" y="-64" on="0"/>
        <pt x="1174" y="-27" on="0"/>
        <pt x="1224" y="41" on="0"/>
        <pt x="1245" y="137" on="0"/>
        <pt x="1245" y="196" on="1"/>
        <pt x="1245" y="294" on="0"/>
        <pt x="1197" y="402" on="0"/>
        <pt x="1152" y="402" on="1"/>
        <pt x="1124" y="402" on="0"/>
        <pt x="1098" y="367" on="0"/>
        <pt x="1098" y="337" on="1"/>
        <pt x="1098" y="0" on="1"/>
        <pt x="963" y="0" on="1"/>
        <pt x="963" y="336" on="1"/>
        <pt x="963" y="368" on="0"/>
        <pt x="933" y="405" on="0"/>
        <pt x="904" y="405" on="1"/>
        <pt x="875" y="405" on="0"/>
        <pt x="848" y="367" on="0"/>
        <pt x="848" y="335" on="1"/>
        <pt x="848" y="0" on="1"/>
        <pt x="484" y="0" on="1"/>
      </contour>
      <contour>
        <pt x="1575" y="412" on="1"/>
        <pt x="1564" y="404" on="0"/>
        <pt x="1550" y="376" on="0"/>
        <pt x="1550" y="360" on="1"/>
        <pt x="1550" y="340" on="0"/>
        <pt x="1575" y="316" on="0"/>
        <pt x="1595" y="316" on="1"/>
        <pt x="1614" y="316" on="0"/>
        <pt x="1637" y="340" on="0"/>
        <pt x="1637" y="360" on="1"/>
        <pt x="1637" y="384" on="0"/>
        <pt x="1603" y="412" on="0"/>
        <pt x="1577" y="412" on="1"/>
      </contour>
      <contour>
        <pt x="220" y="210" on="1"/>
        <pt x="201" y="210" on="0"/>
        <pt x="173" y="190" on="0"/>
        <pt x="163" y="173" on="1"/>
        <pt x="163" y="137" on="0"/>
        <pt x="196" y="94" on="0"/>
        <pt x="226" y="94" on="1"/>
        <pt x="247" y="94" on="0"/>
        <pt x="278" y="125" on="0"/>
        <pt x="278" y="152" on="1"/>
        <pt x="278" y="180" on="0"/>
        <pt x="245" y="210" on="0"/>
      </contour>
    </TTGlyph>
    <TTGlyph name="HaMatraUu.tm" xMin="-1" yMin="-298" xMax="1945" yMax="631">
      <contour>
        <pt x="452" y="76" on="1"/>
        <pt x="469" y="106" on="0"/>
        <pt x="488" y="181" on="0"/>
        <pt x="488" y="232" on="1"/>
        <pt x="488" y="271" on="0"/>
        <pt x="465" y="335" on="0"/>
        <pt x="422" y="382" on="0"/>
        <pt x="362" y="407" on="0"/>
        <pt x="325" y="407" on="1"/>
        <pt x="257" y="407" on="0"/>
        <pt x="171" y="335" on="0"/>
        <pt x="160" y="278" on="1"/>
        <pt x="194" y="306" on="0"/>
        <pt x="246" y="306" on="1"/>
        <pt x="280" y="306" on="0"/>
        <pt x="339" y="284" on="0"/>
        <pt x="382" y="244" on="0"/>
        <pt x="407" y="187" on="0"/>
        <pt x="407" y="152" on="1"/>
        <pt x="407" y="114" on="0"/>
        <pt x="378" y="54" on="0"/>
        <pt x="329" y="12" on="0"/>
        <pt x="263" y="-11" on="0"/>
        <pt x="227" y="-11" on="1"/>
        <pt x="183" y="-11" on="0"/>
        <pt x="110" y="21" on="0"/>
        <pt x="59" y="81" on="0"/>
        <pt x="31" y="168" on="0"/>
        <pt x="31" y="224" on="1"/>
        <pt x="31" y="290" on="0"/>
        <pt x="75" y="398" on="0"/>
        <pt x="155" y="474" on="0"/>
        <pt x="265" y="515" on="0"/>
        <pt x="330" y="515" on="1"/>
        <pt x="393" y="515" on="0"/>
        <pt x="500" y="476" on="0"/>
        <pt x="580" y="405" on="0"/>
        <pt x="625" y="305" on="0"/>
        <pt x="625" y="243" on="1"/>
        <pt x="625" y="196" on="0"/>
        <pt x="611" y="130" on="0"/>
        <pt x="601" y="103" on="1"/>
        <pt x="713" y="103" on="1"/>
        <pt x="713" y="336" on="1"/>
        <pt x="713" y="384" on="0"/>
        <pt x="741" y="452" on="0"/>
        <pt x="788" y="495" on="0"/>
        <pt x="850" y="515" on="0"/>
        <pt x="885" y="515" on="1"/>
        <pt x="915" y="515" on="0"/>
        <pt x="964" y="500" on="0"/>
        <pt x="1000" y="476" on="0"/>
        <pt x="1024" y="445" on="0"/>
        <pt x="1031" y="429" on="1"/>
        <pt x="1042" y="461" on="0"/>
        <pt x="1107" y="505" on="0"/>
        <pt x="1161" y="505" on="1"/>
        <pt x="1169" y="505" on="1"/>
        <pt x="1474" y="505" on="1"/>
        <pt x="1505" y="562" on="0"/>
        <pt x="1619" y="631" on="0"/>
        <pt x="1689" y="631" on="1"/>
        <pt x="1747" y="631" on="0"/>
        <pt x="1841" y="596" on="0"/>
        <pt x="1908" y="533" on="0"/>
        <pt x="1945" y="445" on="0"/>
        <pt x="1945" y="391" on="1"/>
        <pt x="1945" y="341" on="0"/>
        <pt x="1917" y="260" on="0"/>
        <pt x="1873" y="196" on="0"/>
        <pt x="1818" y="147" on="0"/>
        <pt x="1791" y="131" on="1"/>
        <pt x="1720" y="216" on="1"/>
        <pt x="1740" y="229" on="0"/>
        <pt x="1777" y="263" on="0"/>
        <pt x="1805" y="306" on="0"/>
        <pt x="1822" y="359" on="0"/>
        <pt x="1822" y="391" on="1"/>
        <pt x="1822" y="456" on="0"/>
        <pt x="1751" y="537" on="0"/>
        <pt x="1685" y="537" on="1"/>
        <pt x="1653" y="537" on="0"/>
        <pt x="1599" y="514" on="0"/>
        <pt x="1582" y="495" on="1"/>
        <pt x="1656" y="491" on="0"/>
        <pt x="1731" y="420" on="0"/>
        <pt x="1731" y="367" on="1"/>
        <pt x="1731" y="341" on="0"/>
        <pt x="1710" y="295" on="0"/>
        <pt x="1672" y="261" on="0"/>
        <pt x="1620" y="241" on="0"/>
        <pt x="1589" y="241" on="1"/>
        <pt x="1554" y="241" on="0"/>
        <pt x="1500" y="263" on="0"/>
        <pt x="1462" y="301" on="0"/>
        <pt x="1443" y="350" on="0"/>
        <pt x="1443" y="376" on="1"/>
        <pt x="1443" y="388" on="0"/>
        <pt x="1445" y="410" on="0"/>
        <pt x="1447" y="420" on="1"/>
        <pt x="1314" y="420" on="1"/>
        <pt x="1347" y="383" on="0"/>
        <pt x="1383" y="268" on="0"/>
        <pt x="1383" y="193" on="1"/>
        <pt x="1383" y="22" on="0"/>
        <pt x="1200" y="-167" on="0"/>
        <pt x="1018" y="-167" on="1"/>
        <pt x="183" y="-167" on="1"/>
        <pt x="134" y="-167" on="0"/>
        <pt x="134" y="-210" on="1"/>
        <pt x="134" y="-222" on="0"/>
        <pt x="141" y="-247" on="0"/>
        <pt x="147" y="-261" on="1"/>
        <pt x="29" y="-298" on="1"/>
        <pt x="17" y="-277" on="0"/>
        <pt x="-1" y="-221" on="0"/>
        <pt x="-1" y="-194" on="1"/>
        <pt x="-1" y="-160" on="0"/>
        <pt x="22" y="-110" on="0"/>
        <pt x="59" y="-79" on="0"/>
        <pt x="109" y="-64" on="0"/>
        <pt x="136" y="-64" on="1"/>
        <pt x="1030" y="-64" on="1"/>
        <pt x="1091" y="-64" on="0"/>
        <pt x="1174" y="-27" on="0"/>
        <pt x="1224" y="41" on="0"/>
        <pt x="1245" y="137" on="0"/>
        <pt x="1245" y="196" on="1"/>
        <pt x="1245" y="294" on="0"/>
        <pt x="1197" y="402" on="0"/>
        <pt x="1152" y="402" on="1"/>
        <pt x="1124" y="402" on="0"/>
        <pt x="1098" y="367" on="0"/>
        <pt x="1098" y="337" on="1"/>
        <pt x="1098" y="0" on="1"/>
        <pt x="963" y="0" on="1"/>
        <pt x="963" y="336" on="1"/>
        <pt x="963" y="368" on="0"/>
        <pt x="933" y="405" on="0"/>
        <pt x="904" y="405" on="1"/>
        <pt x="875" y="405" on="0"/>
        <pt x="848" y="367" on="0"/>
        <pt x="848" y="335" on="1"/>
        <pt x="848" y="0" on="1"/>
        <pt x="484" y="0" on="1"/>
      </contour>
      <contour>
        <pt x="1554" y="414" on="1"/>
        <pt x="1549" y="397" on="0"/>
        <pt x="1549" y="381" on="1"/>
        <pt x="1549" y="359" on="0"/>
        <pt x="1571" y="332" on="0"/>
        <pt x="1591" y="332" on="1"/>
        <pt x="1608" y="332" on="0"/>
        <pt x="1627" y="351" on="0"/>
        <pt x="1627" y="368" on="1"/>
        <pt x="1627" y="391" on="0"/>
        <pt x="1593" y="414" on="0"/>
        <pt x="1562" y="414" on="1"/>
      </contour>
      <contour>
        <pt x="220" y="210" on="1"/>
        <pt x="201" y="210" on="0"/>
        <pt x="173" y="190" on="0"/>
        <pt x="163" y="173" on="1"/>
        <pt x="163" y="137" on="0"/>
        <pt x="196" y="94" on="0"/>
        <pt x="226" y="94" on="1"/>
        <pt x="247" y="94" on="0"/>
        <pt x="278" y="125" on="0"/>
        <pt x="278" y="152" on="1"/>
        <pt x="278" y="180" on="0"/>
        <pt x="245" y="210" on="0"/>
      </contour>
    </TTGlyph>
    <TTGlyph name="HaPulli.tm" xMin="-1" yMin="-298" xMax="1383" yMax="723">
      <contour>
        <pt x="885" y="515" on="1"/>
        <pt x="915" y="515" on="0"/>
        <pt x="964" y="500" on="0"/>
        <pt x="1000" y="476" on="0"/>
        <pt x="1024" y="445" on="0"/>
        <pt x="1031" y="429" on="1"/>
        <pt x="1042" y="464" on="0"/>
        <pt x="1107" y="515" on="0"/>
        <pt x="1161" y="515" on="1"/>
        <pt x="1204" y="515" on="0"/>
        <pt x="1285" y="477" on="0"/>
        <pt x="1346" y="397" on="0"/>
        <pt x="1383" y="276" on="0"/>
        <pt x="1383" y="193" on="1"/>
        <pt x="1383" y="22" on="0"/>
        <pt x="1200" y="-167" on="0"/>
        <pt x="1018" y="-167" on="1"/>
        <pt x="183" y="-167" on="1"/>
        <pt x="134" y="-167" on="0"/>
        <pt x="134" y="-210" on="1"/>
        <pt x="134" y="-222" on="0"/>
        <pt x="141" y="-247" on="0"/>
        <pt x="147" y="-261" on="1"/>
        <pt x="29" y="-298" on="1"/>
        <pt x="17" y="-277" on="0"/>
        <pt x="-1" y="-221" on="0"/>
        <pt x="-1" y="-194" on="1"/>
        <pt x="-1" y="-160" on="0"/>
        <pt x="22" y="-110" on="0"/>
        <pt x="59" y="-79" on="0"/>
        <pt x="109" y="-64" on="0"/>
        <pt x="136" y="-64" on="1"/>
        <pt x="1030" y="-64" on="1"/>
        <pt x="1091" y="-64" on="0"/>
        <pt x="1174" y="-27" on="0"/>
        <pt x="1224" y="41" on="0"/>
        <pt x="1245" y="137" on="0"/>
        <pt x="1245" y="196" on="1"/>
        <pt x="1245" y="296" on="0"/>
        <pt x="1197" y="405" on="0"/>
        <pt x="1152" y="405" on="1"/>
        <pt x="1124" y="405" on="0"/>
        <pt x="1098" y="369" on="0"/>
        <pt x="1098" y="338" on="1"/>
        <pt x="1098" y="0" on="1"/>
        <pt x="963" y="0" on="1"/>
        <pt x="963" y="336" on="1"/>
        <pt x="963" y="368" on="0"/>
        <pt x="933" y="405" on="0"/>
        <pt x="904" y="405" on="1"/>
        <pt x="875" y="405" on="0"/>
        <pt x="848" y="367" on="0"/>
        <pt x="848" y="335" on="1"/>
        <pt x="848" y="0" on="1"/>
        <pt x="484" y="0" on="1"/>
        <pt x="452" y="76" on="1"/>
        <pt x="469" y="106" on="0"/>
        <pt x="488" y="181" on="0"/>
        <pt x="488" y="232" on="1"/>
        <pt x="488" y="271" on="0"/>
        <pt x="465" y="335" on="0"/>
        <pt x="423" y="382" on="0"/>
        <pt x="362" y="407" on="0"/>
        <pt x="325" y="407" on="1"/>
        <pt x="256" y="407" on="0"/>
        <pt x="170" y="335" on="0"/>
        <pt x="159" y="277" on="1"/>
        <pt x="194" y="306" on="0"/>
        <pt x="246" y="306" on="1"/>
        <pt x="280" y="306" on="0"/>
        <pt x="339" y="284" on="0"/>
        <pt x="382" y="244" on="0"/>
        <pt x="407" y="187" on="0"/>
        <pt x="407" y="152" on="1"/>
        <pt x="407" y="114" on="0"/>
        <pt x="378" y="54" on="0"/>
        <pt x="329" y="12" on="0"/>
        <pt x="263" y="-11" on="0"/>
        <pt x="227" y="-11" on="1"/>
        <pt x="183" y="-11" on="0"/>
        <pt x="110" y="21" on="0"/>
        <pt x="59" y="81" on="0"/>
        <pt x="31" y="168" on="0"/>
        <pt x="31" y="224" on="1"/>
        <pt x="31" y="290" on="0"/>
        <pt x="75" y="398" on="0"/>
        <pt x="155" y="474" on="0"/>
        <pt x="264" y="515" on="0"/>
        <pt x="330" y="515" on="1"/>
        <pt x="393" y="515" on="0"/>
        <pt x="501" y="476" on="0"/>
        <pt x="580" y="405" on="0"/>
        <pt x="625" y="305" on="0"/>
        <pt x="625" y="243" on="1"/>
        <pt x="625" y="196" on="0"/>
        <pt x="611" y="131" on="0"/>
        <pt x="601" y="103" on="1"/>
        <pt x="713" y="103" on="1"/>
        <pt x="713" y="336" on="1"/>
        <pt x="713" y="384" on="0"/>
        <pt x="741" y="452" on="0"/>
        <pt x="788" y="495" on="0"/>
        <pt x="850" y="515" on="0"/>
      </contour>
      <contour>
        <pt x="691" y="723" on="1"/>
        <pt x="725" y="723" on="0"/>
        <pt x="767" y="680" on="0"/>
        <pt x="767" y="647" on="1"/>
        <pt x="767" y="614" on="0"/>
        <pt x="725" y="571" on="0"/>
        <pt x="693" y="571" on="1"/>
        <pt x="659" y="571" on="0"/>
        <pt x="616" y="614" on="0"/>
        <pt x="616" y="647" on="1"/>
        <pt x="616" y="680" on="0"/>
        <pt x="659" y="723" on="0"/>
      </contour>
      <contour>
        <pt x="220" y="210" on="1"/>
        <pt x="201" y="210" on="0"/>
        <pt x="173" y="190" on="0"/>
        <pt x="163" y="173" on="1"/>
        <pt x="163" y="137" on="0"/>
        <pt x="196" y="94" on="0"/>
        <pt x="226" y="94" on="1"/>
        <pt x="247" y="94" on="0"/>
        <pt x="278" y="125" on="0"/>
        <pt x="278" y="152" on="1"/>
        <pt x="278" y="180" on="0"/>
        <pt x="245" y="210" on="0"/>
      </contour>
    </TTGlyph>
    <TTGlyph name="Hbar" xMin="20" yMin="0" xMax="663" yMax="630">
      <contour>
        <pt x="80" y="0" on="1"/>
        <pt x="80" y="468" on="1"/>
        <pt x="20" y="468" on="1"/>
        <pt x="20" y="560" on="1"/>
        <pt x="80" y="560" on="1"/>
        <pt x="80" y="630" on="1"/>
        <pt x="232" y="630" on="1"/>
        <pt x="232" y="560" on="1"/>
        <pt x="451" y="560" on="1"/>
        <pt x="451" y="630" on="1"/>
        <pt x="603" y="630" on="1"/>
        <pt x="603" y="560" on="1"/>
        <pt x="663" y="560" on="1"/>
        <pt x="663" y="468" on="1"/>
        <pt x="603" y="468" on="1"/>
        <pt x="603" y="0" on="1"/>
        <pt x="451" y="0" on="1"/>
        <pt x="451" y="267" on="1"/>
        <pt x="232" y="267" on="1"/>
        <pt x="232" y="0" on="1"/>
      </contour>
      <contour>
        <pt x="451" y="385" on="1"/>
        <pt x="451" y="468" on="1"/>
        <pt x="232" y="468" on="1"/>
        <pt x="232" y="385" on="1"/>
      </contour>
    </TTGlyph>
    <TTGlyph name="Hcircumflex" xMin="66" yMin="0" xMax="589" yMax="814">
      <contour>
        <pt x="66" y="0" on="1"/>
        <pt x="66" y="630" on="1"/>
        <pt x="218" y="630" on="1"/>
        <pt x="218" y="385" on="1"/>
        <pt x="437" y="385" on="1"/>
        <pt x="437" y="630" on="1"/>
        <pt x="589" y="630" on="1"/>
        <pt x="589" y="0" on="1"/>
        <pt x="437" y="0" on="1"/>
        <pt x="437" y="267" on="1"/>
        <pt x="218" y="267" on="1"/>
        <pt x="218" y="0" on="1"/>
      </contour>
      <contour>
        <pt x="277" y="814" on="1"/>
        <pt x="386" y="814" on="1"/>
        <pt x="501" y="690" on="1"/>
        <pt x="391" y="690" on="1"/>
        <pt x="331" y="754" on="1"/>
        <pt x="271" y="690" on="1"/>
        <pt x="165" y="690" on="1"/>
      </contour>
    </TTGlyph>
    <TTGlyph name="Hsmall" xMin="58" yMin="0" xMax="509" yMax="480">
      <contour>
        <pt x="58" y="0" on="1"/>
        <pt x="58" y="480" on="1"/>
        <pt x="203" y="480" on="1"/>
        <pt x="203" y="303" on="1"/>
        <pt x="363" y="303" on="1"/>
        <pt x="363" y="480" on="1"/>
        <pt x="509" y="480" on="1"/>
        <pt x="509" y="0" on="1"/>
        <pt x="363" y="0" on="1"/>
        <pt x="363" y="196" on="1"/>
        <pt x="203" y="196" on="1"/>
        <pt x="203" y="0" on="1"/>
      </contour>
    </TTGlyph>
    <TTGlyph name="Hundred.tm" xMin="49" yMin="0" xMax="806" yMax="509">
      <contour>
        <pt x="806" y="505" on="1"/>
        <pt x="806" y="401" on="1"/>
        <pt x="719" y="401" on="1"/>
        <pt x="719" y="0" on="1"/>
        <pt x="583" y="0" on="1"/>
        <pt x="583" y="401" on="1"/>
        <pt x="437" y="401" on="1"/>
        <pt x="437" y="0" on="1"/>
        <pt x="303" y="0" on="1"/>
        <pt x="303" y="337" on="1"/>
        <pt x="301" y="369" on="0"/>
        <pt x="266" y="403" on="0"/>
        <pt x="240" y="403" on="1"/>
        <pt x="213" y="403" on="0"/>
        <pt x="183" y="369" on="0"/>
        <pt x="183" y="332" on="1"/>
        <pt x="183" y="0" on="1"/>
        <pt x="49" y="0" on="1"/>
        <pt x="49" y="336" on="1"/>
        <pt x="49" y="414" on="0"/>
        <pt x="126" y="509" on="0"/>
        <pt x="201" y="509" on="1"/>
        <pt x="242" y="509" on="0"/>
        <pt x="300" y="474" on="0"/>
        <pt x="316" y="451" on="1"/>
        <pt x="316" y="505" on="1"/>
      </contour>
    </TTGlyph>
    <TTGlyph name="I" xMin="66" yMin="0" xMax="218" yMax="630">
      <contour>
        <pt x="218" y="630" on="1"/>
        <pt x="218" y="0" on="1"/>
        <pt x="66" y="0" on="1"/>
        <pt x="66" y="630" on="1"/>
      </contour>
    </TTGlyph>
    <TTGlyph name="IJ" xMin="66" yMin="-175" xMax="501" yMax="630">
      <contour>
        <pt x="218" y="630" on="1"/>
        <pt x="218" y="0" on="1"/>
        <pt x="66" y="0" on="1"/>
        <pt x="66" y="630" on="1"/>
      </contour>
      <contour>
        <pt x="501" y="630" on="1"/>
        <pt x="501" y="115" on="1"/>
        <pt x="501" y="74" on="0"/>
        <pt x="496" y="9" on="0"/>
        <pt x="483" y="-44" on="0"/>
        <pt x="460" y="-88" on="0"/>
        <pt x="443" y="-107" on="1"/>
        <pt x="408" y="-145" on="0"/>
        <pt x="307" y="-175" on="0"/>
        <pt x="249" y="-175" on="1"/>
        <pt x="249" y="-60" on="1"/>
        <pt x="274" y="-60" on="0"/>
        <pt x="309" y="-45" on="0"/>
        <pt x="320" y="-35" on="1"/>
        <pt x="338" y="-20" on="0"/>
        <pt x="349" y="30" on="0"/>
        <pt x="349" y="62" on="1"/>
        <pt x="349" y="630" on="1"/>
      </contour>
    </TTGlyph>
    <TTGlyph name="Iacute" xMin="66" yMin="0" xMax="324" yMax="814">
      <contour>
        <pt x="218" y="630" on="1"/>
        <pt x="218" y="0" on="1"/>
        <pt x="66" y="0" on="1"/>
        <pt x="66" y="630" on="1"/>
      </contour>
      <contour>
        <pt x="208" y="690" on="1"/>
        <pt x="86" y="690" on="1"/>
        <pt x="166" y="814" on="1"/>
        <pt x="324" y="814" on="1"/>
      </contour>
    </TTGlyph>
    <TTGlyph name="Ibreve" xMin="7" yMin="0" xMax="276" yMax="814">
      <contour>
        <pt x="218" y="630" on="1"/>
        <pt x="218" y="0" on="1"/>
        <pt x="66" y="0" on="1"/>
        <pt x="66" y="630" on="1"/>
      </contour>
      <contour>
        <pt x="90" y="814" on="1"/>
        <pt x="91" y="791" on="0"/>
        <pt x="116" y="764" on="0"/>
        <pt x="143" y="764" on="1"/>
        <pt x="192" y="764" on="0"/>
        <pt x="194" y="814" on="1"/>
        <pt x="276" y="814" on="1"/>
        <pt x="276" y="753" on="0"/>
        <pt x="207" y="685" on="0"/>
        <pt x="142" y="685" on="1"/>
        <pt x="106" y="685" on="0"/>
        <pt x="55" y="706" on="0"/>
        <pt x="22" y="741" on="0"/>
        <pt x="7" y="788" on="0"/>
        <pt x="7" y="814" on="1"/>
      </contour>
    </TTGlyph>
    <TTGlyph name="Icircumflex" xMin="-22" yMin="0" xMax="314" yMax="814">
      <contour>
        <pt x="218" y="630" on="1"/>
        <pt x="218" y="0" on="1"/>
        <pt x="66" y="0" on="1"/>
        <pt x="66" y="630" on="1"/>
      </contour>
      <contour>
        <pt x="90" y="814" on="1"/>
        <pt x="199" y="814" on="1"/>
        <pt x="314" y="690" on="1"/>
        <pt x="204" y="690" on="1"/>
        <pt x="144" y="754" on="1"/>
        <pt x="84" y="690" on="1"/>
        <pt x="-22" y="690" on="1"/>
      </contour>
    </TTGlyph>
    <TTGlyph name="Idieresis" xMin="-29" yMin="0" xMax="311" yMax="814">
      <contour>
        <pt x="218" y="630" on="1"/>
        <pt x="218" y="0" on="1"/>
        <pt x="66" y="0" on="1"/>
        <pt x="66" y="630" on="1"/>
      </contour>
      <contour>
        <pt x="-29" y="748" on="1"/>
        <pt x="-29" y="776" on="0"/>
        <pt x="10" y="814" on="0"/>
        <pt x="39" y="814" on="1"/>
        <pt x="68" y="814" on="0"/>
        <pt x="106" y="776" on="0"/>
        <pt x="106" y="748" on="1"/>
        <pt x="106" y="719" on="0"/>
        <pt x="68" y="679" on="0"/>
        <pt x="39" y="679" on="1"/>
        <pt x="10" y="679" on="0"/>
        <pt x="-29" y="719" on="0"/>
      </contour>
      <contour>
        <pt x="176" y="748" on="1"/>
        <pt x="176" y="776" on="0"/>
        <pt x="215" y="814" on="0"/>
        <pt x="244" y="814" on="1"/>
        <pt x="273" y="814" on="0"/>
        <pt x="311" y="776" on="0"/>
        <pt x="311" y="748" on="1"/>
        <pt x="311" y="719" on="0"/>
        <pt x="273" y="679" on="0"/>
        <pt x="244" y="679" on="1"/>
        <pt x="215" y="679" on="0"/>
        <pt x="176" y="719" on="0"/>
      </contour>
    </TTGlyph>
    <TTGlyph name="Idotaccent" xMin="66" yMin="0" xMax="218" yMax="814">
      <contour>
        <pt x="218" y="630" on="1"/>
        <pt x="218" y="0" on="1"/>
        <pt x="66" y="0" on="1"/>
        <pt x="66" y="630" on="1"/>
      </contour>
      <contour>
        <pt x="74" y="748" on="1"/>
        <pt x="74" y="776" on="0"/>
        <pt x="113" y="814" on="0"/>
        <pt x="142" y="814" on="1"/>
        <pt x="171" y="814" on="0"/>
        <pt x="209" y="776" on="0"/>
        <pt x="209" y="748" on="1"/>
        <pt x="209" y="719" on="0"/>
        <pt x="171" y="679" on="0"/>
        <pt x="142" y="679" on="1"/>
        <pt x="113" y="679" on="0"/>
        <pt x="74" y="719" on="0"/>
      </contour>
    </TTGlyph>
    <TTGlyph name="Igrave" xMin="-40" yMin="0" xMax="218" yMax="814">
      <contour>
        <pt x="218" y="630" on="1"/>
        <pt x="218" y="0" on="1"/>
        <pt x="66" y="0" on="1"/>
        <pt x="66" y="630" on="1"/>
      </contour>
      <contour>
        <pt x="-40" y="814" on="1"/>
        <pt x="118" y="814" on="1"/>
        <pt x="198" y="690" on="1"/>
        <pt x="76" y="690" on="1"/>
      </contour>
    </TTGlyph>
    <TTGlyph name="Imacron" xMin="12" yMin="0" xMax="272" yMax="772">
      <contour>
        <pt x="218" y="630" on="1"/>
        <pt x="218" y="0" on="1"/>
        <pt x="66" y="0" on="1"/>
        <pt x="66" y="630" on="1"/>
      </contour>
      <contour>
        <pt x="272" y="772" on="1"/>
        <pt x="272" y="690" on="1"/>
        <pt x="12" y="690" on="1"/>
        <pt x="12" y="772" on="1"/>
      </contour>
    </TTGlyph>
    <TTGlyph name="Iogonek" xMin="27" yMin="-206" xMax="221" yMax="630">
      <contour>
        <pt x="218" y="630" on="1"/>
        <pt x="218" y="0" on="1"/>
        <pt x="161" y="0" on="1"/>
        <pt x="144" y="-17" on="0"/>
        <pt x="121" y="-55" on="0"/>
        <pt x="121" y="-75" on="1"/>
        <pt x="121" y="-94" on="0"/>
        <pt x="142" y="-116" on="0"/>
        <pt x="162" y="-116" on="1"/>
        <pt x="175" y="-116" on="0"/>
        <pt x="193" y="-111" on="0"/>
        <pt x="201" y="-108" on="1"/>
        <pt x="221" y="-184" on="1"/>
        <pt x="205" y="-194" on="0"/>
        <pt x="160" y="-206" on="0"/>
        <pt x="134" y="-206" on="1"/>
        <pt x="88" y="-206" on="0"/>
        <pt x="27" y="-151" on="0"/>
        <pt x="27" y="-104" on="1"/>
        <pt x="27" y="-66" on="0"/>
        <pt x="53" y="-17" on="0"/>
        <pt x="66" y="0" on="1"/>
        <pt x="66" y="630" on="1"/>
      </contour>
    </TTGlyph>
    <TTGlyph name="Ismall" xMin="58" yMin="0" xMax="206" yMax="480">
      <contour>
        <pt x="206" y="480" on="1"/>
        <pt x="206" y="0" on="1"/>
        <pt x="58" y="0" on="1"/>
        <pt x="58" y="480" on="1"/>
      </contour>
    </TTGlyph>
    <TTGlyph name="Itilde" xMin="-10" yMin="0" xMax="293" yMax="814">
      <contour>
        <pt x="218" y="630" on="1"/>
        <pt x="218" y="0" on="1"/>
        <pt x="66" y="0" on="1"/>
        <pt x="66" y="630" on="1"/>
      </contour>
      <contour>
        <pt x="-10" y="690" on="1"/>
        <pt x="-10" y="715" on="0"/>
        <pt x="2" y="759" on="0"/>
        <pt x="26" y="792" on="0"/>
        <pt x="60" y="811" on="0"/>
        <pt x="82" y="811" on="1"/>
        <pt x="100" y="811" on="0"/>
        <pt x="129" y="801" on="0"/>
        <pt x="155" y="788" on="0"/>
        <pt x="179" y="778" on="0"/>
        <pt x="193" y="778" on="1"/>
        <pt x="207" y="778" on="0"/>
        <pt x="222" y="797" on="0"/>
        <pt x="223" y="814" on="1"/>
        <pt x="293" y="814" on="1"/>
        <pt x="293" y="759" on="0"/>
        <pt x="245" y="695" on="0"/>
        <pt x="205" y="695" on="1"/>
        <pt x="186" y="695" on="0"/>
        <pt x="153" y="705" on="0"/>
        <pt x="124" y="717" on="0"/>
        <pt x="99" y="727" on="0"/>
        <pt x="89" y="727" on="1"/>
        <pt x="73" y="727" on="0"/>
        <pt x="61" y="705" on="0"/>
        <pt x="60" y="690" on="1"/>
      </contour>
    </TTGlyph>
    <TTGlyph name="J" xMin="-20" yMin="-175" xMax="232" yMax="630">
      <contour>
        <pt x="232" y="630" on="1"/>
        <pt x="232" y="115" on="1"/>
        <pt x="232" y="74" on="0"/>
        <pt x="227" y="9" on="0"/>
        <pt x="214" y="-44" on="0"/>
        <pt x="191" y="-88" on="0"/>
        <pt x="174" y="-107" on="1"/>
        <pt x="139" y="-145" on="0"/>
        <pt x="38" y="-175" on="0"/>
        <pt x="-20" y="-175" on="1"/>
        <pt x="-20" y="-60" on="1"/>
        <pt x="5" y="-60" on="0"/>
        <pt x="40" y="-45" on="0"/>
        <pt x="51" y="-35" on="1"/>
        <pt x="69" y="-20" on="0"/>
        <pt x="80" y="30" on="0"/>
        <pt x="80" y="62" on="1"/>
        <pt x="80" y="630" on="1"/>
      </contour>
    </TTGlyph>
    <TTGlyph name="Ja.tm" xMin="34" yMin="-288" xMax="827" yMax="515">
      <contour>
        <pt x="253" y="515" on="1"/>
        <pt x="291" y="515" on="0"/>
        <pt x="353" y="496" on="0"/>
        <pt x="402" y="463" on="0"/>
        <pt x="438" y="418" on="0"/>
        <pt x="450" y="393" on="1"/>
        <pt x="463" y="444" on="0"/>
        <pt x="548" y="515" on="0"/>
        <pt x="620" y="515" on="1"/>
        <pt x="662" y="515" on="0"/>
        <pt x="735" y="487" on="0"/>
        <pt x="789" y="434" on="0"/>
        <pt x="820" y="359" on="0"/>
        <pt x="820" y="313" on="1"/>
        <pt x="820" y="256" on="0"/>
        <pt x="777" y="173" on="0"/>
        <pt x="702" y="114" on="0"/>
        <pt x="600" y="75" on="0"/>
        <pt x="541" y="62" on="1"/>
        <pt x="306" y="9" on="1"/>
        <pt x="250" y="-4" on="0"/>
        <pt x="186" y="-57" on="0"/>
        <pt x="186" y="-103" on="1"/>
        <pt x="186" y="-139" on="0"/>
        <pt x="230" y="-178" on="0"/>
        <pt x="260" y="-178" on="1"/>
        <pt x="292" y="-178" on="0"/>
        <pt x="342" y="-148" on="0"/>
        <pt x="374" y="-116" on="1"/>
        <pt x="438" y="-53" on="1"/>
        <pt x="459" y="-32" on="0"/>
        <pt x="504" y="6" on="0"/>
        <pt x="555" y="35" on="0"/>
        <pt x="612" y="52" on="0"/>
        <pt x="645" y="52" on="1"/>
        <pt x="685" y="52" on="0"/>
        <pt x="752" y="27" on="0"/>
        <pt x="800" y="-19" on="0"/>
        <pt x="827" y="-83" on="0"/>
        <pt x="827" y="-122" on="1"/>
        <pt x="827" y="-160" on="0"/>
        <pt x="798" y="-222" on="0"/>
        <pt x="748" y="-265" on="0"/>
        <pt x="681" y="-288" on="0"/>
        <pt x="643" y="-288" on="1"/>
        <pt x="598" y="-288" on="0"/>
        <pt x="527" y="-253" on="0"/>
        <pt x="506" y="-229" on="1"/>
        <pt x="574" y="-153" on="1"/>
        <pt x="585" y="-163" on="0"/>
        <pt x="615" y="-181" on="0"/>
        <pt x="635" y="-181" on="1"/>
        <pt x="662" y="-181" on="0"/>
        <pt x="695" y="-147" on="0"/>
        <pt x="695" y="-119" on="1"/>
        <pt x="695" y="-90" on="0"/>
        <pt x="661" y="-57" on="0"/>
        <pt x="632" y="-57" on="1"/>
        <pt x="607" y="-57" on="0"/>
        <pt x="562" y="-90" on="0"/>
        <pt x="528" y="-127" on="1"/>
        <pt x="461" y="-200" on="1"/>
        <pt x="423" y="-241" on="0"/>
        <pt x="327" y="-288" on="0"/>
        <pt x="256" y="-288" on="1"/>
        <pt x="215" y="-288" on="0"/>
        <pt x="141" y="-263" on="0"/>
        <pt x="85" y="-216" on="0"/>
        <pt x="51" y="-148" on="0"/>
        <pt x="51" y="-105" on="1"/>
        <pt x="51" y="-52" on="0"/>
        <pt x="86" y="22" on="0"/>
        <pt x="149" y="75" on="0"/>
        <pt x="236" y="109" on="0"/>
        <pt x="288" y="121" on="1"/>
        <pt x="533" y="179" on="1"/>
        <pt x="608" y="196" on="0"/>
        <pt x="684" y="262" on="0"/>
        <pt x="684" y="315" on="1"/>
        <pt x="684" y="354" on="0"/>
        <pt x="639" y="404" on="0"/>
        <pt x="602" y="404" on="1"/>
        <pt x="564" y="404" on="0"/>
        <pt x="519" y="349" on="0"/>
        <pt x="519" y="298" on="1"/>
        <pt x="519" y="215" on="1"/>
        <pt x="385" y="215" on="1"/>
        <pt x="385" y="278" on="1"/>
        <pt x="385" y="339" on="0"/>
        <pt x="315" y="415" on="0"/>
        <pt x="249" y="415" on="1"/>
        <pt x="215" y="415" on="0"/>
        <pt x="157" y="385" on="0"/>
        <pt x="147" y="354" on="1"/>
        <pt x="175" y="379" on="0"/>
        <pt x="213" y="379" on="1"/>
        <pt x="238" y="379" on="0"/>
        <pt x="283" y="363" on="0"/>
        <pt x="316" y="332" on="0"/>
        <pt x="336" y="288" on="0"/>
        <pt x="336" y="260" on="1"/>
        <pt x="336" y="228" on="0"/>
        <pt x="312" y="179" on="0"/>
        <pt x="271" y="146" on="0"/>
        <pt x="218" y="129" on="0"/>
        <pt x="189" y="129" on="1"/>
        <pt x="156" y="129" on="0"/>
        <pt x="100" y="153" on="0"/>
        <pt x="58" y="198" on="0"/>
        <pt x="34" y="262" on="0"/>
        <pt x="34" y="303" on="1"/>
        <pt x="34" y="351" on="0"/>
        <pt x="66" y="429" on="0"/>
        <pt x="124" y="485" on="0"/>
        <pt x="205" y="515" on="0"/>
      </contour>
      <contour>
        <pt x="188" y="304" on="1"/>
        <pt x="162" y="304" on="0"/>
        <pt x="145" y="277" on="1"/>
        <pt x="145" y="248" on="0"/>
        <pt x="169" y="216" on="0"/>
        <pt x="191" y="216" on="1"/>
        <pt x="208" y="216" on="0"/>
        <pt x="231" y="239" on="0"/>
        <pt x="231" y="259" on="1"/>
        <pt x="231" y="281" on="0"/>
        <pt x="207" y="304" on="0"/>
      </contour>
    </TTGlyph>
    <TTGlyph name="JaAlt.tm" xMin="37" yMin="-23" xMax="672" yMax="520">
      <contour>
        <pt x="212" y="520" on="1"/>
        <pt x="272" y="520" on="0"/>
        <pt x="347" y="463" on="0"/>
        <pt x="363" y="422" on="1"/>
        <pt x="375" y="462" on="0"/>
        <pt x="447" y="520" on="0"/>
        <pt x="510" y="520" on="1"/>
        <pt x="546" y="520" on="0"/>
        <pt x="604" y="498" on="0"/>
        <pt x="645" y="459" on="0"/>
        <pt x="668" y="405" on="0"/>
        <pt x="668" y="372" on="1"/>
        <pt x="668" y="315" on="0"/>
        <pt x="612" y="236" on="0"/>
        <pt x="569" y="219" on="1"/>
        <pt x="617" y="211" on="0"/>
        <pt x="672" y="153" on="0"/>
        <pt x="672" y="105" on="1"/>
        <pt x="672" y="46" on="0"/>
        <pt x="588" y="-23" on="0"/>
        <pt x="516" y="-23" on="1"/>
        <pt x="479" y="-23" on="0"/>
        <pt x="418" y="6" on="0"/>
        <pt x="398" y="32" on="1"/>
        <pt x="457" y="95" on="1"/>
        <pt x="468" y="82" on="0"/>
        <pt x="497" y="66" on="0"/>
        <pt x="515" y="66" on="1"/>
        <pt x="538" y="66" on="0"/>
        <pt x="565" y="94" on="0"/>
        <pt x="565" y="117" on="1"/>
        <pt x="565" y="141" on="0"/>
        <pt x="538" y="169" on="0"/>
        <pt x="513" y="169" on="1"/>
        <pt x="495" y="169" on="0"/>
        <pt x="458" y="148" on="0"/>
        <pt x="432" y="124" on="1"/>
        <pt x="359" y="56" on="1"/>
        <pt x="327" y="26" on="0"/>
        <pt x="243" y="-23" on="0"/>
        <pt x="186" y="-23" on="1"/>
        <pt x="122" y="-23" on="0"/>
        <pt x="43" y="40" on="0"/>
        <pt x="43" y="92" on="1"/>
        <pt x="43" y="150" on="0"/>
        <pt x="117" y="210" on="0"/>
        <pt x="189" y="218" on="1"/>
        <pt x="412" y="242" on="1"/>
        <pt x="487" y="250" on="0"/>
        <pt x="555" y="309" on="0"/>
        <pt x="555" y="351" on="1"/>
        <pt x="555" y="386" on="0"/>
        <pt x="521" y="428" on="0"/>
        <pt x="490" y="428" on="1"/>
        <pt x="457" y="428" on="0"/>
        <pt x="420" y="383" on="0"/>
        <pt x="420" y="342" on="1"/>
        <pt x="420" y="277" on="1"/>
        <pt x="311" y="277" on="1"/>
        <pt x="311" y="338" on="1"/>
        <pt x="311" y="385" on="0"/>
        <pt x="256" y="441" on="0"/>
        <pt x="208" y="441" on="1"/>
        <pt x="181" y="441" on="0"/>
        <pt x="142" y="422" on="0"/>
        <pt x="131" y="405" on="1"/>
        <pt x="152" y="420" on="0"/>
        <pt x="178" y="420" on="1"/>
        <pt x="219" y="420" on="0"/>
        <pt x="268" y="371" on="0"/>
        <pt x="268" y="329" on="1"/>
        <pt x="268" y="305" on="0"/>
        <pt x="249" y="267" on="0"/>
        <pt x="218" y="242" on="0"/>
        <pt x="177" y="229" on="0"/>
        <pt x="155" y="229" on="1"/>
        <pt x="105" y="229" on="0"/>
        <pt x="37" y="297" on="0"/>
        <pt x="37" y="357" on="1"/>
        <pt x="37" y="394" on="0"/>
        <pt x="63" y="454" on="0"/>
        <pt x="109" y="497" on="0"/>
        <pt x="173" y="520" on="0"/>
      </contour>
      <contour>
        <pt x="324" y="132" on="1"/>
        <pt x="344" y="148" on="0"/>
        <pt x="369" y="166" on="0"/>
        <pt x="380" y="172" on="1"/>
        <pt x="196" y="140" on="1"/>
        <pt x="149" y="131" on="0"/>
        <pt x="149" y="97" on="1"/>
        <pt x="149" y="80" on="0"/>
        <pt x="172" y="62" on="0"/>
        <pt x="192" y="62" on="1"/>
        <pt x="213" y="62" on="0"/>
        <pt x="254" y="80" on="0"/>
        <pt x="274" y="95" on="1"/>
      </contour>
      <contour>
        <pt x="153" y="362" on="1"/>
        <pt x="135" y="362" on="0"/>
        <pt x="122" y="344" on="1"/>
        <pt x="122" y="343" on="1"/>
        <pt x="122" y="323" on="0"/>
        <pt x="139" y="297" on="0"/>
        <pt x="157" y="297" on="1"/>
        <pt x="169" y="297" on="0"/>
        <pt x="186" y="315" on="0"/>
        <pt x="186" y="329" on="1"/>
        <pt x="186" y="345" on="0"/>
        <pt x="167" y="362" on="0"/>
      </contour>
    </TTGlyph>
    <TTGlyph name="JaAltMatraI.tm" xMin="37" yMin="-23" xMax="891" yMax="754">
      <contour>
        <pt x="672" y="754" on="1"/>
        <pt x="721" y="754" on="0"/>
        <pt x="802" y="725" on="0"/>
        <pt x="860" y="671" on="0"/>
        <pt x="891" y="593" on="0"/>
        <pt x="891" y="544" on="1"/>
        <pt x="891" y="0" on="1"/>
        <pt x="755" y="0" on="1"/>
        <pt x="755" y="539" on="1"/>
        <pt x="755" y="590" on="0"/>
        <pt x="710" y="644" on="0"/>
        <pt x="669" y="644" on="1"/>
        <pt x="633" y="644" on="0"/>
        <pt x="590" y="598" on="0"/>
        <pt x="590" y="562" on="1"/>
        <pt x="590" y="530" on="0"/>
        <pt x="622" y="476" on="0"/>
        <pt x="645" y="441" on="1"/>
        <pt x="654" y="427" on="0"/>
        <pt x="668" y="385" on="0"/>
        <pt x="668" y="362" on="1"/>
        <pt x="668" y="310" on="0"/>
        <pt x="612" y="235" on="0"/>
        <pt x="570" y="219" on="1"/>
        <pt x="617" y="210" on="0"/>
        <pt x="672" y="153" on="0"/>
        <pt x="672" y="105" on="1"/>
        <pt x="672" y="46" on="0"/>
        <pt x="588" y="-23" on="0"/>
        <pt x="516" y="-23" on="1"/>
        <pt x="479" y="-23" on="0"/>
        <pt x="418" y="6" on="0"/>
        <pt x="398" y="32" on="1"/>
        <pt x="457" y="95" on="1"/>
        <pt x="468" y="82" on="0"/>
        <pt x="497" y="66" on="0"/>
        <pt x="515" y="66" on="1"/>
        <pt x="538" y="66" on="0"/>
        <pt x="565" y="94" on="0"/>
        <pt x="565" y="117" on="1"/>
        <pt x="565" y="141" on="0"/>
        <pt x="538" y="169" on="0"/>
        <pt x="513" y="169" on="1"/>
        <pt x="495" y="169" on="0"/>
        <pt x="458" y="148" on="0"/>
        <pt x="432" y="124" on="1"/>
        <pt x="359" y="56" on="1"/>
        <pt x="327" y="26" on="0"/>
        <pt x="243" y="-23" on="0"/>
        <pt x="186" y="-23" on="1"/>
        <pt x="122" y="-23" on="0"/>
        <pt x="43" y="40" on="0"/>
        <pt x="43" y="92" on="1"/>
        <pt x="43" y="150" on="0"/>
        <pt x="117" y="210" on="0"/>
        <pt x="189" y="218" on="1"/>
        <pt x="412" y="242" on="1"/>
        <pt x="487" y="250" on="0"/>
        <pt x="555" y="309" on="0"/>
        <pt x="555" y="351" on="1"/>
        <pt x="555" y="386" on="0"/>
        <pt x="521" y="428" on="0"/>
        <pt x="490" y="428" on="1"/>
        <pt x="457" y="428" on="0"/>
        <pt x="420" y="383" on="0"/>
        <pt x="420" y="342" on="1"/>
        <pt x="420" y="277" on="1"/>
        <pt x="311" y="277" on="1"/>
        <pt x="311" y="338" on="1"/>
        <pt x="311" y="385" on="0"/>
        <pt x="256" y="441" on="0"/>
        <pt x="208" y="441" on="1"/>
        <pt x="181" y="441" on="0"/>
        <pt x="142" y="422" on="0"/>
        <pt x="131" y="405" on="1"/>
        <pt x="152" y="420" on="0"/>
        <pt x="178" y="420" on="1"/>
        <pt x="219" y="420" on="0"/>
        <pt x="268" y="371" on="0"/>
        <pt x="268" y="329" on="1"/>
        <pt x="268" y="305" on="0"/>
        <pt x="249" y="267" on="0"/>
        <pt x="218" y="242" on="0"/>
        <pt x="177" y="229" on="0"/>
        <pt x="155" y="229" on="1"/>
        <pt x="105" y="229" on="0"/>
        <pt x="37" y="297" on="0"/>
        <pt x="37" y="357" on="1"/>
        <pt x="37" y="394" on="0"/>
        <pt x="63" y="454" on="0"/>
        <pt x="109" y="497" on="0"/>
        <pt x="173" y="520" on="0"/>
        <pt x="212" y="520" on="1"/>
        <pt x="272" y="520" on="0"/>
        <pt x="347" y="463" on="0"/>
        <pt x="363" y="422" on="1"/>
        <pt x="374" y="453" on="0"/>
        <pt x="430" y="502" on="0"/>
        <pt x="478" y="509" on="1"/>
        <pt x="470" y="526" on="0"/>
        <pt x="460" y="561" on="0"/>
        <pt x="460" y="581" on="1"/>
        <pt x="460" y="619" on="0"/>
        <pt x="490" y="683" on="0"/>
        <pt x="545" y="729" on="0"/>
        <pt x="624" y="754" on="0"/>
      </contour>
      <contour>
        <pt x="324" y="132" on="1"/>
        <pt x="344" y="148" on="0"/>
        <pt x="369" y="166" on="0"/>
        <pt x="380" y="172" on="1"/>
        <pt x="196" y="140" on="1"/>
        <pt x="149" y="131" on="0"/>
        <pt x="149" y="97" on="1"/>
        <pt x="149" y="80" on="0"/>
        <pt x="172" y="62" on="0"/>
        <pt x="192" y="62" on="1"/>
        <pt x="213" y="62" on="0"/>
        <pt x="254" y="80" on="0"/>
        <pt x="274" y="95" on="1"/>
      </contour>
      <contour>
        <pt x="153" y="362" on="1"/>
        <pt x="135" y="362" on="0"/>
        <pt x="122" y="344" on="1"/>
        <pt x="122" y="343" on="1"/>
        <pt x="122" y="323" on="0"/>
        <pt x="139" y="297" on="0"/>
        <pt x="157" y="297" on="1"/>
        <pt x="169" y="297" on="0"/>
        <pt x="186" y="315" on="0"/>
        <pt x="186" y="329" on="1"/>
        <pt x="186" y="345" on="0"/>
        <pt x="167" y="362" on="0"/>
      </contour>
    </TTGlyph>
    <TTGlyph name="JaAltMatraIi.tm" xMin="37" yMin="-23" xMax="828" yMax="798">
      <contour>
        <pt x="647" y="798" on="1"/>
        <pt x="733" y="798" on="0"/>
        <pt x="828" y="721" on="0"/>
        <pt x="828" y="663" on="1"/>
        <pt x="828" y="609" on="0"/>
        <pt x="756" y="543" on="0"/>
        <pt x="699" y="543" on="1"/>
        <pt x="671" y="543" on="0"/>
        <pt x="626" y="560" on="0"/>
        <pt x="595" y="590" on="0"/>
        <pt x="578" y="630" on="0"/>
        <pt x="578" y="652" on="1"/>
        <pt x="578" y="671" on="0"/>
        <pt x="591" y="704" on="0"/>
        <pt x="601" y="716" on="1"/>
        <pt x="575" y="706" on="0"/>
        <pt x="537" y="652" on="0"/>
        <pt x="537" y="608" on="1"/>
        <pt x="537" y="564" on="0"/>
        <pt x="581" y="503" on="0"/>
        <pt x="613" y="475" on="1"/>
        <pt x="638" y="453" on="0"/>
        <pt x="668" y="397" on="0"/>
        <pt x="668" y="362" on="1"/>
        <pt x="668" y="310" on="0"/>
        <pt x="612" y="235" on="0"/>
        <pt x="570" y="219" on="1"/>
        <pt x="617" y="210" on="0"/>
        <pt x="672" y="153" on="0"/>
        <pt x="672" y="105" on="1"/>
        <pt x="672" y="46" on="0"/>
        <pt x="588" y="-23" on="0"/>
        <pt x="516" y="-23" on="1"/>
        <pt x="479" y="-23" on="0"/>
        <pt x="418" y="6" on="0"/>
        <pt x="398" y="32" on="1"/>
        <pt x="457" y="95" on="1"/>
        <pt x="468" y="82" on="0"/>
        <pt x="497" y="66" on="0"/>
        <pt x="515" y="66" on="1"/>
        <pt x="538" y="66" on="0"/>
        <pt x="565" y="94" on="0"/>
        <pt x="565" y="117" on="1"/>
        <pt x="565" y="141" on="0"/>
        <pt x="538" y="169" on="0"/>
        <pt x="513" y="169" on="1"/>
        <pt x="495" y="169" on="0"/>
        <pt x="458" y="148" on="0"/>
        <pt x="432" y="124" on="1"/>
        <pt x="359" y="56" on="1"/>
        <pt x="327" y="26" on="0"/>
        <pt x="243" y="-23" on="0"/>
        <pt x="186" y="-23" on="1"/>
        <pt x="122" y="-23" on="0"/>
        <pt x="43" y="40" on="0"/>
        <pt x="43" y="92" on="1"/>
        <pt x="43" y="150" on="0"/>
        <pt x="117" y="210" on="0"/>
        <pt x="189" y="218" on="1"/>
        <pt x="412" y="242" on="1"/>
        <pt x="487" y="250" on="0"/>
        <pt x="555" y="309" on="0"/>
        <pt x="555" y="351" on="1"/>
        <pt x="555" y="386" on="0"/>
        <pt x="521" y="428" on="0"/>
        <pt x="490" y="428" on="1"/>
        <pt x="457" y="428" on="0"/>
        <pt x="420" y="383" on="0"/>
        <pt x="420" y="342" on="1"/>
        <pt x="420" y="277" on="1"/>
        <pt x="311" y="277" on="1"/>
        <pt x="311" y="338" on="1"/>
        <pt x="311" y="385" on="0"/>
        <pt x="256" y="441" on="0"/>
        <pt x="208" y="441" on="1"/>
        <pt x="181" y="441" on="0"/>
        <pt x="142" y="422" on="0"/>
        <pt x="131" y="405" on="1"/>
        <pt x="152" y="420" on="0"/>
        <pt x="178" y="420" on="1"/>
        <pt x="219" y="420" on="0"/>
        <pt x="268" y="371" on="0"/>
        <pt x="268" y="329" on="1"/>
        <pt x="268" y="305" on="0"/>
        <pt x="249" y="267" on="0"/>
        <pt x="218" y="242" on="0"/>
        <pt x="177" y="229" on="0"/>
        <pt x="155" y="229" on="1"/>
        <pt x="105" y="229" on="0"/>
        <pt x="37" y="297" on="0"/>
        <pt x="37" y="357" on="1"/>
        <pt x="37" y="394" on="0"/>
        <pt x="63" y="454" on="0"/>
        <pt x="109" y="497" on="0"/>
        <pt x="173" y="520" on="0"/>
        <pt x="212" y="520" on="1"/>
        <pt x="272" y="520" on="0"/>
        <pt x="347" y="463" on="0"/>
        <pt x="363" y="422" on="1"/>
        <pt x="372" y="448" on="0"/>
        <pt x="415" y="492" on="0"/>
        <pt x="451" y="503" on="1"/>
        <pt x="435" y="524" on="0"/>
        <pt x="418" y="578" on="0"/>
        <pt x="418" y="607" on="1"/>
        <pt x="418" y="651" on="0"/>
        <pt x="452" y="722" on="0"/>
        <pt x="513" y="771" on="0"/>
        <pt x="597" y="798" on="0"/>
      </contour>
      <contour>
        <pt x="324" y="132" on="1"/>
        <pt x="344" y="148" on="0"/>
        <pt x="369" y="166" on="0"/>
        <pt x="380" y="172" on="1"/>
        <pt x="196" y="140" on="1"/>
        <pt x="149" y="131" on="0"/>
        <pt x="149" y="97" on="1"/>
        <pt x="149" y="80" on="0"/>
        <pt x="172" y="62" on="0"/>
        <pt x="192" y="62" on="1"/>
        <pt x="213" y="62" on="0"/>
        <pt x="254" y="80" on="0"/>
        <pt x="274" y="95" on="1"/>
      </contour>
      <contour>
        <pt x="737" y="665" on="1"/>
        <pt x="737" y="685" on="0"/>
        <pt x="712" y="710" on="0"/>
        <pt x="692" y="712" on="1"/>
        <pt x="680" y="705" on="0"/>
        <pt x="665" y="683" on="0"/>
        <pt x="665" y="666" on="1"/>
        <pt x="665" y="649" on="0"/>
        <pt x="685" y="628" on="0"/>
        <pt x="702" y="628" on="1"/>
        <pt x="717" y="628" on="0"/>
        <pt x="737" y="648" on="0"/>
      </contour>
      <contour>
        <pt x="153" y="362" on="1"/>
        <pt x="135" y="362" on="0"/>
        <pt x="122" y="344" on="1"/>
        <pt x="122" y="343" on="1"/>
        <pt x="122" y="323" on="0"/>
        <pt x="139" y="297" on="0"/>
        <pt x="157" y="297" on="1"/>
        <pt x="169" y="297" on="0"/>
        <pt x="186" y="315" on="0"/>
        <pt x="186" y="329" on="1"/>
        <pt x="186" y="345" on="0"/>
        <pt x="167" y="362" on="0"/>
      </contour>
    </TTGlyph>
    <TTGlyph name="JaAltMatraU.tm" xMin="37" yMin="-23" xMax="1047" yMax="520">
      <contour>
        <pt x="212" y="520" on="1"/>
        <pt x="272" y="520" on="0"/>
        <pt x="347" y="463" on="0"/>
        <pt x="363" y="422" on="1"/>
        <pt x="375" y="456" on="0"/>
        <pt x="447" y="505" on="0"/>
        <pt x="510" y="505" on="1"/>
        <pt x="849" y="505" on="1"/>
        <pt x="943" y="505" on="0"/>
        <pt x="1047" y="428" on="0"/>
        <pt x="1047" y="360" on="1"/>
        <pt x="1047" y="300" on="0"/>
        <pt x="965" y="226" on="0"/>
        <pt x="898" y="226" on="1"/>
        <pt x="833" y="226" on="0"/>
        <pt x="753" y="295" on="0"/>
        <pt x="753" y="351" on="1"/>
        <pt x="753" y="388" on="0"/>
        <pt x="774" y="415" on="1"/>
        <pt x="653" y="415" on="1"/>
        <pt x="668" y="386" on="0"/>
        <pt x="668" y="352" on="1"/>
        <pt x="668" y="302" on="0"/>
        <pt x="613" y="233" on="0"/>
        <pt x="570" y="219" on="1"/>
        <pt x="617" y="210" on="0"/>
        <pt x="672" y="153" on="0"/>
        <pt x="672" y="105" on="1"/>
        <pt x="672" y="46" on="0"/>
        <pt x="588" y="-23" on="0"/>
        <pt x="516" y="-23" on="1"/>
        <pt x="479" y="-23" on="0"/>
        <pt x="418" y="6" on="0"/>
        <pt x="398" y="32" on="1"/>
        <pt x="457" y="95" on="1"/>
        <pt x="468" y="82" on="0"/>
        <pt x="497" y="66" on="0"/>
        <pt x="515" y="66" on="1"/>
        <pt x="538" y="66" on="0"/>
        <pt x="565" y="94" on="0"/>
        <pt x="565" y="117" on="1"/>
        <pt x="565" y="141" on="0"/>
        <pt x="538" y="169" on="0"/>
        <pt x="513" y="169" on="1"/>
        <pt x="495" y="169" on="0"/>
        <pt x="458" y="148" on="0"/>
        <pt x="432" y="124" on="1"/>
        <pt x="359" y="56" on="1"/>
        <pt x="327" y="26" on="0"/>
        <pt x="243" y="-23" on="0"/>
        <pt x="186" y="-23" on="1"/>
        <pt x="122" y="-23" on="0"/>
        <pt x="43" y="40" on="0"/>
        <pt x="43" y="92" on="1"/>
        <pt x="43" y="150" on="0"/>
        <pt x="117" y="210" on="0"/>
        <pt x="189" y="218" on="1"/>
        <pt x="412" y="242" on="1"/>
        <pt x="487" y="250" on="0"/>
        <pt x="555" y="309" on="0"/>
        <pt x="555" y="351" on="1"/>
        <pt x="555" y="386" on="0"/>
        <pt x="521" y="428" on="0"/>
        <pt x="490" y="428" on="1"/>
        <pt x="457" y="428" on="0"/>
        <pt x="420" y="383" on="0"/>
        <pt x="420" y="342" on="1"/>
        <pt x="420" y="277" on="1"/>
        <pt x="311" y="277" on="1"/>
        <pt x="311" y="338" on="1"/>
        <pt x="311" y="385" on="0"/>
        <pt x="256" y="441" on="0"/>
        <pt x="208" y="441" on="1"/>
        <pt x="181" y="441" on="0"/>
        <pt x="142" y="422" on="0"/>
        <pt x="131" y="405" on="1"/>
        <pt x="152" y="420" on="0"/>
        <pt x="178" y="420" on="1"/>
        <pt x="219" y="420" on="0"/>
        <pt x="268" y="371" on="0"/>
        <pt x="268" y="329" on="1"/>
        <pt x="268" y="305" on="0"/>
        <pt x="249" y="267" on="0"/>
        <pt x="218" y="242" on="0"/>
        <pt x="177" y="229" on="0"/>
        <pt x="155" y="229" on="1"/>
        <pt x="105" y="229" on="0"/>
        <pt x="37" y="297" on="0"/>
        <pt x="37" y="357" on="1"/>
        <pt x="37" y="394" on="0"/>
        <pt x="63" y="454" on="0"/>
        <pt x="109" y="497" on="0"/>
        <pt x="173" y="520" on="0"/>
      </contour>
      <contour>
        <pt x="324" y="132" on="1"/>
        <pt x="344" y="148" on="0"/>
        <pt x="369" y="166" on="0"/>
        <pt x="380" y="172" on="1"/>
        <pt x="196" y="140" on="1"/>
        <pt x="149" y="131" on="0"/>
        <pt x="149" y="97" on="1"/>
        <pt x="149" y="80" on="0"/>
        <pt x="172" y="62" on="0"/>
        <pt x="192" y="62" on="1"/>
        <pt x="213" y="62" on="0"/>
        <pt x="254" y="80" on="0"/>
        <pt x="274" y="95" on="1"/>
      </contour>
      <contour>
        <pt x="880" y="412" on="1"/>
        <pt x="869" y="404" on="0"/>
        <pt x="855" y="376" on="0"/>
        <pt x="855" y="360" on="1"/>
        <pt x="855" y="340" on="0"/>
        <pt x="880" y="316" on="0"/>
        <pt x="900" y="316" on="1"/>
        <pt x="919" y="316" on="0"/>
        <pt x="942" y="340" on="0"/>
        <pt x="942" y="360" on="1"/>
        <pt x="942" y="384" on="0"/>
        <pt x="908" y="412" on="0"/>
        <pt x="882" y="412" on="1"/>
      </contour>
      <contour>
        <pt x="153" y="362" on="1"/>
        <pt x="135" y="362" on="0"/>
        <pt x="122" y="344" on="1"/>
        <pt x="122" y="343" on="1"/>
        <pt x="122" y="323" on="0"/>
        <pt x="139" y="297" on="0"/>
        <pt x="157" y="297" on="1"/>
        <pt x="169" y="297" on="0"/>
        <pt x="186" y="315" on="0"/>
        <pt x="186" y="329" on="1"/>
        <pt x="186" y="345" on="0"/>
        <pt x="167" y="362" on="0"/>
      </contour>
    </TTGlyph>
    <TTGlyph name="JaAltMatraUu.tm" xMin="37" yMin="-23" xMax="1250" yMax="631">
      <contour>
        <pt x="994" y="631" on="1"/>
        <pt x="1052" y="631" on="0"/>
        <pt x="1146" y="596" on="0"/>
        <pt x="1213" y="533" on="0"/>
        <pt x="1250" y="445" on="0"/>
        <pt x="1250" y="391" on="1"/>
        <pt x="1250" y="341" on="0"/>
        <pt x="1222" y="260" on="0"/>
        <pt x="1178" y="196" on="0"/>
        <pt x="1123" y="147" on="0"/>
        <pt x="1096" y="131" on="1"/>
        <pt x="1025" y="216" on="1"/>
        <pt x="1045" y="229" on="0"/>
        <pt x="1082" y="263" on="0"/>
        <pt x="1110" y="306" on="0"/>
        <pt x="1127" y="359" on="0"/>
        <pt x="1127" y="391" on="1"/>
        <pt x="1127" y="456" on="0"/>
        <pt x="1056" y="537" on="0"/>
        <pt x="990" y="537" on="1"/>
        <pt x="958" y="537" on="0"/>
        <pt x="904" y="514" on="0"/>
        <pt x="887" y="495" on="1"/>
        <pt x="961" y="491" on="0"/>
        <pt x="1036" y="420" on="0"/>
        <pt x="1036" y="367" on="1"/>
        <pt x="1036" y="341" on="0"/>
        <pt x="1015" y="295" on="0"/>
        <pt x="977" y="261" on="0"/>
        <pt x="925" y="241" on="0"/>
        <pt x="894" y="241" on="1"/>
        <pt x="859" y="241" on="0"/>
        <pt x="805" y="263" on="0"/>
        <pt x="767" y="301" on="0"/>
        <pt x="748" y="350" on="0"/>
        <pt x="748" y="376" on="1"/>
        <pt x="748" y="388" on="0"/>
        <pt x="750" y="410" on="0"/>
        <pt x="752" y="420" on="1"/>
        <pt x="650" y="420" on="1"/>
        <pt x="668" y="390" on="0"/>
        <pt x="668" y="352" on="1"/>
        <pt x="668" y="302" on="0"/>
        <pt x="613" y="233" on="0"/>
        <pt x="570" y="219" on="1"/>
        <pt x="617" y="210" on="0"/>
        <pt x="672" y="153" on="0"/>
        <pt x="672" y="105" on="1"/>
        <pt x="672" y="46" on="0"/>
        <pt x="588" y="-23" on="0"/>
        <pt x="516" y="-23" on="1"/>
        <pt x="479" y="-23" on="0"/>
        <pt x="418" y="6" on="0"/>
        <pt x="398" y="32" on="1"/>
        <pt x="457" y="95" on="1"/>
        <pt x="468" y="82" on="0"/>
        <pt x="497" y="66" on="0"/>
        <pt x="515" y="66" on="1"/>
        <pt x="538" y="66" on="0"/>
        <pt x="565" y="94" on="0"/>
        <pt x="565" y="117" on="1"/>
        <pt x="565" y="141" on="0"/>
        <pt x="538" y="169" on="0"/>
        <pt x="513" y="169" on="1"/>
        <pt x="495" y="169" on="0"/>
        <pt x="458" y="148" on="0"/>
        <pt x="432" y="124" on="1"/>
        <pt x="359" y="56" on="1"/>
        <pt x="327" y="26" on="0"/>
        <pt x="243" y="-23" on="0"/>
        <pt x="186" y="-23" on="1"/>
        <pt x="122" y="-23" on="0"/>
        <pt x="43" y="40" on="0"/>
        <pt x="43" y="92" on="1"/>
        <pt x="43" y="150" on="0"/>
        <pt x="117" y="210" on="0"/>
        <pt x="189" y="218" on="1"/>
        <pt x="412" y="242" on="1"/>
        <pt x="487" y="250" on="0"/>
        <pt x="555" y="309" on="0"/>
        <pt x="555" y="351" on="1"/>
        <pt x="555" y="386" on="0"/>
        <pt x="521" y="428" on="0"/>
        <pt x="490" y="428" on="1"/>
        <pt x="457" y="428" on="0"/>
        <pt x="420" y="383" on="0"/>
        <pt x="420" y="342" on="1"/>
        <pt x="420" y="277" on="1"/>
        <pt x="311" y="277" on="1"/>
        <pt x="311" y="338" on="1"/>
        <pt x="311" y="385" on="0"/>
        <pt x="256" y="441" on="0"/>
        <pt x="208" y="441" on="1"/>
        <pt x="181" y="441" on="0"/>
        <pt x="142" y="422" on="0"/>
        <pt x="131" y="405" on="1"/>
        <pt x="152" y="420" on="0"/>
        <pt x="178" y="420" on="1"/>
        <pt x="219" y="420" on="0"/>
        <pt x="268" y="371" on="0"/>
        <pt x="268" y="329" on="1"/>
        <pt x="268" y="305" on="0"/>
        <pt x="249" y="267" on="0"/>
        <pt x="218" y="242" on="0"/>
        <pt x="177" y="229" on="0"/>
        <pt x="155" y="229" on="1"/>
        <pt x="105" y="229" on="0"/>
        <pt x="37" y="297" on="0"/>
        <pt x="37" y="357" on="1"/>
        <pt x="37" y="394" on="0"/>
        <pt x="63" y="454" on="0"/>
        <pt x="109" y="497" on="0"/>
        <pt x="173" y="520" on="0"/>
        <pt x="212" y="520" on="1"/>
        <pt x="272" y="520" on="0"/>
        <pt x="347" y="463" on="0"/>
        <pt x="363" y="422" on="1"/>
        <pt x="375" y="456" on="0"/>
        <pt x="447" y="505" on="0"/>
        <pt x="510" y="505" on="1"/>
        <pt x="779" y="505" on="1"/>
        <pt x="810" y="562" on="0"/>
        <pt x="924" y="631" on="0"/>
      </contour>
      <contour>
        <pt x="324" y="132" on="1"/>
        <pt x="344" y="148" on="0"/>
        <pt x="369" y="166" on="0"/>
        <pt x="380" y="172" on="1"/>
        <pt x="196" y="140" on="1"/>
        <pt x="149" y="131" on="0"/>
        <pt x="149" y="97" on="1"/>
        <pt x="149" y="80" on="0"/>
        <pt x="172" y="62" on="0"/>
        <pt x="192" y="62" on="1"/>
        <pt x="213" y="62" on="0"/>
        <pt x="254" y="80" on="0"/>
        <pt x="274" y="95" on="1"/>
      </contour>
      <contour>
        <pt x="859" y="414" on="1"/>
        <pt x="854" y="397" on="0"/>
        <pt x="854" y="381" on="1"/>
        <pt x="854" y="359" on="0"/>
        <pt x="876" y="332" on="0"/>
        <pt x="896" y="332" on="1"/>
        <pt x="913" y="332" on="0"/>
        <pt x="932" y="351" on="0"/>
        <pt x="932" y="368" on="1"/>
        <pt x="932" y="391" on="0"/>
        <pt x="898" y="414" on="0"/>
        <pt x="867" y="414" on="1"/>
      </contour>
      <contour>
        <pt x="153" y="362" on="1"/>
        <pt x="135" y="362" on="0"/>
        <pt x="122" y="344" on="1"/>
        <pt x="122" y="343" on="1"/>
        <pt x="122" y="323" on="0"/>
        <pt x="139" y="297" on="0"/>
        <pt x="157" y="297" on="1"/>
        <pt x="169" y="297" on="0"/>
        <pt x="186" y="315" on="0"/>
        <pt x="186" y="329" on="1"/>
        <pt x="186" y="345" on="0"/>
        <pt x="167" y="362" on="0"/>
      </contour>
    </TTGlyph>
    <TTGlyph name="JaAltPulli.tm" xMin="37" yMin="-23" xMax="672" yMax="723">
      <contour>
        <pt x="212" y="520" on="1"/>
        <pt x="272" y="520" on="0"/>
        <pt x="347" y="463" on="0"/>
        <pt x="363" y="422" on="1"/>
        <pt x="375" y="462" on="0"/>
        <pt x="447" y="520" on="0"/>
        <pt x="510" y="520" on="1"/>
        <pt x="546" y="520" on="0"/>
        <pt x="604" y="498" on="0"/>
        <pt x="645" y="459" on="0"/>
        <pt x="668" y="405" on="0"/>
        <pt x="668" y="372" on="1"/>
        <pt x="668" y="315" on="0"/>
        <pt x="612" y="236" on="0"/>
        <pt x="569" y="219" on="1"/>
        <pt x="617" y="211" on="0"/>
        <pt x="672" y="153" on="0"/>
        <pt x="672" y="105" on="1"/>
        <pt x="672" y="46" on="0"/>
        <pt x="588" y="-23" on="0"/>
        <pt x="516" y="-23" on="1"/>
        <pt x="479" y="-23" on="0"/>
        <pt x="418" y="6" on="0"/>
        <pt x="398" y="32" on="1"/>
        <pt x="457" y="95" on="1"/>
        <pt x="468" y="82" on="0"/>
        <pt x="497" y="66" on="0"/>
        <pt x="515" y="66" on="1"/>
        <pt x="538" y="66" on="0"/>
        <pt x="565" y="94" on="0"/>
        <pt x="565" y="117" on="1"/>
        <pt x="565" y="141" on="0"/>
        <pt x="538" y="169" on="0"/>
        <pt x="513" y="169" on="1"/>
        <pt x="495" y="169" on="0"/>
        <pt x="458" y="148" on="0"/>
        <pt x="432" y="124" on="1"/>
        <pt x="359" y="56" on="1"/>
        <pt x="327" y="26" on="0"/>
        <pt x="243" y="-23" on="0"/>
        <pt x="186" y="-23" on="1"/>
        <pt x="122" y="-23" on="0"/>
        <pt x="43" y="40" on="0"/>
        <pt x="43" y="92" on="1"/>
        <pt x="43" y="150" on="0"/>
        <pt x="117" y="210" on="0"/>
        <pt x="189" y="218" on="1"/>
        <pt x="412" y="242" on="1"/>
        <pt x="487" y="250" on="0"/>
        <pt x="555" y="309" on="0"/>
        <pt x="555" y="351" on="1"/>
        <pt x="555" y="386" on="0"/>
        <pt x="521" y="428" on="0"/>
        <pt x="490" y="428" on="1"/>
        <pt x="457" y="428" on="0"/>
        <pt x="420" y="383" on="0"/>
        <pt x="420" y="342" on="1"/>
        <pt x="420" y="277" on="1"/>
        <pt x="311" y="277" on="1"/>
        <pt x="311" y="338" on="1"/>
        <pt x="311" y="385" on="0"/>
        <pt x="256" y="441" on="0"/>
        <pt x="208" y="441" on="1"/>
        <pt x="181" y="441" on="0"/>
        <pt x="142" y="422" on="0"/>
        <pt x="131" y="405" on="1"/>
        <pt x="152" y="420" on="0"/>
        <pt x="178" y="420" on="1"/>
        <pt x="219" y="420" on="0"/>
        <pt x="268" y="371" on="0"/>
        <pt x="268" y="329" on="1"/>
        <pt x="268" y="305" on="0"/>
        <pt x="249" y="267" on="0"/>
        <pt x="218" y="242" on="0"/>
        <pt x="177" y="229" on="0"/>
        <pt x="155" y="229" on="1"/>
        <pt x="105" y="229" on="0"/>
        <pt x="37" y="297" on="0"/>
        <pt x="37" y="357" on="1"/>
        <pt x="37" y="394" on="0"/>
        <pt x="63" y="454" on="0"/>
        <pt x="109" y="497" on="0"/>
        <pt x="173" y="520" on="0"/>
      </contour>
      <contour>
        <pt x="351" y="723" on="1"/>
        <pt x="385" y="723" on="0"/>
        <pt x="427" y="680" on="0"/>
        <pt x="427" y="647" on="1"/>
        <pt x="427" y="614" on="0"/>
        <pt x="385" y="571" on="0"/>
        <pt x="353" y="571" on="1"/>
        <pt x="319" y="571" on="0"/>
        <pt x="276" y="614" on="0"/>
        <pt x="276" y="647" on="1"/>
        <pt x="276" y="680" on="0"/>
        <pt x="319" y="723" on="0"/>
      </contour>
      <contour>
        <pt x="324" y="132" on="1"/>
        <pt x="344" y="148" on="0"/>
        <pt x="369" y="166" on="0"/>
        <pt x="380" y="172" on="1"/>
        <pt x="196" y="140" on="1"/>
        <pt x="149" y="131" on="0"/>
        <pt x="149" y="97" on="1"/>
        <pt x="149" y="80" on="0"/>
        <pt x="172" y="62" on="0"/>
        <pt x="192" y="62" on="1"/>
        <pt x="213" y="62" on="0"/>
        <pt x="254" y="80" on="0"/>
        <pt x="274" y="95" on="1"/>
      </contour>
      <contour>
        <pt x="153" y="362" on="1"/>
        <pt x="135" y="362" on="0"/>
        <pt x="122" y="344" on="1"/>
        <pt x="122" y="343" on="1"/>
        <pt x="122" y="323" on="0"/>
        <pt x="139" y="297" on="0"/>
        <pt x="157" y="297" on="1"/>
        <pt x="169" y="297" on="0"/>
        <pt x="186" y="315" on="0"/>
        <pt x="186" y="329" on="1"/>
        <pt x="186" y="345" on="0"/>
        <pt x="167" y="362" on="0"/>
      </contour>
    </TTGlyph>
    <TTGlyph name="JaMatraI.tm" xMin="34" yMin="-288" xMax="1045" yMax="760">
      <contour>
        <pt x="814" y="760" on="1"/>
        <pt x="921" y="760" on="0"/>
        <pt x="1045" y="649" on="0"/>
        <pt x="1045" y="547" on="1"/>
        <pt x="1045" y="0" on="1"/>
        <pt x="909" y="0" on="1"/>
        <pt x="909" y="542" on="1"/>
        <pt x="909" y="595" on="0"/>
        <pt x="859" y="650" on="0"/>
        <pt x="811" y="650" on="1"/>
        <pt x="767" y="650" on="0"/>
        <pt x="721" y="603" on="0"/>
        <pt x="721" y="565" on="1"/>
        <pt x="721" y="534" on="0"/>
        <pt x="752" y="472" on="0"/>
        <pt x="779" y="432" on="1"/>
        <pt x="799" y="402" on="0"/>
        <pt x="820" y="344" on="0"/>
        <pt x="820" y="313" on="1"/>
        <pt x="820" y="256" on="0"/>
        <pt x="777" y="173" on="0"/>
        <pt x="702" y="114" on="0"/>
        <pt x="600" y="75" on="0"/>
        <pt x="541" y="62" on="1"/>
        <pt x="306" y="9" on="1"/>
        <pt x="250" y="-4" on="0"/>
        <pt x="186" y="-57" on="0"/>
        <pt x="186" y="-103" on="1"/>
        <pt x="186" y="-139" on="0"/>
        <pt x="230" y="-178" on="0"/>
        <pt x="260" y="-178" on="1"/>
        <pt x="292" y="-178" on="0"/>
        <pt x="342" y="-148" on="0"/>
        <pt x="374" y="-116" on="1"/>
        <pt x="438" y="-53" on="1"/>
        <pt x="459" y="-32" on="0"/>
        <pt x="504" y="6" on="0"/>
        <pt x="555" y="35" on="0"/>
        <pt x="612" y="52" on="0"/>
        <pt x="645" y="52" on="1"/>
        <pt x="685" y="52" on="0"/>
        <pt x="752" y="27" on="0"/>
        <pt x="800" y="-19" on="0"/>
        <pt x="827" y="-83" on="0"/>
        <pt x="827" y="-122" on="1"/>
        <pt x="827" y="-160" on="0"/>
        <pt x="798" y="-222" on="0"/>
        <pt x="749" y="-265" on="0"/>
        <pt x="682" y="-288" on="0"/>
        <pt x="645" y="-288" on="1"/>
        <pt x="599" y="-288" on="0"/>
        <pt x="527" y="-253" on="0"/>
        <pt x="506" y="-229" on="1"/>
        <pt x="574" y="-153" on="1"/>
        <pt x="585" y="-163" on="0"/>
        <pt x="615" y="-181" on="0"/>
        <pt x="635" y="-181" on="1"/>
        <pt x="662" y="-181" on="0"/>
        <pt x="695" y="-147" on="0"/>
        <pt x="695" y="-119" on="1"/>
        <pt x="695" y="-90" on="0"/>
        <pt x="661" y="-57" on="0"/>
        <pt x="632" y="-57" on="1"/>
        <pt x="607" y="-57" on="0"/>
        <pt x="562" y="-90" on="0"/>
        <pt x="528" y="-127" on="1"/>
        <pt x="461" y="-200" on="1"/>
        <pt x="423" y="-241" on="0"/>
        <pt x="327" y="-288" on="0"/>
        <pt x="256" y="-288" on="1"/>
        <pt x="215" y="-288" on="0"/>
        <pt x="141" y="-263" on="0"/>
        <pt x="85" y="-216" on="0"/>
        <pt x="51" y="-148" on="0"/>
        <pt x="51" y="-105" on="1"/>
        <pt x="51" y="-52" on="0"/>
        <pt x="86" y="22" on="0"/>
        <pt x="149" y="75" on="0"/>
        <pt x="236" y="109" on="0"/>
        <pt x="288" y="121" on="1"/>
        <pt x="533" y="179" on="1"/>
        <pt x="608" y="196" on="0"/>
        <pt x="684" y="262" on="0"/>
        <pt x="684" y="315" on="1"/>
        <pt x="684" y="354" on="0"/>
        <pt x="639" y="404" on="0"/>
        <pt x="602" y="404" on="1"/>
        <pt x="564" y="404" on="0"/>
        <pt x="519" y="349" on="0"/>
        <pt x="519" y="298" on="1"/>
        <pt x="519" y="215" on="1"/>
        <pt x="385" y="215" on="1"/>
        <pt x="385" y="278" on="1"/>
        <pt x="385" y="339" on="0"/>
        <pt x="315" y="415" on="0"/>
        <pt x="249" y="415" on="1"/>
        <pt x="215" y="415" on="0"/>
        <pt x="157" y="385" on="0"/>
        <pt x="147" y="354" on="1"/>
        <pt x="175" y="379" on="0"/>
        <pt x="213" y="379" on="1"/>
        <pt x="238" y="379" on="0"/>
        <pt x="283" y="363" on="0"/>
        <pt x="316" y="332" on="0"/>
        <pt x="336" y="288" on="0"/>
        <pt x="336" y="260" on="1"/>
        <pt x="336" y="228" on="0"/>
        <pt x="312" y="179" on="0"/>
        <pt x="271" y="146" on="0"/>
        <pt x="218" y="129" on="0"/>
        <pt x="189" y="129" on="1"/>
        <pt x="156" y="129" on="0"/>
        <pt x="100" y="153" on="0"/>
        <pt x="58" y="198" on="0"/>
        <pt x="34" y="262" on="0"/>
        <pt x="34" y="303" on="1"/>
        <pt x="34" y="351" on="0"/>
        <pt x="66" y="429" on="0"/>
        <pt x="124" y="485" on="0"/>
        <pt x="205" y="515" on="0"/>
        <pt x="253" y="515" on="1"/>
        <pt x="291" y="515" on="0"/>
        <pt x="353" y="496" on="0"/>
        <pt x="402" y="463" on="0"/>
        <pt x="438" y="418" on="0"/>
        <pt x="450" y="393" on="1"/>
        <pt x="462" y="441" on="0"/>
        <pt x="540" y="507" on="0"/>
        <pt x="606" y="510" on="1"/>
        <pt x="589" y="542" on="0"/>
        <pt x="589" y="580" on="1"/>
        <pt x="589" y="618" on="0"/>
        <pt x="620" y="684" on="0"/>
        <pt x="679" y="732" on="0"/>
        <pt x="762" y="760" on="0"/>
      </contour>
      <contour>
        <pt x="188" y="304" on="1"/>
        <pt x="162" y="304" on="0"/>
        <pt x="145" y="277" on="1"/>
        <pt x="145" y="248" on="0"/>
        <pt x="169" y="216" on="0"/>
        <pt x="191" y="216" on="1"/>
        <pt x="208" y="216" on="0"/>
        <pt x="231" y="239" on="0"/>
        <pt x="231" y="259" on="1"/>
        <pt x="231" y="281" on="0"/>
        <pt x="207" y="304" on="0"/>
      </contour>
    </TTGlyph>
</ttFont>
